<?xml version="1.0" standalone="no"?>
<!DOCTYPE svg PUBLIC "-//W3C//DTD SVG 1.1//EN" "http://www.w3.org/Graphics/SVG/1.1/DTD/svg11.dtd" >
<svg xmlns="http://www.w3.org/2000/svg" xmlns:xlink="http://www.w3.org/1999/xlink" version="1.1">
<metadata>
Created by FontForge 20170731 at Sat Oct 14 18:29:14 2023
 By Aleksey,,,
Copyright (c) 2003-2006 Peter Bilak, Typotheque V.O.F. All rights reserved.
</metadata>
<defs>
<font id="FedraSansCondStd-Book" horiz-adv-x="860" >
  <font-face 
    font-family="Fedra Sans Cond Std Book"
    font-weight="350"
    font-stretch="condensed"
    units-per-em="2048"
    panose-1="2 0 5 6 3 0 0 2 0 4"
    ascent="1597"
    descent="-451"
    x-height="1118"
    cap-height="1448"
    bbox="-199 -582 2611.22 1933"
    underline-thickness="102"
    underline-position="-307"
    unicode-range="U+0020-FE69"
  />
<missing-glyph horiz-adv-x="1458" 
d="M625 768v55h55v-55h-55zM778 1075v55h56v-55h-56zM625 1075v55h55v-55h-55zM471 1075v55h55v-55h-55zM164 0v55h55v-55h-55zM317 0v55h56v-55h-56zM471 0v55h55v-55h-55zM625 0v55h55v-55h-55zM778 0v55h56v-55h-56zM164 154v55h55v-55h-55zM164 307v55h55v-55h-55z
M164 461v55h55v-55h-55zM164 614v56h55v-56h-55zM164 768v55h55v-55h-55zM164 922v55h55v-55h-55zM164 1075v55h55v-55h-55zM164 1229v55h55v-55h-55zM164 1382v56h55v-56h-55zM317 1382v56h56v-56h-56zM471 1382v56h55v-56h-55zM625 1382v56h55v-56h-55zM778 1382v56h56
v-56h-56zM932 1382v56h55v-56h-55zM1085 1382v56h56v-56h-56zM1085 0v55h56v-55h-56zM932 0v55h55v-55h-55zM1239 0v55h55v-55h-55zM1239 1382v56h55v-56h-55zM625 614v56h55v-56h-55zM625 307v55h55v-55h-55zM778 768v55h56v-55h-56zM932 768v55h55v-55h-55zM932 922v55h55
v-55h-55zM932 1075v55h55v-55h-55zM1239 1229v55h55v-55h-55zM1239 1075v55h55v-55h-55zM1239 768v55h55v-55h-55zM1239 614v56h55v-56h-55zM1239 307v55h55v-55h-55zM1239 154v55h55v-55h-55zM1239 461v55h55v-55h-55zM1239 922v55h55v-55h-55z" />
    <glyph glyph-name="f_f" unicode="ff" horiz-adv-x="1038" 
d="M1159 1548l-22 -141q-97 27 -166 27q-83 0 -124.5 -46t-41.5 -163v-107h170v-135h-170v-1434h-158v1434h-362v-1434h-158v1434h-115v135h115v88q0 85 20 152t52 109t76.5 69t90 38t95.5 11q159 0 299 -61q74 61 205 61q49 0 106.5 -12t87.5 -25zM285 1225v-107h362v88
q0 109 35 195q-83 35 -221 35q-84 0 -130 -47.5t-46 -163.5z" />
    <glyph glyph-name="fi" unicode="fi" horiz-adv-x="925" 
d="M788 1450q-79 -29 -178 -29q-28 0 -81.5 6.5t-75.5 6.5q-82 0 -125 -48.5t-43 -160.5v-107h518v-1118h-158v983h-360v-1434h-158v1434h-115v135h115v88q0 186 80 282.5t239 96.5q27 0 87 -5.5t106 -6.5q41 0 127 8z" />
    <glyph glyph-name="fl" unicode="fl" horiz-adv-x="925" 
d="M803 0h-158v1423q-36 -3 -99.5 4t-92.5 7q-83 0 -125.5 -48t-42.5 -161v-107h170v-135h-170v-1434h-158v1434h-115v135h115v88q0 379 319 379q25 0 85 -8t108 -8q92 0 164 10v-1579z" />
    <glyph glyph-name="f_f_i" unicode="ffi" horiz-adv-x="1441" 
d="M1303 1450q-83 -29 -179 -29q-28 0 -81 6.5t-76 6.5q-82 0 -125 -48.5t-43 -160.5v-107h518v-1118h-158v983h-360v-1434h-158v1434h-356v-1434h-158v1434h-115v135h115v88q0 88 18.5 156t49 109.5t73.5 67.5t86.5 36t94.5 10q136 0 307 -63q75 63 205 63q27 0 86.5 -5.5
t105.5 -6.5q41 0 127 8zM285 1225v-107h356v88q0 121 35 195q-128 35 -225 35q-83 0 -124.5 -47t-41.5 -164z" />
    <glyph glyph-name="f_f_l" unicode="ffl" horiz-adv-x="1443" 
d="M1321 0h-158v1423q-36 -3 -99.5 4t-92.5 7q-82 0 -125 -48t-43 -161v-107h170v-135h-170v-1434h-156v1434h-362v-1434h-158v1434h-115v135h115v88q0 85 20 152t52 109t76.5 69t90 38t95.5 11q159 0 299 -61q77 61 207 61q24 0 83.5 -8t106.5 -8q96 0 164 10v-1579z
M647 1206q0 114 33 195q-80 35 -219 35q-84 0 -130 -47.5t-46 -163.5v-107h362v88z" />
    <glyph glyph-name="f_h" unicode="fh" horiz-adv-x="1445" 
d="M803 0h-158v1423q-36 -3 -99.5 4t-92.5 7q-83 0 -125.5 -48t-42.5 -161v-107h170v-135h-170v-1434h-158v1434h-115v135h115v88q0 379 319 379q25 0 85 -8t108 -8q92 0 164 10v-580q12 19 44.5 49.5t94 63.5t119.5 33q52 0 93.5 -15t68.5 -37.5t46.5 -59t29.5 -70t16 -81
t7 -80t1 -79.5v-723h-154v709q0 60 -2.5 99t-11 76.5t-24.5 58.5t-42.5 33.5t-64.5 12.5q-12 0 -25 -2.5t-24.5 -6.5t-26 -11t-24.5 -12t-25 -15t-23 -15.5t-22.5 -16.5t-19 -14.5t-17.5 -14.5t-14 -11v-870z" />
    <glyph glyph-name="f_b" unicode="fb" horiz-adv-x="1413" 
d="M127 -451v1434h-115v135h115v88q0 379 319 379q25 0 85 -8t108 -8q92 0 164 10v-1434q43 -14 143 -14q75 0 130.5 57.5t83.5 155t28 221.5q0 92 -9 162t-30.5 132t-64 95t-103.5 33q-46 0 -102 -20l-13 131q2 0 15.5 5t28.5 10t40 9t49 4q168 0 257.5 -138t89.5 -390
q0 -135 -22 -241.5t-58.5 -175.5t-89 -114t-109.5 -64t-123 -19q-93 0 -158 12t-139 43v1384q-36 -3 -100.5 4t-93.5 7q-83 0 -125.5 -48t-42.5 -161v-107h170v-135h-170v-1434h-158z" />
    <glyph glyph-name="f_j" unicode="fj" horiz-adv-x="927" 
d="M803 1118v-1161q0 -118 -20.5 -201.5t-60 -131.5t-91 -69.5t-119.5 -21.5q-50 0 -127 31l29 139q50 -20 92 -20q75 0 107 66t32 196v1038h-360v-1434h-158v1434h-115v135h115v88q0 186 80 282.5t239 96.5q27 0 87 -5.5t106 -6.5q41 0 127 8l22 -131q-79 -29 -178 -29
q-28 0 -81.5 6.5t-75.5 6.5q-82 0 -125 -48.5t-43 -160.5v-107h518z" />
    <glyph glyph-name="f_k" unicode="fk" horiz-adv-x="1343" 
d="M1343 106l-45 -124q-76 7 -143 59t-133 174l-174 315l-33 60l47 100l277 428h178l-344 -524l162 -277q89 -148 208 -211zM803 0h-158v1423q-36 -3 -99.5 4t-92.5 7q-83 0 -125.5 -48t-42.5 -161v-107h170v-135h-170v-1434h-158v1434h-115v135h115v88q0 379 319 379
q25 0 85 -8t108 -8q92 0 164 10v-1579z" />
    <glyph glyph-name="f_f_j" unicode="ffj" horiz-adv-x="1429" 
d="M285 1219v-101h356v88q0 125 35 205q-118 27 -207 27q-92 0 -138 -49t-46 -170zM1157 983h-360v-1434h-156v1434h-356v-1434h-156v1434h-115v135h115v90q0 381 336 381q138 0 307 -57q74 53 189 53q26 0 85.5 -5.5t104.5 -6.5q45 0 127 8l25 -131q-83 -29 -179 -29
q-28 0 -81.5 6.5t-77.5 6.5q-81 0 -124.5 -48.5t-43.5 -160.5v-107h518v-1161q0 -229 -75 -326.5t-214 -97.5q-52 0 -129 31l29 139q50 -20 94 -20q74 0 105.5 66t31.5 196v1038z" />
    <glyph glyph-name="aogonek_j" unicode="&#x105;j" horiz-adv-x="1226" 
d="M543 233v287q-132 -5 -165 -10q-139 -22 -168 -121q-9 -29 -9 -67q0 -199 129 -199q103 0 213 110zM705 -463q-123 0 -195 66t-72 168q0 81 52 139t141 110q-10 6 -19 14t-15.5 15.5t-12 16t-9 15t-6.5 14t-4.5 11.5t-2.5 8l-1 5q-101 -135 -258 -135q-66 0 -116.5 27.5
t-79 74.5t-42.5 103t-14 120q0 79 29 141.5t79.5 101t114 59.5t136.5 24l133 6v166q0 109 -38 148.5t-147 39.5q-73 0 -217 -57l-24 133q52 34 130.5 54t143.5 20q305 0 305 -307v-619q0 -50 27 -73.5t76 -30.5l-11 -127q-204 -94 -204 -195q0 -63 45 -95t110 -32
q94 0 151.5 77t57.5 202v1173h158v-1161q0 -92 -26 -166t-66.5 -120t-95 -77.5t-107.5 -44t-106 -12.5zM1147 1473l-123 -123l-119 123l119 120z" />
    <glyph glyph-name=".notdef" horiz-adv-x="1458" 
d="M625 768v55h55v-55h-55zM778 1075v55h56v-55h-56zM625 1075v55h55v-55h-55zM471 1075v55h55v-55h-55zM164 0v55h55v-55h-55zM317 0v55h56v-55h-56zM471 0v55h55v-55h-55zM625 0v55h55v-55h-55zM778 0v55h56v-55h-56zM164 154v55h55v-55h-55zM164 307v55h55v-55h-55z
M164 461v55h55v-55h-55zM164 614v56h55v-56h-55zM164 768v55h55v-55h-55zM164 922v55h55v-55h-55zM164 1075v55h55v-55h-55zM164 1229v55h55v-55h-55zM164 1382v56h55v-56h-55zM317 1382v56h56v-56h-56zM471 1382v56h55v-56h-55zM625 1382v56h55v-56h-55zM778 1382v56h56
v-56h-56zM932 1382v56h55v-56h-55zM1085 1382v56h56v-56h-56zM1085 0v55h56v-55h-56zM932 0v55h55v-55h-55zM1239 0v55h55v-55h-55zM1239 1382v56h55v-56h-55zM625 614v56h55v-56h-55zM625 307v55h55v-55h-55zM778 768v55h56v-55h-56zM932 768v55h55v-55h-55zM932 922v55h55
v-55h-55zM932 1075v55h55v-55h-55zM1239 1229v55h55v-55h-55zM1239 1075v55h55v-55h-55zM1239 768v55h55v-55h-55zM1239 614v56h55v-56h-55zM1239 307v55h55v-55h-55zM1239 154v55h55v-55h-55zM1239 461v55h55v-55h-55zM1239 922v55h55v-55h-55z" />
    <glyph glyph-name=".null" horiz-adv-x="0" 
 />
    <glyph glyph-name="nonmarkingreturn" horiz-adv-x="682" 
 />
    <glyph glyph-name="space" unicode=" " horiz-adv-x="368" 
 />
    <glyph glyph-name="space" unicode="&#xa0;" horiz-adv-x="368" 
 />
    <glyph glyph-name="exclam" unicode="!" horiz-adv-x="423" 
d="M281 649l-11 -295h-135l-10 295v799h156v-799zM289 0h-172v186h172v-186z" />
    <glyph glyph-name="quotedbl" unicode="&#x22;" horiz-adv-x="524" 
d="M463 1542l-10 -487h-131l-9 487h150zM203 1542l-8 -487h-132l-10 487h150z" />
    <glyph glyph-name="numbersign" unicode="#" horiz-adv-x="874" 
d="M827 309h-149l-12 -309h-150l12 309h-202l-13 -309h-149l12 309h-125v137h131l13 265h-144v137h152l12 313h150l-13 -313h203l14 313h148l-12 -313h122v-137h-129l-12 -265h141v-137zM549 711h-205l-12 -265h205z" />
    <glyph glyph-name="dollar" unicode="$" horiz-adv-x="768" 
d="M700 322q0 -148 -71 -226.5t-185 -97.5l5 -201h-142l2 195q-146 13 -252 86l49 129q81 -41 138 -59.5t118 -18.5q78 0 128.5 44.5t50.5 131.5q0 43 -24.5 79t-63.5 63t-86.5 53.5t-94.5 57.5t-86 68t-63.5 92.5t-24.5 123.5q0 115 57.5 184t153.5 92l-2 201h139l-4 -193
q123 -5 228 -67l-39 -121q-75 29 -122.5 41t-102.5 12q-66 0 -107 -38.5t-41 -104.5q0 -43 24.5 -80.5t63.5 -66.5t86 -57t94 -59t86 -66.5t63.5 -86t24.5 -110.5z" />
    <glyph glyph-name="percent" unicode="%" horiz-adv-x="1175" 
d="M543 1128q0 -165 -72.5 -260.5t-179.5 -95.5q-110 0 -177 81.5t-67 258.5q0 158 71.5 254t178.5 96q110 0 178 -83t68 -251zM1128 338q0 -163 -72 -259.5t-179 -96.5q-111 0 -178.5 81.5t-67.5 258.5q0 157 72.5 253.5t179.5 96.5q110 0 177.5 -83t67.5 -251zM403 1130
q0 207 -106 207q-50 0 -83.5 -58.5t-33.5 -164.5q0 -103 29.5 -160t81.5 -57q48 0 80 58.5t32 174.5zM987 340q0 207 -104 207q-50 0 -83.5 -58t-33.5 -165q0 -103 29.5 -160.5t81.5 -57.5q47 0 78.5 59t31.5 175zM1081 1282l-897 -1227l-96 84l897 1225z" />
    <glyph glyph-name="ampersand" unicode="&#x26;" horiz-adv-x="1030" 
d="M1051 133l-11 -141q-206 3 -385 137q-72 -77 -132 -111t-158 -34q-45 0 -86 9.5t-82.5 34.5t-71 64t-48 103t-18.5 147q0 229 191 434q-51 183 -51 342q0 66 16 124.5t47 106t83.5 75.5t119.5 28q235 0 235 -266q0 -52 -25.5 -112.5t-72.5 -123t-90.5 -111t-101.5 -106.5
q89 -254 267 -420t374 -180zM559 1178q0 68 -25.5 105.5t-72.5 37.5q-52 0 -87.5 -50t-35.5 -124q0 -95 31 -277q72 67 131 155t59 153zM561 215q-163 170 -256 418q-47 -56 -73.5 -132t-26.5 -149q0 -118 51.5 -171.5t124.5 -53.5q85 0 180 88z" />
    <glyph glyph-name="quotesingle" unicode="'" horiz-adv-x="268" 
d="M207 1542l-10 -487h-129l-11 487h150z" />
    <glyph glyph-name="parenleft" unicode="(" horiz-adv-x="520" 
d="M520 1495l-18 -23q-18 -23 -36.5 -48.5t-47 -73.5t-53.5 -99.5t-51.5 -125.5t-45.5 -152.5t-31 -179.5t-12 -207q0 -113 14 -223.5t33 -194t50 -167.5t54.5 -135.5t56.5 -108t45.5 -76t32.5 -46.5q5 -8 7 -10l-106 -86q-24 23 -55.5 63.5t-84.5 135t-94.5 205.5
t-72.5 282.5t-31 358.5q0 188 32 355t74.5 272t97 192t86 122t54.5 54z" />
    <glyph glyph-name="parenright" unicode=")" horiz-adv-x="522" 
d="M109 -463l-101 90q0 1 17 25t31.5 47.5t39.5 65.5t45.5 88.5t45.5 106.5t43.5 128.5t35 145.5t25 167.5t8.5 184.5q0 115 -15 224.5t-33.5 188.5t-52.5 161.5t-54.5 125.5t-58.5 99.5t-44.5 64.5t-31.5 38q-4 5 -5 7l102 84q24 -20 55 -54t86.5 -121.5t98 -192.5t75 -272
t32.5 -355q0 -187 -32 -358.5t-73.5 -282.5t-96 -206.5t-86 -135t-56.5 -64.5z" />
    <glyph glyph-name="asterisk" unicode="*" horiz-adv-x="864" 
d="M786 1317l-206 -88l-48 78l183 133zM508 1561l-23 -224h-96l-24 224h143zM786 1079l-71 -127l-183 131l50 84zM340 1309l-49 -84l-205 92l72 123zM506 836h-144l25 221h96zM336 1087l-180 -133l-70 123l205 90z" />
    <glyph glyph-name="plus" unicode="+" horiz-adv-x="722" 
d="M674 520h-240v-254h-145v254h-240v137h240v254h145v-254h240v-137z" />
    <glyph glyph-name="comma" unicode="," horiz-adv-x="466" 
d="M322 57q0 -145 -68 -313h-137q43 137 43 256v170h162v-113z" />
    <glyph glyph-name="hyphen" unicode="-" horiz-adv-x="540" 
d="M508 516h-475v141h475v-141z" />
    <glyph glyph-name="hyphen" unicode="&#xad;" horiz-adv-x="540" 
d="M508 516h-475v141h475v-141z" />
    <glyph glyph-name="period" unicode="." horiz-adv-x="466" 
d="M328 0h-176v184h176v-184z" />
    <glyph glyph-name="slash" unicode="/" horiz-adv-x="743" 
d="M678 1575l-485 -1702h-136l488 1702h133z" />
    <glyph glyph-name="zero" unicode="0" horiz-adv-x="1024" 
d="M952 563q0 -270 -123 -424.5t-319 -154.5q-197 0 -316.5 152.5t-119.5 418.5t121 423t321 157q196 0 316 -158t120 -414zM795 561q0 187 -81.5 309.5t-199.5 122.5q-122 0 -201.5 -116.5t-79.5 -321.5q0 -188 81 -309t198 -121q118 0 200.5 120.5t82.5 315.5z" />
    <glyph glyph-name="one" unicode="1" horiz-adv-x="528" 
d="M379 0h-158v983h-207v127l365 14v-1124z" />
    <glyph glyph-name="two" unicode="2" horiz-adv-x="733" 
d="M674 0h-629v125q7 8 68.5 80.5t95 113t92 118.5t91 131.5t59 114.5t26.5 103q0 201 -147 201q-98 0 -205 -84l-51 121q40 42 113 75.5t151 33.5q154 0 225.5 -90t71.5 -244q0 -75 -41 -169t-110 -187t-131 -165t-130 -141h451v-137z" />
    <glyph glyph-name="three" unicode="3" horiz-adv-x="731" 
d="M666 59q0 -110 -27 -190t-77 -126t-113 -67.5t-142 -21.5q-156 0 -284 67l34 140q132 -56 234 -56q221 0 221 250q0 127 -78.5 208.5t-204.5 90.5v140q100 11 168 90.5t68 187.5q0 109 -46 162t-118 53q-26 0 -53 -4.5t-48.5 -12t-38 -14.5t-29.5 -14l-13 -6l-47 123
q112 76 239 76q141 0 222 -91.5t81 -257.5q0 -123 -56 -213t-122 -131q37 -17 73.5 -46.5t73.5 -75.5t60 -114t23 -147z" />
    <glyph glyph-name="four" unicode="4" horiz-adv-x="827" 
d="M809 57h-178v-387h-158v387h-457v146l396 915h219v-921h178v-140zM473 197v780h-6l-82 -229l-211 -551h299z" />
    <glyph glyph-name="five" unicode="5" horiz-adv-x="776" 
d="M713 113q0 -216 -98.5 -338.5t-268.5 -122.5q-160 0 -268 47l37 154q108 -43 229 -43q93 0 153 77.5t60 202.5q0 150 -62.5 221.5t-162.5 71.5q-88 0 -213 -16v751h557v-147h-408v-443q74 4 109 4q158 0 247 -111t89 -308z" />
    <glyph glyph-name="six" unicode="6" horiz-adv-x="839" 
d="M780 467q0 -229 -90 -361.5t-254 -132.5q-192 0 -277 153t-85 495q0 391 119.5 616t343.5 225q110 0 172 -35l-29 -139q-60 25 -143 25q-63 0 -113 -30.5t-82.5 -85.5t-55.5 -122t-35 -150.5t-17 -158.5t-5 -158q0 -118 8.5 -200.5t31.5 -152t67 -104t110 -34.5
q56 0 98 46.5t62.5 118t20.5 154.5q0 146 -52 229t-139 83q-34 0 -121 -17l-4 137q84 25 146 25q111 0 185.5 -59.5t106 -152.5t31.5 -214z" />
    <glyph glyph-name="seven" unicode="7" horiz-adv-x="655" 
d="M653 958l-456 -1320l-150 55l453 1274h-508v151h661v-160z" />
    <glyph glyph-name="eight" unicode="8" horiz-adv-x="854" 
d="M788 352q0 -179 -98 -275.5t-268 -96.5q-161 0 -257.5 93t-96.5 259q0 71 18 133.5t54 115t77 94t98 87.5q-102 89 -152 171.5t-50 201.5q0 159 86.5 243t240.5 84q148 0 229 -91t81 -224q0 -65 -14.5 -118.5t-46.5 -101t-65 -83t-87 -84.5q55 -45 94 -84t78 -90t59 -110
t20 -124zM594 1126q0 85 -37.5 141t-118.5 56q-87 0 -131.5 -51.5t-44.5 -143.5q0 -76 44.5 -144.5t117.5 -137.5q77 66 123.5 133.5t46.5 146.5zM629 365q0 132 -207 307q-193 -148 -193 -326q0 -104 53.5 -163.5t147.5 -59.5t146.5 60.5t52.5 181.5z" />
    <glyph glyph-name="nine" unicode="9" horiz-adv-x="845" 
d="M774 483q0 -442 -109 -639.5t-364 -197.5q-87 0 -166 32l27 144q84 -27 137 -27q61 0 109.5 20t81.5 53t56.5 87t37 108.5t21 133.5t9.5 146t2 159q0 91 -11.5 173t-35 153.5t-65.5 114t-98 42.5t-97.5 -44t-61.5 -112t-20 -149q0 -340 187 -340q45 0 125 22l8 -139
q-85 -26 -160 -26q-159 0 -239 119.5t-80 334.5q0 220 93.5 352t254.5 132q116 0 197.5 -83t121 -228t39.5 -341z" />
    <glyph glyph-name="colon" unicode=":" horiz-adv-x="466" 
d="M326 930h-181v188h181v-188zM326 0h-181v188h181v-188z" />
    <glyph glyph-name="semicolon" unicode=";" horiz-adv-x="466" 
d="M117 -256q43 137 43 256v170h162v-113q0 -145 -68 -313h-137zM145 930v188h181v-188h-181z" />
    <glyph glyph-name="less" unicode="&#x3c;" horiz-adv-x="657" 
d="M625 152l-592 340v196l592 340v-162l-475 -272v-8l475 -273v-161z" />
    <glyph glyph-name="equal" unicode="=" horiz-adv-x="684" 
d="M645 719h-606v135h606v-135zM645 319h-606v136h606v-136z" />
    <glyph glyph-name="greater" unicode="&#x3e;" horiz-adv-x="657" 
d="M625 492l-592 -340v161l475 275v8l-475 270v162l592 -340v-196z" />
    <glyph glyph-name="question" unicode="?" horiz-adv-x="581" 
d="M168 332q-23 108 -23 162q0 72 23 138t55.5 114.5t65 93t55.5 90.5t23 90q0 121 -73 195t-188 92l27 147q80 -9 147.5 -36t123.5 -74.5t88 -126t32 -179.5q0 -70 -24 -135.5t-58 -115.5t-67.5 -97t-57.5 -99t-24 -102q0 -24 5.5 -69.5t6.5 -54.5zM156 0v186h172v-186
h-172z" />
    <glyph glyph-name="at" unicode="@" horiz-adv-x="1177" 
d="M1114 877q0 -147 -30 -262t-80.5 -183t-112 -102.5t-129.5 -34.5q-54 0 -86.5 31t-40.5 82q-35 -40 -82.5 -71.5t-79.5 -31.5q-156 0 -156 270q0 204 83.5 330.5t226.5 126.5q92 0 180 -51l-41 -483q-6 -68 31 -68q26 0 54 22.5t56.5 70.5t47 142t18.5 218
q0 237 -79 342.5t-212 105.5q-76 0 -144.5 -25.5t-130.5 -83.5t-106.5 -145.5t-71 -220t-26.5 -297.5q0 -291 93.5 -428t262.5 -137q115 0 246 43l20 -127q-74 -35 -134.5 -46t-149.5 -11q-235 0 -358.5 181t-123.5 505q0 189 32.5 343.5t90.5 261.5t138 180t173 106.5
t199 33.5q194 0 308 -146.5t114 -440.5zM664 897q-12 6 -37 6q-84 0 -127 -90t-43 -227q0 -54 6.5 -85.5t15 -40.5t21.5 -9q36 0 71 27.5t60 62.5z" />
    <glyph glyph-name="A" unicode="A" horiz-adv-x="995" 
d="M995 0h-172l-137 541h-371l-153 -541h-162l416 1448h200zM653 682l-114 475l-25 139h-8l-25 -139l-129 -475h301z" />
    <glyph glyph-name="B" unicode="B" horiz-adv-x="956" 
d="M879 422q0 -93 -21.5 -168.5t-66 -133t-119.5 -89t-176 -31.5h-346v1448h301q176 0 265 -99t89 -262q0 -97 -34.5 -188.5t-102.5 -126.5v-6q100 -31 155.5 -127t55.5 -217zM639 1057q0 131 -53 191.5t-166 60.5h-111v-494h133q109 0 153 60t44 182zM715 416
q0 150 -68.5 204t-222.5 54h-115v-527h160q246 0 246 269z" />
    <glyph glyph-name="C" unicode="C" horiz-adv-x="956" 
d="M942 47q-123 -67 -321 -67q-174 0 -300 95.5t-188.5 260t-62.5 379.5q0 336 148.5 540.5t399.5 204.5q107 0 179.5 -16.5t138.5 -54.5l-35 -144q-157 68 -285 68q-79 0 -146.5 -34.5t-121.5 -102.5t-84.5 -181.5t-30.5 -259.5q0 -151 32.5 -268t90 -188t131 -106.5
t160.5 -35.5q136 0 264 49z" />
    <glyph glyph-name="D" unicode="D" horiz-adv-x="1103" 
d="M1036 729q0 -367 -153 -548t-430 -181h-303v1448h294q130 0 238 -47t187 -136.5t123 -226.5t44 -309zM877 707q0 296 -116.5 446t-318.5 150h-133v-1158h160q193 0 300.5 143.5t107.5 418.5z" />
    <glyph glyph-name="E" unicode="E" horiz-adv-x="858" 
d="M799 0h-649v1448h616v-141h-455v-510h422v-140h-422v-512h488v-145z" />
    <glyph glyph-name="F" unicode="F" horiz-adv-x="825" 
d="M793 1307h-482v-547h451v-146h-451v-614h-161v1448h643v-141z" />
    <glyph glyph-name="G" unicode="G" horiz-adv-x="1040" 
d="M952 45q-124 -65 -331 -65q-174 0 -300 95.5t-188.5 260t-62.5 379.5q0 219 66 387.5t191.5 264t293.5 95.5q178 0 321 -76l-41 -141q-89 39 -147 54.5t-138 15.5q-165 0 -274 -147t-109 -433q0 -297 116.5 -450.5t297.5 -153.5q85 0 148 16v476h157v-578z" />
    <glyph glyph-name="H" unicode="H" horiz-adv-x="1144" 
d="M995 0h-161v653h-523v-653h-161v1448h161v-647h523v647h161v-1448z" />
    <glyph glyph-name="I" unicode="I" horiz-adv-x="460" 
d="M311 0h-161v1448h161v-1448z" />
    <glyph glyph-name="J" unicode="J" horiz-adv-x="456" 
d="M311 319q0 -87 -4 -152.5t-15.5 -136t-33.5 -126.5t-55.5 -110t-84.5 -100.5t-118 -86.5l-78 114q132 94 180 221t48 355v1151h161v-1129z" />
    <glyph glyph-name="K" unicode="K" horiz-adv-x="923" 
d="M950 0h-200l-353 610l-69 135v48l69 122l336 533h189l-441 -672zM311 0h-161v1448h161v-1448z" />
    <glyph glyph-name="L" unicode="L" horiz-adv-x="761" 
d="M756 0h-606v1448h161v-1298h445v-150z" />
    <glyph glyph-name="M" unicode="M" horiz-adv-x="1402" 
d="M1253 0h-161v940l14 238h-12l-299 -1178h-207l-283 1157h-10l16 -242v-915h-161v1448h229l313 -1290h6l334 1290h221v-1448z" />
    <glyph glyph-name="N" unicode="N" horiz-adv-x="1155" 
d="M1004 0h-189l-512 1153h-8l16 -231v-922h-161v1448h186l514 -1172h8l-14 242v930h160v-1448z" />
    <glyph glyph-name="O" unicode="O" horiz-adv-x="1208" 
d="M1139 723q0 -222 -64.5 -390.5t-189.5 -263t-295 -94.5q-166 0 -284.5 94.5t-178 262.5t-59.5 395q0 340 150 540.5t400 200.5q128 0 228.5 -57.5t164 -159t96 -235.5t32.5 -293zM973 725q0 270 -99 436t-274 166q-118 0 -202 -78.5t-124.5 -211.5t-40.5 -308
q0 -173 40 -308.5t124 -218.5t201 -83q124 0 210 80t125.5 214t39.5 312z" />
    <glyph glyph-name="P" unicode="P" horiz-adv-x="872" 
d="M858 989q0 -132 -48.5 -236t-151 -167.5t-246.5 -63.5h-35v148h45q117 0 192.5 78.5t75.5 230.5q0 156 -62.5 240t-172.5 84h-146v-1303h-159v1448h319q180 0 284.5 -121.5t104.5 -337.5z" />
    <glyph glyph-name="Q" unicode="Q" horiz-adv-x="1208" 
d="M1139 723q0 -222 -64.5 -390.5t-189.5 -263t-295 -94.5q-165 0 -284.5 97t-178.5 265.5t-59 389.5q0 340 150 540.5t400 200.5q128 0 228.5 -57.5t164 -159t96 -235.5t32.5 -293zM977 725q0 269 -101 435.5t-276 166.5q-118 0 -203.5 -78.5t-127.5 -212t-42 -307.5
q0 -172 41.5 -308t127 -219t202.5 -83q124 0 211 80t127.5 214t40.5 312zM1171 -328h-79q-59 0 -88 2q-104 9 -226 62q-69 35 -113 49t-104 14v138q79 0 133 -14t135 -48q73 -35 127.5 -45t135.5 -10h79v-148z" />
    <glyph glyph-name="R" unicode="R" horiz-adv-x="1036" 
d="M1030 109l-31 -132q-33 2 -68 13t-76.5 35t-82.5 70.5t-72 109.5l-182 373q-42 -9 -127 -9h-82v-569h-159v1448h352q164 0 260 -109.5t96 -324.5q0 -128 -48 -231t-144 -158l159 -308q38 -73 85.5 -123t119.5 -85zM690 1004q0 299 -219 299h-162v-592h127q254 0 254 293z
" />
    <glyph glyph-name="S" unicode="S" horiz-adv-x="819" 
d="M764 379q0 -98 -33 -175.5t-89.5 -125t-126.5 -72t-148 -24.5q-100 0 -172 25.5t-142 76.5l64 127q131 -82 248 -82q103 0 168 60.5t65 179.5q0 60 -27.5 112t-71.5 91.5t-97 78.5t-106 82t-97 92.5t-71.5 119.5t-27.5 153q0 164 100 261t246 97q140 0 265 -67l-49 -127
q-106 49 -209 49q-90 0 -140.5 -54.5t-50.5 -154.5q0 -57 27.5 -108.5t72 -91.5t98 -80t107 -84t98 -93t72 -117.5t27.5 -148.5z" />
    <glyph glyph-name="T" unicode="T" horiz-adv-x="839" 
d="M852 1300h-350v-1300h-162v1300h-352v148h864v-148z" />
    <glyph glyph-name="U" unicode="U" horiz-adv-x="1134" 
d="M999 553q0 -134 -26 -237.5t-67.5 -167t-99 -104t-115 -56t-120.5 -15.5q-68 0 -127.5 14t-117.5 51t-99 94.5t-66.5 151.5t-25.5 216v948h164v-950q0 -108 22.5 -184.5t62.5 -117t86 -58t101 -17.5q56 0 102.5 20.5t86.5 67t62 132t22 204.5v903h155v-895z" />
    <glyph glyph-name="V" unicode="V" horiz-adv-x="960" 
d="M981 1448l-422 -1448h-197l-382 1448h174l270 -1081l37 -203h6l47 213l303 1071h164z" />
    <glyph glyph-name="W" unicode="W" horiz-adv-x="1484" 
d="M1489 1448l-348 -1448h-207l-168 692l-29 162h-6l-37 -160l-196 -694h-207l-293 1448h166l209 -1086l28 -210h7l43 206l211 725l-93 365h166l262 -1090l37 -204h6l35 208l256 1086h158z" />
    <glyph glyph-name="X" unicode="X" horiz-adv-x="905" 
d="M899 0h-184l-209 506l-47 121h-4l-47 -115l-230 -512h-180l375 766l-314 682h185l166 -410l51 -129h4l53 129l184 410h172l-325 -680z" />
    <glyph glyph-name="Y" unicode="Y" horiz-adv-x="841" 
d="M858 1448l-366 -899v-549h-160v551l-348 897h180l190 -539l58 -188h8l57 186l207 541h174z" />
    <glyph glyph-name="Z" unicode="Z" horiz-adv-x="806" 
d="M780 0h-751v158l540 1136h-503v154h684v-145l-545 -1149h575v-154z" />
    <glyph glyph-name="bracketleft" unicode="[" horiz-adv-x="522" 
d="M446 -451h-296v1995h296v-143h-145v-1708h145v-144z" />
    <glyph glyph-name="backslash" unicode="\" horiz-adv-x="747" 
d="M547 -127l-488 1702h134l487 -1702h-133z" />
    <glyph glyph-name="bracketright" unicode="]" horiz-adv-x="522" 
d="M373 -451h-297v144h145v1708h-145v143h297v-1995z" />
    <glyph glyph-name="asciicircum" unicode="^" horiz-adv-x="772" 
d="M715 602h-164l-107 475l-47 223h-8l-53 -223l-121 -475h-160l250 846h184z" />
    <glyph glyph-name="underscore" unicode="_" horiz-adv-x="774" 
d="M774 -338h-774v141h774v-141z" />
    <glyph glyph-name="grave" unicode="`" horiz-adv-x="833" 
d="M612 1352l-73 -97l-326 261l92 114z" />
    <glyph glyph-name="a" unicode="a" horiz-adv-x="841" 
d="M799 115l-11 -127q-58 0 -104 16t-70.5 40t-36.5 42t-16 33q-101 -135 -264 -135q-66 0 -115 27.5t-76.5 75t-41 103t-13.5 119.5q0 79 29 141.5t79.5 101t114 59.5t136.5 24l133 6v166q0 109 -38 148.5t-147 39.5q-73 0 -217 -57l-24 133q52 34 130.5 54t143.5 20
q305 0 305 -307v-619q0 -50 27 -73.5t76 -30.5zM543 233v287q-132 -5 -165 -10q-139 -22 -168 -121q-9 -29 -9 -67q0 -199 129 -199q103 0 213 110z" />
    <glyph glyph-name="b" unicode="b" horiz-adv-x="886" 
d="M821 596q0 -135 -21.5 -241t-58.5 -175t-89 -113.5t-109 -63.5t-123 -19q-94 0 -159.5 12t-137.5 43v1505h156v-1399q43 -14 143 -14q112 0 177 121.5t65 310.5q0 93 -9 164.5t-30.5 135t-64 98t-103.5 34.5q-47 0 -103 -20l-12 129q77 31 133 31q346 0 346 -539z" />
    <glyph glyph-name="c" unicode="c" horiz-adv-x="737" 
d="M696 25q-103 -43 -204 -43q-222 0 -322 138t-100 439q0 268 103 426t286 158q139 0 241 -72l-41 -135q-55 31 -100 47t-102 16q-103 0 -167.5 -116.5t-64.5 -317.5q0 -226 62.5 -331t216.5 -105q21 0 46.5 3.5t42.5 7.5t45.5 10.5t41.5 9.5z" />
    <glyph glyph-name="d" unicode="d" horiz-adv-x="878" 
d="M758 0h-156v106q-27 -43 -87 -82.5t-122 -39.5q-47 0 -90 15t-86.5 55t-75 102t-51.5 164.5t-20 234.5q0 280 106 434t270 154q29 0 55 -3t43 -6.5t30 -7.5t20 -7t8 -3v428h156v-1544zM602 238v735q-6 3 -21 8.5t-49 12.5t-65 7q-83 0 -139 -61t-80.5 -159t-24.5 -228
q0 -210 57 -316t148 -106q73 0 174 107z" />
    <glyph glyph-name="e" unicode="e" horiz-adv-x="804" 
d="M750 524h-527q0 -115 19 -193.5t57 -121.5t86 -60.5t115 -17.5q86 0 209 43l28 -137q-37 -22 -110 -38.5t-162 -16.5q-96 0 -166.5 28.5t-123 92t-79 172.5t-26.5 264q0 160 28.5 279.5t80 189.5t117 103.5t146.5 33.5q308 0 308 -557v-64zM588 655q0 164 -41 260.5
t-123 96.5q-85 0 -136 -93.5t-63 -263.5h363z" />
    <glyph glyph-name="f" unicode="f" horiz-adv-x="507" 
d="M639 1548l-23 -141q-97 27 -165 27q-83 0 -124.5 -46t-41.5 -163v-107h170v-135h-170v-1434h-158v1434h-115v135h115v88q0 379 317 379q49 0 107.5 -12t87.5 -25z" />
    <glyph glyph-name="g" unicode="g" horiz-adv-x="880" 
d="M760 -61q0 -200 -94 -303t-254 -103q-158 0 -281 45l27 152q48 -16 117.5 -30.5t111.5 -14.5q51 0 86 9.5t66.5 36.5t47 82.5t15.5 139.5v125q-3 -4 -9 -10t-25 -22.5t-39.5 -29t-50.5 -22.5t-60 -10q-34 0 -64.5 5.5t-66.5 21t-66 41t-59 69.5t-48.5 101.5t-31.5 141.5
t-12 187q0 280 107.5 436t279.5 156q132 0 303 -41v-1163zM604 225v758q-86 14 -139 14q-65 0 -112.5 -35t-75.5 -98t-41 -142.5t-13 -176.5q0 -219 58.5 -318.5t169.5 -99.5q24 0 49.5 12.5t37.5 22t38.5 36z" />
    <glyph glyph-name="h" unicode="h" horiz-adv-x="915" 
d="M801 0h-156v707q0 61 -2.5 100t-10.5 77t-23.5 59t-42 33.5t-64.5 12.5q-78 0 -223 -123v-866h-156v1544h156v-549q5 8 26 29.5t55.5 49.5t83 48.5t95.5 20.5q52 0 93.5 -15t68.5 -37.5t46.5 -59t29.5 -70t16 -81t7 -80t1 -79.5v-721z" />
    <glyph glyph-name="i" unicode="i" horiz-adv-x="399" 
d="M279 0h-156v1118h156v-1118zM324 1464l-123 -123l-119 123l119 121z" />
    <glyph glyph-name="j" unicode="j" horiz-adv-x="399" 
d="M279 -43q0 -228 -75 -326t-214 -98q-50 0 -127 31l28 139q50 -20 93 -20q75 0 107 66t32 196v1173h156v-1161zM324 1464l-123 -123l-119 123l119 121z" />
    <glyph glyph-name="k" unicode="k" horiz-adv-x="815" 
d="M815 106l-45 -124q-77 7 -143.5 58.5t-132.5 174.5l-166 295l-41 80l47 100l276 428h178l-344 -524l162 -277q91 -153 209 -211zM279 0h-156v1544h156v-1544z" />
    <glyph glyph-name="l" unicode="l" horiz-adv-x="401" 
d="M279 0h-156v1544h156v-1544z" />
    <glyph glyph-name="m" unicode="m" horiz-adv-x="1400" 
d="M1286 0h-153v709q0 53 -1 84.5t-5.5 68t-13.5 56.5t-23.5 38t-37.5 25.5t-55 7.5q-74 0 -223 -121q6 -53 6 -149v-719h-155v709q0 46 -0.5 73.5t-3.5 61t-8.5 52.5t-15 39.5t-23.5 30.5t-34.5 16.5t-47.5 6.5q-20 0 -42.5 -7.5t-40 -16.5t-41 -26t-34.5 -26t-32 -27.5
t-23 -19.5v-866h-156v1118h156v-121q5 8 26 28.5t55 48.5t80.5 48.5t89.5 20.5q170 0 224 -158q40 47 123 102.5t159 55.5q41 0 74.5 -9.5t58 -23t43.5 -38.5t31 -46.5t21 -57t13 -59.5t6 -65t2.5 -63t0.5 -62v-719z" />
    <glyph glyph-name="n" unicode="n" horiz-adv-x="915" 
d="M801 0h-156v707q0 61 -2.5 100t-10.5 77t-23.5 59t-42 33.5t-64.5 12.5q-78 0 -223 -123v-866h-156v1118h156v-123q5 8 26 29.5t55.5 49.5t83 48.5t95.5 20.5q52 0 93.5 -15t68.5 -37.5t46.5 -59t29.5 -70t16 -81t7 -80t1 -79.5v-721z" />
    <glyph glyph-name="o" unicode="o" horiz-adv-x="888" 
d="M823 559q0 -279 -104.5 -428t-278.5 -149q-179 0 -275.5 148t-96.5 417q0 280 104 438t279 158q187 0 279.5 -152.5t92.5 -431.5zM668 559q0 66 -6 125.5t-22 119t-40.5 103t-64.5 70.5t-91 27q-59 0 -104 -39.5t-69.5 -106.5t-36 -142.5t-11.5 -158.5q0 -89 12.5 -164.5
t38 -137t70.5 -97t105 -35.5q61 0 105.5 36.5t68.5 100.5t34.5 137.5t10.5 161.5z" />
    <glyph glyph-name="p" unicode="p" horiz-adv-x="886" 
d="M821 586q0 -135 -21.5 -240t-58.5 -172.5t-89 -111t-109 -61t-123 -17.5q-19 0 -40 1t-38 3t-31 4t-22.5 3t-9.5 1v-447h-156v1569h156v-90q4 4 10.5 11.5t28.5 26.5t46 33t60 26t72 12q151 0 238 -148t87 -403zM664 547q0 440 -211 440q-72 0 -174 -88v-758
q63 -14 143 -14q113 0 177.5 116.5t64.5 303.5z" />
    <glyph glyph-name="q" unicode="q" horiz-adv-x="878" 
d="M758 -451h-158v488q-80 -53 -174 -53q-56 0 -103 12.5t-96 50t-82.5 99t-55 167t-21.5 246.5q0 272 111 428t284 156q144 0 295 -58v-1536zM600 182v797q-65 18 -137 18q-63 0 -111 -36.5t-76.5 -99.5t-42.5 -140t-14 -166q0 -219 58 -321.5t157 -102.5t166 51z" />
    <glyph glyph-name="r" unicode="r" horiz-adv-x="579" 
d="M596 1118l-21 -147q-43 18 -110 18q-57 0 -107 -47t-79 -113v-829h-156v1118h156v-131h6q80 152 196 152q68 0 115 -21z" />
    <glyph glyph-name="s" unicode="s" horiz-adv-x="690" 
d="M639 309q0 -82 -29 -146t-77.5 -102t-105 -57.5t-116.5 -19.5q-141 0 -252 49l23 139q129 -47 219 -47q78 0 131 47t53 119q0 45 -22 83.5t-58 67.5t-79 57.5t-85.5 61.5t-78.5 70.5t-58 92t-22 120.5q0 144 82.5 219.5t218.5 75.5q97 0 209 -47l-25 -134
q-105 43 -198 43q-63 0 -99.5 -39t-36.5 -102q0 -45 22.5 -83.5t58 -68t79 -59t87 -62.5t79 -70t58 -90.5t22.5 -117.5z" />
    <glyph glyph-name="t" unicode="t" horiz-adv-x="618" 
d="M606 27q-88 -39 -166 -39q-62 0 -101.5 5.5t-78 25t-59.5 55t-34 96.5t-13 149v662h-119v137h119v230h151v-230h248v-137h-248v-670q0 -105 29.5 -143.5t105.5 -38.5q80 0 144 31z" />
    <glyph glyph-name="u" unicode="u" horiz-adv-x="915" 
d="M801 0h-158v129q-3 -6 -16.5 -21.5t-39 -38t-55.5 -43t-69.5 -35t-77.5 -14.5q-52 0 -93.5 14.5t-68.5 37t-46.5 59t-29.5 69.5t-16 80.5t-7 80t-1 79.5v721h153v-710q0 -152 28 -217.5t118 -65.5q52 0 116.5 43.5t104.5 85.5v864h158v-1118z" />
    <glyph glyph-name="v" unicode="v" horiz-adv-x="772" 
d="M766 1118l-297 -1118h-195l-268 1118h168l168 -766l29 -194h10l33 200l190 760h162z" />
    <glyph glyph-name="w" unicode="w" horiz-adv-x="1288" 
d="M1284 1118l-283 -1118h-190l-141 748l-23 174h-10l-25 -177l-161 -745h-187l-256 1118h162l164 -784l20 -172h13l20 172l168 784h182l150 -776l20 -178h13l22 170l184 784h158z" />
    <glyph glyph-name="x" unicode="x" horiz-adv-x="749" 
d="M750 0h-183l-188 449h-12l-187 -449h-182l293 571l-275 547h181l172 -424h12l176 424h172l-268 -543z" />
    <glyph glyph-name="y" unicode="y" horiz-adv-x="763" 
d="M762 1118l-400 -1569h-155l108 451h-43l-266 1118h166l174 -794l23 -179h12l25 177l194 796h162z" />
    <glyph glyph-name="z" unicode="z" horiz-adv-x="735" 
d="M694 0h-649v160l469 811h-432v147h606v-151l-471 -820h477v-147z" />
    <glyph glyph-name="braceleft" unicode="{" horiz-adv-x="518" 
d="M496 -451h-54q-50 0 -89 6.5t-78 26t-65 51t-42 85t-16 124.5q0 39 2 62l32 399q5 67 -31.5 123.5t-93.5 56.5v154q57 0 94 54.5t31 123.5l-32 416q-26 352 288 352h54v-145q-121 0 -161.5 -47t-31.5 -172l27 -361q9 -111 -22 -187.5t-93 -109.5v-4q132 -85 115 -289
l-27 -364q-9 -119 34.5 -165t158.5 -46v-144z" />
    <glyph glyph-name="bar" unicode="|" horiz-adv-x="395" 
d="M268 -451h-139v1995h139v-1995z" />
    <glyph glyph-name="braceright" unicode="}" horiz-adv-x="518" 
d="M457 496q-57 0 -94 -55.5t-31 -123.5l33 -415q7 -99 -12.5 -170t-62 -110t-95 -56t-119.5 -17h-53v144q121 0 161 47t31 174l-27 360q-9 111 22 186t93 107v6q-133 82 -115 291l27 365q9 119 -34 165t-158 46v143h53q50 0 89.5 -6.5t78.5 -26t65 -51t42 -85t16 -124.5
q0 -38 -2 -61l-33 -400q-5 -67 31.5 -123.5t93.5 -56.5v-153z" />
    <glyph glyph-name="asciitilde" unicode="~" horiz-adv-x="790" 
d="M768 711q-56 -59 -106 -88t-113 -29q-45 0 -90.5 17.5t-77 38t-72 38t-76.5 17.5q-22 0 -43.5 -7.5t-32.5 -14t-36.5 -24t-32.5 -22.5l-65 117q106 106 225 106q47 0 89.5 -17.5t70 -38.5t66 -38.5t77.5 -17.5q23 0 48 11t41 22.5t52 39.5z" />
    <glyph glyph-name="exclamdown" unicode="&#xa1;" horiz-adv-x="423" 
d="M289 930h-172v186h172v-186zM281 -332h-156v799l10 297h135l11 -297v-799z" />
    <glyph glyph-name="cent" unicode="&#xa2;" horiz-adv-x="733" 
d="M684 98q-96 -33 -168 -39l2 -151h-137l2 158q-169 33 -240 153.5t-71 349.5q0 187 83 324.5t224 155.5l-6 165h143l-4 -159q91 -6 182 -76l-49 -119q-103 64 -194 64q-101 0 -162.5 -87t-61.5 -274q0 -195 59 -279.5t206 -84.5q72 0 174 30z" />
    <glyph glyph-name="sterling" unicode="&#xa3;" horiz-adv-x="700" 
d="M674 0h-596v135q49 27 86.5 112.5t34.5 172.5h-146v135h146q1 29 -1.5 94t-2.5 80q0 115 29 194.5t86.5 124t127.5 64.5t166 23q0 -10 3 -62.5t3 -77.5q-45 -5 -72 -9.5t-61.5 -15.5t-54.5 -28.5t-39 -45t-27 -69.5t-8 -98q0 -26 1 -85.5t1 -88.5h262v-135h-266
q1 -52 -10 -100.5t-26.5 -80t-31.5 -56t-27 -35.5l-11 -11h434v-137z" />
    <glyph glyph-name="currency" unicode="&#xa4;" horiz-adv-x="1024" 
d="M907 1075l-135 -135q68 -74 68 -219q0 -65 -19 -124.5t-55 -96.5l137 -138l-76 -79l-141 141q-64 -53 -172 -53q-110 0 -172 53l-145 -139l-80 82l141 135q-33 39 -52.5 98t-19.5 121q0 135 72 217l-141 139l80 78l143 -143q60 63 182 63q109 0 166 -57l137 139zM707 721
q0 102 -47.5 167.5t-147.5 65.5q-93 0 -140.5 -66t-47.5 -167q0 -96 53 -162.5t139 -66.5q91 0 141 65t50 164z" />
    <glyph glyph-name="yen" unicode="&#xa5;" horiz-adv-x="829" 
d="M811 1118l-190 -463h194v-139h-254l-74 -186v-23h328v-137h-330v-170h-155v170h-316v137h316v23l-74 186h-242v139h187l-183 463h175l188 -512l29 -129h4l32 135l197 506h168z" />
    <glyph glyph-name="brokenbar" unicode="&#xa6;" horiz-adv-x="395" 
d="M268 801h-139v741h139v-741zM268 -451h-139v742h139v-742z" />
    <glyph glyph-name="section" unicode="&#xa7;" horiz-adv-x="751" 
d="M811 1163l-61 -121q-79 56 -162 56q-38 0 -63 -37.5t-25 -97.5q0 -51 16 -150l43 -270q21 -126 21 -228q0 -215 -111 -347t-293 -132q-106 0 -196 64l47 127q74 -50 133 -50q42 0 61 52.5t19 124.5q0 41 -23 198l-37 236q-14 77 -14 160q0 240 113 365.5t299 125.5
q67 0 131.5 -22t101.5 -54zM428 424l-51 350q-8 63 -8 125q0 42 4 78t8 51l4 16l-6 7q-21 -30 -33.5 -54.5t-25.5 -79t-13 -122.5q0 -75 10 -144l52 -342q10 -82 10 -123q0 -16 -1 -30.5t-2 -25.5t-4 -23.5t-4.5 -19t-5.5 -18t-5 -14.5t-5.5 -15t-5.5 -13l8 -7q20 27 29 41
t25 47.5t23 77t7 99.5q0 73 -10 139z" />
    <glyph glyph-name="dieresis" unicode="&#xa8;" horiz-adv-x="667" 
d="M602 1464l-110 -112l-109 112l109 109zM289 1464l-111 -112l-108 112l108 109z" />
    <glyph glyph-name="copyright" unicode="&#xa9;" horiz-adv-x="1259" 
d="M1184 561q0 -220 -66 -387.5t-195 -262.5t-305 -95q-171 0 -293.5 97.5t-182.5 264.5t-60 387q0 338 154.5 539t410.5 201q132 0 235.5 -57.5t168.5 -159t99 -235.5t34 -292zM1061 563q0 282 -116 456.5t-314 174.5q-201 0 -314.5 -170.5t-113.5 -456.5
q0 -181 46.5 -323.5t143.5 -230t232 -87.5q109 0 193 48t136.5 134t79.5 201t27 254zM856 932l-47 -107q-76 49 -150 49q-86 0 -142 -74.5t-56 -221.5q0 -150 60.5 -230t156.5 -80q56 0 151 39l31 -112q-58 -32 -101.5 -44t-96.5 -12q-159 0 -245.5 121t-86.5 307
q0 197 88 315.5t239 118.5q67 0 110.5 -17t88.5 -52z" />
    <glyph glyph-name="ordfeminine" unicode="&#xaa;" horiz-adv-x="620" 
d="M530 899l-6 -111q-49 -4 -89.5 11t-51.5 59q-74 -74 -143 -74q-73 0 -112.5 52.5t-39.5 144.5q0 47 14 82.5t34.5 55.5t49.5 32t54.5 16t54.5 4l76 3v90q0 58 -18 74t-72 16q-22 0 -46 -4.5t-40 -10t-32 -11.5t-18 -7l-20 94q83 49 174 49q186 0 186 -190v-336
q0 -19 5 -27.5t12.5 -10t27.5 -1.5zM545 614h-473v115h473v-115zM371 958v123q-6 0 -43.5 -2.5t-40.5 -3.5q-86 -8 -86 -88q0 -88 63 -88q33 0 107 59z" />
    <glyph glyph-name="guillemotleft" unicode="&#xab;" horiz-adv-x="722" 
d="M672 961l-168 -404l168 -397l-121 -51l-205 448l207 453zM375 961l-168 -404l168 -397l-121 -51l-205 448l205 453z" />
    <glyph glyph-name="logicalnot" unicode="&#xac;" horiz-adv-x="700" 
d="M649 328h-145v321h-455v142h600v-463z" />
    <glyph glyph-name="registered" unicode="&#xae;" horiz-adv-x="1206" 
d="M1059 1087q0 -212 -126.5 -334t-328.5 -122q-69 0 -133.5 15.5t-124 51t-103 87t-70 129.5t-26.5 173q0 216 128 338.5t331 122.5q92 0 172 -28t143.5 -82.5t100.5 -144.5t37 -206zM969 1087q0 93 -30.5 166.5t-81.5 118.5t-115.5 68.5t-135.5 23.5q-77 0 -141.5 -21.5
t-115 -65t-79 -115.5t-28.5 -166q0 -87 25.5 -156t64 -109.5t89.5 -67.5t98 -36.5t93 -9.5q162 0 259.5 97.5t97.5 272.5zM852 918l-14 -66q-102 0 -154 63q-50 53 -98 134q-8 -2 -37 -2h-29v-185h-94v496h178q77 0 121.5 -39t44.5 -115q0 -46 -23 -82.5t-67 -54.5
q51 -72 76 -94q8 -9 17 -16.5t20.5 -13.5t17.5 -9t21.5 -8.5t19.5 -7.5zM680 1200q0 44 -21 64t-73 20h-66v-166h55q105 0 105 82z" />
    <glyph glyph-name="macron" unicode="&#xaf;" horiz-adv-x="796" 
d="M635 1368h-475v133h475v-133z" />
    <glyph glyph-name="macron" unicode="&#x2c9;" horiz-adv-x="796" 
d="M635 1368h-475v133h475v-133z" />
    <glyph glyph-name="degree" unicode="&#xb0;" horiz-adv-x="667" 
d="M594 1202q0 -125 -72.5 -197.5t-193.5 -72.5q-254 0 -254 270q0 118 72 191t188 73q122 0 191 -69.5t69 -194.5zM469 1202q0 73 -35.5 115.5t-101.5 42.5q-65 0 -100 -42t-35 -116q0 -162 135 -162q137 0 137 162z" />
    <glyph glyph-name="plusminus" unicode="&#xb1;" horiz-adv-x="739" 
d="M690 520h-248v-239h-145v239h-248v137h246v254h147v-254h248v-137zM690 0h-641v139h641v-139z" />
    <glyph glyph-name="twosuperior" unicode="&#xb2;" horiz-adv-x="481" 
d="M27 850v102q10 10 30 28q132 125 178 185q82 107 82 209q0 59 -24 92t-64 33q-39 0 -76.5 -19t-62.5 -50l-45 79q34 46 87 74.5t108 28.5q82 0 137 -60.5t55 -165.5q0 -57 -18 -111.5t-42 -93.5t-67 -84.5t-72 -71t-77 -64.5h282v-111h-411z" />
    <glyph glyph-name="threesuperior" unicode="&#xb3;" horiz-adv-x="473" 
d="M211 840q-85 0 -168 32l20 101q88 -27 138 -27q121 0 121 117q0 74 -37 102.5t-123 36.5v80q69 8 101 38.5t32 92.5q0 45 -22.5 70.5t-63.5 25.5q-52 0 -111 -34l-24 84q74 53 151 53q79 0 131 -49t52 -133q0 -56 -26 -104.5t-71 -72.5q60 -17 93.5 -68.5t33.5 -119.5
q0 -60 -19 -105t-52.5 -70.5t-72 -37.5t-83.5 -12z" />
    <glyph glyph-name="acute" unicode="&#xb4;" horiz-adv-x="800" 
d="M610 1522l-319 -260l-78 92l303 282z" />
    <glyph glyph-name="mu" unicode="&#xb5;" horiz-adv-x="962" 
d="M139 -451v1569h158v-712q0 -61 2.5 -99t10 -76.5t23 -59t41.5 -33.5t64 -13q52 0 114.5 42.5t106.5 86.5v864h156v-907q0 -92 107 -107l-11 -116q-35 0 -66 5.5t-52.5 14t-41 21.5t-31 24t-22 25.5t-15 23.5t-9.5 20.5t-6 12.5q-41 -67 -108 -113.5t-136 -46.5
q-75 0 -127 45v-471h-158z" />
    <glyph glyph-name="mu" unicode="&#x3bc;" horiz-adv-x="962" 
d="M139 -451v1569h158v-712q0 -61 2.5 -99t10 -76.5t23 -59t41.5 -33.5t64 -13q52 0 114.5 42.5t106.5 86.5v864h156v-907q0 -92 107 -107l-11 -116q-35 0 -66 5.5t-52.5 14t-41 21.5t-31 24t-22 25.5t-15 23.5t-9.5 20.5t-6 12.5q-41 -67 -108 -113.5t-136 -46.5
q-75 0 -127 45v-471h-158z" />
    <glyph glyph-name="paragraph" unicode="&#xb6;" horiz-adv-x="888" 
d="M498 553h-88q-186 0 -284.5 107.5t-98.5 343.5q0 444 358 444h113v-895zM766 -35q0 -222 -73.5 -319t-217.5 -97q-50 0 -129 27l23 139q50 -16 106 -16q73 0 103 65.5t30 188.5v1495h158v-1483z" />
    <glyph glyph-name="periodcentered" unicode="&#xb7;" horiz-adv-x="415" 
d="M319 727l-110 -111l-111 111l111 109z" />
    <glyph glyph-name="periodcentered" unicode="&#x2219;" horiz-adv-x="415" 
d="M319 727l-110 -111l-111 111l111 109z" />
    <glyph glyph-name="cedilla" unicode="&#xb8;" horiz-adv-x="673" 
d="M469 -260q0 -74 -60 -138.5t-159 -113.5l-64 117q64 36 100 74t36 71q0 52 -48 146h148q47 -83 47 -156z" />
    <glyph glyph-name="onesuperior" unicode="&#xb9;" horiz-adv-x="395" 
d="M170 842v643h-129v102l246 10v-755h-117z" />
    <glyph glyph-name="ordmasculine" unicode="&#xba;" horiz-adv-x="620" 
d="M543 1124q0 -161 -66.5 -251.5t-173.5 -90.5q-111 0 -168 90.5t-57 247.5q0 161 61.5 254.5t169.5 93.5q117 0 175.5 -90.5t58.5 -253.5zM545 614h-469v115h469v-115zM418 1124q0 64 -9.5 114t-35 85t-64.5 35q-57 0 -82.5 -66t-25.5 -170q0 -227 108 -227q109 0 109 229
z" />
    <glyph glyph-name="guillemotright" unicode="&#xbb;" horiz-adv-x="722" 
d="M676 557l-203 -448l-125 45l168 403l-166 395l119 54zM379 557l-205 -448q-1 1 -58.5 21.5t-64.5 23.5l168 403l-166 395l119 54z" />
    <glyph glyph-name="onequarter" unicode="&#xbc;" horiz-adv-x="1257" 
d="M1067 1255l-905 -1138l-80 63l909 1143zM197 842v643h-129v102l245 10v-755h-116zM985 0v180h-254v111l207 459h160v-469h96v-101h-96v-180h-113zM819 281h166v360z" />
    <glyph glyph-name="onehalf" unicode="&#xbd;" horiz-adv-x="1247" 
d="M772 0v100q135 130 168 167q111 122 122 229q1 13 1 26q0 60 -23.5 92.5t-64.5 32.5q-40 0 -77 -18.5t-62 -50.5l-45 81q34 46 86.5 73.5t107.5 27.5q82 0 137.5 -60t55.5 -165q0 -56 -18.5 -110.5t-42 -93.5t-67.5 -85.5t-71.5 -71t-77.5 -65.5h283v-109h-412z
M1067 1255l-905 -1138l-80 63l909 1143zM197 842v643h-129v102l245 10v-755h-116z" />
    <glyph glyph-name="threequarters" unicode="&#xbe;" horiz-adv-x="1284" 
d="M229 840q-85 0 -168 32l21 101q88 -27 137 -27q121 0 121 117q0 74 -37 102.5t-123 36.5v80q69 8 101 38.5t32 92.5q0 45 -22.5 70.5t-63.5 25.5q-51 0 -110 -34l-25 84q74 53 152 53q79 0 130.5 -49t51.5 -133q0 -57 -25.5 -105t-70.5 -72q60 -17 93.5 -68.5
t33.5 -119.5q0 -115 -66 -170t-162 -55zM1096 1255l-906 -1138l-79 63l909 1143zM1014 0v180h-254v111l207 459h159v-469h97v-101h-97v-180h-112zM848 281h166v360z" />
    <glyph glyph-name="questiondown" unicode="&#xbf;" horiz-adv-x="581" 
d="M457 930h-172v186h172v-186zM504 -190l-25 -148q-81 9 -148.5 36t-124 75t-88.5 126.5t-32 180.5q0 70 24 135t58 115t67.5 96.5t57.5 98.5t24 102q0 38 -12 125l137 32q23 -108 23 -159q0 -73 -23 -139.5t-55.5 -115.5t-64.5 -93t-55 -91t-23 -90q0 -119 73 -193.5
t187 -92.5z" />
    <glyph glyph-name="Agrave" unicode="&#xc0;" horiz-adv-x="995" 
d="M995 0h-172l-137 541h-371l-153 -541h-162l416 1448h200zM653 682l-114 475l-25 139h-8l-25 -139l-129 -475h301zM631 1524l-359 131l52 141l350 -172z" />
    <glyph glyph-name="Aacute" unicode="&#xc1;" horiz-adv-x="995" 
d="M995 0h-172l-137 541h-371l-153 -541h-162l416 1448h200zM653 682l-114 475l-25 139h-8l-25 -139l-129 -475h301zM752 1655l-359 -131l-43 100l348 172z" />
    <glyph glyph-name="Acircumflex" unicode="&#xc2;" horiz-adv-x="995" 
d="M995 0h-172l-137 541h-371l-153 -541h-162l416 1448h200zM653 682l-114 475l-25 139h-8l-25 -139l-129 -475h301zM219 1597l297 183l293 -183l-55 -94l-238 131l-237 -129z" />
    <glyph glyph-name="Atilde" unicode="&#xc3;" horiz-adv-x="995" 
d="M995 0h-172l-137 541h-371l-153 -541h-162l416 1448h200zM653 682l-114 475l-25 139h-8l-25 -139l-129 -475h301zM801 1653q-65 -92 -164 -92q-43 0 -118 22.5t-113 22.5q-34 0 -57 -9t-56 -32l-62 80q43 43 87 64.5t104 21.5q46 0 113 -22.5t94 -22.5q16 0 30 3t26 9.5
t18.5 11t17.5 14t14 11.5z" />
    <glyph glyph-name="Adieresis" unicode="&#xc4;" horiz-adv-x="995" 
d="M995 0h-172l-137 541h-371l-153 -541h-162l416 1448h200zM653 682l-114 475l-25 139h-8l-25 -139l-129 -475h301zM776 1636l-110 -112l-111 112l111 109zM463 1636l-111 -112l-108 112l108 109z" />
    <glyph glyph-name="Aring" unicode="&#xc5;" horiz-adv-x="995" 
d="M995 0h-172l-137 541h-371l-153 -541h-162l399 1393q-123 50 -123 192q0 105 69 165t167 60q42 0 82.5 -12t77 -36.5t58.5 -69t22 -103.5q0 -70 -32 -120t-87 -74zM643 1585q0 56 -38.5 92.5t-92.5 36.5q-57 0 -92 -33t-35 -90q0 -58 36 -94.5t93 -36.5q59 0 94 34t35 91
zM653 682l-114 475l-25 139h-8l-25 -139l-129 -475h301z" />
    <glyph glyph-name="AE" unicode="&#xc6;" horiz-adv-x="1382" 
d="M1325 0h-649v541h-334l-180 -541h-162l485 1448h807v-141h-454v-510h422v-140h-422v-512h487v-145zM676 682v629h-88l-203 -629h291z" />
    <glyph glyph-name="Ccedilla" unicode="&#xc7;" horiz-adv-x="956" 
d="M942 47q-123 -67 -321 -67q-174 0 -300 95.5t-188.5 260t-62.5 379.5q0 336 148.5 540.5t399.5 204.5q107 0 179.5 -16.5t138.5 -54.5l-35 -144q-157 68 -285 68q-79 0 -146.5 -34.5t-121.5 -102.5t-84.5 -181.5t-30.5 -259.5q0 -151 32.5 -268t90 -188t131 -106.5
t160.5 -35.5q136 0 264 49zM690 -260q0 -74 -60 -138.5t-159 -113.5l-63 117q135 76 135 145q0 54 -47 146h147q47 -83 47 -156z" />
    <glyph glyph-name="Egrave" unicode="&#xc8;" horiz-adv-x="858" 
d="M799 0h-649v1448h616v-141h-455v-510h422v-140h-422v-512h488v-145zM614 1524l-358 131l51 141l350 -172z" />
    <glyph glyph-name="Eacute" unicode="&#xc9;" horiz-adv-x="858" 
d="M682 1655l-358 -131l-43 100l348 172zM799 0h-649v1448h616v-141h-455v-510h422v-140h-422v-512h488v-145z" />
    <glyph glyph-name="Ecircumflex" unicode="&#xca;" horiz-adv-x="858" 
d="M162 1597l297 183l293 -183l-56 -94l-237 131l-238 -129zM799 0h-649v1448h616v-141h-455v-510h422v-140h-422v-512h488v-145z" />
    <glyph glyph-name="Edieresis" unicode="&#xcb;" horiz-adv-x="858" 
d="M727 1636l-111 -112l-110 112l110 109zM414 1636l-111 -112l-108 112l108 109zM799 0h-649v1448h616v-141h-455v-510h422v-140h-422v-512h488v-145z" />
    <glyph glyph-name="Igrave" unicode="&#xcc;" horiz-adv-x="460" 
d="M311 0h-161v1448h161v-1448zM322 1524l-359 131l51 141l351 -172z" />
    <glyph glyph-name="Iacute" unicode="&#xcd;" horiz-adv-x="460" 
d="M311 0h-161v1448h161v-1448zM485 1655l-358 -131l-43 100l348 172z" />
    <glyph glyph-name="Icircumflex" unicode="&#xce;" horiz-adv-x="460" 
d="M311 0h-161v1448h161v-1448zM-68 1597l297 183l293 -183l-55 -94l-238 131l-237 -129z" />
    <glyph glyph-name="Idieresis" unicode="&#xcf;" horiz-adv-x="460" 
d="M311 0h-161v1448h161v-1448zM498 1636l-111 -112l-111 112l111 109zM184 1636l-110 -112l-109 112l109 109z" />
    <glyph glyph-name="Eth" unicode="&#xd0;" horiz-adv-x="1103" 
d="M1036 729q0 -367 -153 -548t-430 -181h-303v657h-111v125h111v666h294q130 0 238 -47t187 -136.5t123 -226.5t44 -309zM877 707q0 296 -116.5 446t-318.5 150h-133v-521h180v-125h-180v-512h160q193 0 300.5 143.5t107.5 418.5z" />
    <glyph glyph-name="Ntilde" unicode="&#xd1;" horiz-adv-x="1155" 
d="M1004 0h-189l-512 1153h-8l16 -231v-922h-161v1448h186l514 -1172h8l-14 242v930h160v-1448zM864 1653q-65 -92 -164 -92q-43 0 -118 22.5t-113 22.5q-34 0 -57 -9t-56 -32l-61 80q43 43 87 64.5t103 21.5q46 0 113 -22.5t94 -22.5q16 0 30 3t26.5 9.5t18.5 11t18 14
t14 11.5z" />
    <glyph glyph-name="Ograve" unicode="&#xd2;" horiz-adv-x="1208" 
d="M1139 723q0 -222 -64.5 -390.5t-189.5 -263t-295 -94.5q-166 0 -284.5 94.5t-178 262.5t-59.5 395q0 340 150 540.5t400 200.5q128 0 228.5 -57.5t164 -159t96 -235.5t32.5 -293zM973 725q0 270 -99 436t-274 166q-118 0 -202 -78.5t-124.5 -211.5t-40.5 -308
q0 -173 40 -308.5t124 -218.5t201 -83q124 0 210 80t125.5 214t39.5 312zM739 1524l-358 131l51 141l350 -172z" />
    <glyph glyph-name="Oacute" unicode="&#xd3;" horiz-adv-x="1208" 
d="M860 1655l-358 -131l-43 100l348 172zM1139 723q0 -222 -64.5 -390.5t-189.5 -263t-295 -94.5q-166 0 -284.5 94.5t-178 262.5t-59.5 395q0 340 150 540.5t400 200.5q128 0 228.5 -57.5t164 -159t96 -235.5t32.5 -293zM973 725q0 270 -99 436t-274 166q-118 0 -202 -78.5
t-124.5 -211.5t-40.5 -308q0 -173 40 -308.5t124 -218.5t201 -83q124 0 210 80t125.5 214t39.5 312z" />
    <glyph glyph-name="Ocircumflex" unicode="&#xd4;" horiz-adv-x="1208" 
d="M303 1597l297 183l293 -183l-55 -94l-238 131l-238 -129zM1139 723q0 -222 -64.5 -390.5t-189.5 -263t-295 -94.5q-166 0 -284.5 94.5t-178 262.5t-59.5 395q0 340 150 540.5t400 200.5q128 0 228.5 -57.5t164 -159t96 -235.5t32.5 -293zM973 725q0 270 -99 436t-274 166
q-118 0 -202 -78.5t-124.5 -211.5t-40.5 -308q0 -173 40 -308.5t124 -218.5t201 -83q124 0 210 80t125.5 214t39.5 312z" />
    <glyph glyph-name="Otilde" unicode="&#xd5;" horiz-adv-x="1208" 
d="M1139 723q0 -222 -64.5 -390.5t-189.5 -263t-295 -94.5q-166 0 -284.5 94.5t-178 262.5t-59.5 395q0 340 150 540.5t400 200.5q128 0 228.5 -57.5t164 -159t96 -235.5t32.5 -293zM973 725q0 270 -99 436t-274 166q-118 0 -202 -78.5t-124.5 -211.5t-40.5 -308
q0 -173 40 -308.5t124 -218.5t201 -83q124 0 210 80t125.5 214t39.5 312zM889 1653q-65 -92 -164 -92q-43 0 -118 22.5t-113 22.5q-34 0 -57 -9t-56 -32l-62 80q43 43 87 64.5t104 21.5q46 0 113 -22.5t94 -22.5q16 0 30 3t26 9.5t18.5 11t17.5 14t14 11.5z" />
    <glyph glyph-name="Odieresis" unicode="&#xd6;" horiz-adv-x="1208" 
d="M870 1636l-110 -112l-111 112l111 109zM557 1636l-111 -112l-108 112l108 109zM1139 723q0 -222 -64.5 -390.5t-189.5 -263t-295 -94.5q-166 0 -284.5 94.5t-178 262.5t-59.5 395q0 340 150 540.5t400 200.5q128 0 228.5 -57.5t164 -159t96 -235.5t32.5 -293zM973 725
q0 270 -99 436t-274 166q-118 0 -202 -78.5t-124.5 -211.5t-40.5 -308q0 -173 40 -308.5t124 -218.5t201 -83q124 0 210 80t125.5 214t39.5 312z" />
    <glyph glyph-name="multiply" unicode="&#xd7;" horiz-adv-x="894" 
d="M770 369l-102 -101l-217 219l-224 -223l-104 101l223 223l-217 217l102 100l218 -215l215 215l104 -102l-217 -215z" />
    <glyph glyph-name="Oslash" unicode="&#xd8;" horiz-adv-x="1208" 
d="M1159 1395l-129 -176q109 -193 109 -496q0 -220 -64.5 -388.5t-189.5 -264t-295 -95.5q-202 0 -338 152l-107 -152l-100 76l129 185q-106 201 -106 491q0 340 150 540.5t400 200.5q205 0 336 -143l105 145zM854 1190q-99 137 -250 137q-178 0 -277.5 -165.5t-99.5 -432.5
q0 -198 58 -344zM977 725q0 201 -59 340l-570 -809q94 -137 246 -137q125 0 212.5 79t129 213.5t41.5 313.5z" />
    <glyph glyph-name="Ugrave" unicode="&#xd9;" horiz-adv-x="1134" 
d="M999 553q0 -134 -26 -237.5t-67.5 -167t-99 -104t-115 -56t-120.5 -15.5q-68 0 -127.5 14t-117.5 51t-99 94.5t-66.5 151.5t-25.5 216v948h164v-950q0 -108 22.5 -184.5t62.5 -117t86 -58t101 -17.5q56 0 102.5 20.5t86.5 67t62 132t22 204.5v903h155v-895zM715 1524
l-359 131l52 141l350 -172z" />
    <glyph glyph-name="Uacute" unicode="&#xda;" horiz-adv-x="1134" 
d="M827 1655l-358 -131l-43 100l348 172zM999 553q0 -134 -26 -237.5t-67.5 -167t-99 -104t-115 -56t-120.5 -15.5q-68 0 -127.5 14t-117.5 51t-99 94.5t-66.5 151.5t-25.5 216v948h164v-950q0 -108 22.5 -184.5t62.5 -117t86 -58t101 -17.5q56 0 102.5 20.5t86.5 67t62 132
t22 204.5v903h155v-895z" />
    <glyph glyph-name="Ucircumflex" unicode="&#xdb;" horiz-adv-x="1134" 
d="M272 1599l297 183l293 -183l-55 -94l-238 131l-237 -129zM999 553q0 -134 -26 -237.5t-67.5 -167t-99 -104t-115 -56t-120.5 -15.5q-68 0 -127.5 14t-117.5 51t-99 94.5t-66.5 151.5t-25.5 216v948h164v-950q0 -108 22.5 -184.5t62.5 -117t86 -58t101 -17.5
q56 0 102.5 20.5t86.5 67t62 132t22 204.5v903h155v-895z" />
    <glyph glyph-name="Udieresis" unicode="&#xdc;" horiz-adv-x="1134" 
d="M831 1636l-110 -112l-111 112l111 109zM518 1636l-110 -112l-109 112l109 109zM999 553q0 -134 -26 -237.5t-67.5 -167t-99 -104t-115 -56t-120.5 -15.5q-68 0 -127.5 14t-117.5 51t-99 94.5t-66.5 151.5t-25.5 216v948h164v-950q0 -108 22.5 -184.5t62.5 -117t86 -58
t101 -17.5q56 0 102.5 20.5t86.5 67t62 132t22 204.5v903h155v-895z" />
    <glyph glyph-name="Yacute" unicode="&#xdd;" horiz-adv-x="841" 
d="M858 1448l-366 -899v-549h-160v551l-348 897h180l190 -539l58 -188h8l57 186l207 541h174zM678 1655l-359 -131l-43 100l349 172z" />
    <glyph glyph-name="Thorn" unicode="&#xde;" horiz-adv-x="874" 
d="M858 725q0 -132 -48.5 -236t-151 -167.5t-246.5 -63.5h-35v150h43q120 0 195 77.5t75 231.5q0 156 -63 239.5t-172 83.5h-144v-1040h-161v1448h161v-262h158q180 0 284.5 -121.5t104.5 -339.5z" />
    <glyph glyph-name="germandbls" unicode="&#xdf;" horiz-adv-x="919" 
d="M862 281q0 -81 -24.5 -142t-65.5 -95t-87.5 -50.5t-96.5 -16.5q-126 0 -234 56l33 131q105 -43 184 -43q65 0 99.5 38t34.5 111q0 40 -17 75.5t-44.5 63.5t-61 56.5t-67 62t-61 72t-44.5 94.5t-17 123q0 51 16.5 101t39.5 90.5l46 81t39.5 88.5t16.5 96q0 83 -32 124.5
t-89 41.5q-86 0 -116.5 -66.5t-30.5 -204.5v-1620h-156v1610q0 223 77.5 323.5t225.5 100.5q37 0 72 -7.5t74 -29t67.5 -55.5t47 -93t18.5 -136q0 -66 -24.5 -131t-54.5 -109.5t-54.5 -100.5t-24.5 -104t17 -89.5t44.5 -73.5t60.5 -62.5t66.5 -62.5t61 -66.5t44.5 -81
t17 -100.5z" />
    <glyph glyph-name="agrave" unicode="&#xe0;" horiz-adv-x="841" 
d="M799 115l-11 -127q-58 0 -104 16t-70.5 40t-36.5 42t-16 33q-101 -135 -264 -135q-66 0 -115 27.5t-76.5 75t-41 103t-13.5 119.5q0 79 29 141.5t79.5 101t114 59.5t136.5 24l133 6v166q0 109 -38 148.5t-147 39.5q-73 0 -217 -57l-24 133q52 34 130.5 54t143.5 20
q305 0 305 -307v-619q0 -50 27 -73.5t76 -30.5zM543 233v287q-132 -5 -165 -10q-139 -22 -168 -121q-9 -29 -9 -67q0 -199 129 -199q103 0 213 110zM565 1352l-73 -97l-326 261l92 114z" />
    <glyph glyph-name="aacute" unicode="&#xe1;" horiz-adv-x="841" 
d="M799 115l-11 -127q-58 0 -104 16t-70.5 40t-36.5 42t-16 33q-101 -135 -264 -135q-66 0 -115 27.5t-76.5 75t-41 103t-13.5 119.5q0 79 29 141.5t79.5 101t114 59.5t136.5 24l133 6v166q0 109 -38 148.5t-147 39.5q-73 0 -217 -57l-24 133q52 34 130.5 54t143.5 20
q305 0 305 -307v-619q0 -50 27 -73.5t76 -30.5zM543 233v287q-132 -5 -165 -10q-139 -22 -168 -121q-9 -29 -9 -67q0 -199 129 -199q103 0 213 110zM643 1522l-319 -260l-78 92l303 282z" />
    <glyph glyph-name="acircumflex" unicode="&#xe2;" horiz-adv-x="841" 
d="M799 115l-11 -127q-58 0 -104 16t-70.5 40t-36.5 42t-16 33q-101 -135 -264 -135q-66 0 -115 27.5t-76.5 75t-41 103t-13.5 119.5q0 79 29 141.5t79.5 101t114 59.5t136.5 24l133 6v166q0 109 -38 148.5t-147 39.5q-73 0 -217 -57l-24 133q52 34 130.5 54t143.5 20
q305 0 305 -307v-619q0 -50 27 -73.5t76 -30.5zM543 233v287q-132 -5 -165 -10q-139 -22 -168 -121q-9 -29 -9 -67q0 -199 129 -199q103 0 213 110zM692 1384l-69 -94l-222 166l-225 -164l-72 92l295 232z" />
    <glyph glyph-name="atilde" unicode="&#xe3;" horiz-adv-x="841" 
d="M799 115l-11 -127q-58 0 -104 16t-70.5 40t-36.5 42t-16 33q-101 -135 -264 -135q-66 0 -115 27.5t-76.5 75t-41 103t-13.5 119.5q0 79 29 141.5t79.5 101t114 59.5t136.5 24l133 6v166q0 109 -38 148.5t-147 39.5q-73 0 -217 -57l-24 133q52 34 130.5 54t143.5 20
q305 0 305 -307v-619q0 -50 27 -73.5t76 -30.5zM543 233v287q-132 -5 -165 -10q-139 -22 -168 -121q-9 -29 -9 -67q0 -199 129 -199q103 0 213 110zM707 1456q-22 -28 -41.5 -47t-56 -36t-79.5 -17q-42 0 -114 26.5t-107 26.5q-37 0 -60 -8.5t-56 -34.5l-62 84
q42 44 87.5 67t107.5 23q47 0 110 -25.5t88 -25.5q22 0 41.5 5.5t29.5 11t25.5 17t18.5 13.5z" />
    <glyph glyph-name="adieresis" unicode="&#xe4;" horiz-adv-x="841" 
d="M799 115l-11 -127q-58 0 -104 16t-70.5 40t-36.5 42t-16 33q-101 -135 -264 -135q-66 0 -115 27.5t-76.5 75t-41 103t-13.5 119.5q0 79 29 141.5t79.5 101t114 59.5t136.5 24l133 6v166q0 109 -38 148.5t-147 39.5q-73 0 -217 -57l-24 133q52 34 130.5 54t143.5 20
q305 0 305 -307v-619q0 -50 27 -73.5t76 -30.5zM543 233v287q-132 -5 -165 -10q-139 -22 -168 -121q-9 -29 -9 -67q0 -199 129 -199q103 0 213 110zM672 1454l-111 -113l-108 113l108 109zM358 1454l-110 -113l-109 113l109 109z" />
    <glyph glyph-name="aring" unicode="&#xe5;" horiz-adv-x="841" 
d="M799 115l-11 -127q-58 0 -104 16t-70.5 40t-36.5 42t-16 33q-101 -135 -264 -135q-66 0 -115 27.5t-76.5 75t-41 103t-13.5 119.5q0 79 29 141.5t79.5 101t114 59.5t136.5 24l133 6v166q0 109 -38 148.5t-147 39.5q-73 0 -217 -57l-24 133q52 34 130.5 54t143.5 20
q305 0 305 -307v-619q0 -50 27 -73.5t76 -30.5zM543 233v287q-132 -5 -165 -10q-139 -22 -168 -121q-9 -29 -9 -67q0 -199 129 -199q103 0 213 110zM610 1436q0 -81 -53.5 -128.5t-134.5 -47.5q-82 0 -138.5 44t-56.5 128t56.5 133t134.5 49q73 0 132.5 -45.5t59.5 -132.5z
M516 1434q0 39 -29.5 66.5t-68.5 27.5q-41 0 -67.5 -25t-26.5 -65q0 -41 27.5 -69t68.5 -28t68.5 26.5t27.5 66.5z" />
    <glyph glyph-name="ae" unicode="&#xe6;" horiz-adv-x="1271" 
d="M1206 551l-524 -27q0 -115 18.5 -193.5t56 -121.5t85 -60.5t114.5 -17.5q84 0 211 43l27 -137q-37 -22 -110 -38.5t-162 -16.5q-216 0 -314 178q-20 -25 -47.5 -51.5t-68 -56.5t-93.5 -49t-106 -19q-66 0 -116.5 27.5t-79 74.5t-42.5 103t-14 120q0 155 103 239t255 89
l133 4v166q0 109 -37.5 148.5t-146.5 39.5q-76 0 -215 -57l-27 133q51 34 131 54t144 20q206 0 264 -158q90 158 254 158q160 0 233.5 -132t73.5 -403v-59zM1044 672q0 162 -40.5 251t-122.5 89q-83 0 -134 -98t-63 -269zM565 266q-16 61 -20 94q-13 83 -13 160
q-13 -1 -44.5 -2t-48 -2t-46 -4t-46 -7t-41 -11t-39 -17t-31 -24.5t-25.5 -32.5t-15 -43t-6 -55q0 -199 129 -199q91 0 246 143z" />
    <glyph glyph-name="ccedilla" unicode="&#xe7;" horiz-adv-x="737" 
d="M696 25q-103 -43 -204 -43q-222 0 -322 138t-100 439q0 268 103 426t286 158q139 0 241 -72l-41 -135q-55 31 -100 47t-102 16q-103 0 -167.5 -116.5t-64.5 -317.5q0 -226 62.5 -331t216.5 -105q21 0 46.5 3.5t42.5 7.5t45.5 10.5t41.5 9.5zM539 -260q0 -74 -60 -138.5
t-160 -113.5l-63 117q135 76 135 145q0 54 -47 146h148q47 -83 47 -156z" />
    <glyph glyph-name="egrave" unicode="&#xe8;" horiz-adv-x="804" 
d="M750 524h-527q0 -115 19 -193.5t57 -121.5t86 -60.5t115 -17.5q86 0 209 43l28 -137q-37 -22 -110 -38.5t-162 -16.5q-96 0 -166.5 28.5t-123 92t-79 172.5t-26.5 264q0 160 28.5 279.5t80 189.5t117 103.5t146.5 33.5q308 0 308 -557v-64zM588 655q0 164 -41 260.5
t-123 96.5q-85 0 -136 -93.5t-63 -263.5h363zM618 1352l-73 -97l-326 261l92 114z" />
    <glyph glyph-name="eacute" unicode="&#xe9;" horiz-adv-x="804" 
d="M666 1522l-320 -260l-78 92l303 282zM750 524h-527q0 -115 19 -193.5t57 -121.5t86 -60.5t115 -17.5q86 0 209 43l28 -137q-37 -22 -110 -38.5t-162 -16.5q-96 0 -166.5 28.5t-123 92t-79 172.5t-26.5 264q0 160 28.5 279.5t80 189.5t117 103.5t146.5 33.5
q308 0 308 -557v-64zM588 655q0 164 -41 260.5t-123 96.5q-85 0 -136 -93.5t-63 -263.5h363z" />
    <glyph glyph-name="ecircumflex" unicode="&#xea;" horiz-adv-x="804" 
d="M715 1384l-70 -94l-221 166l-225 -164l-72 92l295 232zM750 524h-527q0 -115 19 -193.5t57 -121.5t86 -60.5t115 -17.5q86 0 209 43l28 -137q-37 -22 -110 -38.5t-162 -16.5q-96 0 -166.5 28.5t-123 92t-79 172.5t-26.5 264q0 160 28.5 279.5t80 189.5t117 103.5
t146.5 33.5q308 0 308 -557v-64zM588 655q0 164 -41 260.5t-123 96.5q-85 0 -136 -93.5t-63 -263.5h363z" />
    <glyph glyph-name="edieresis" unicode="&#xeb;" horiz-adv-x="804" 
d="M686 1456l-111 -113l-108 113l108 109zM373 1456l-111 -113l-108 113l108 109zM750 524h-527q0 -115 19 -193.5t57 -121.5t86 -60.5t115 -17.5q86 0 209 43l28 -137q-37 -22 -110 -38.5t-162 -16.5q-96 0 -166.5 28.5t-123 92t-79 172.5t-26.5 264q0 160 28.5 279.5
t80 189.5t117 103.5t146.5 33.5q308 0 308 -557v-64zM588 655q0 164 -41 260.5t-123 96.5q-85 0 -136 -93.5t-63 -263.5h363z" />
    <glyph glyph-name="igrave" unicode="&#xec;" horiz-adv-x="399" 
d="M279 0h-156v1118h156v-1118zM346 1352l-74 -97l-325 261l92 114z" />
    <glyph glyph-name="iacute" unicode="&#xed;" horiz-adv-x="399" 
d="M453 1522l-320 -260l-78 92l303 282zM279 0h-156v1118h156v-1118z" />
    <glyph glyph-name="icircumflex" unicode="&#xee;" horiz-adv-x="399" 
d="M496 1384l-70 -94l-221 166l-225 -164l-72 92l295 232zM279 0h-156v1118h156v-1118z" />
    <glyph glyph-name="idieresis" unicode="&#xef;" horiz-adv-x="399" 
d="M471 1456l-111 -113l-108 113l108 109zM158 1456l-111 -113l-108 113l108 109zM279 0h-156v1118h156v-1118z" />
    <glyph glyph-name="eth" unicode="&#xf0;" horiz-adv-x="911" 
d="M846 582q0 -288 -102 -444t-291 -156q-184 0 -285.5 149.5t-101.5 419.5q0 278 106.5 439t290.5 161q22 0 42 -4t32.5 -9t25 -14t18 -14t13 -13.5t8.5 -9.5q-23 86 -76 191l-139 -45l-37 104l121 39q-17 32 -35.5 62t-28.5 44l-10 15l113 82q49 -54 108 -154l130 43
l43 -100l-119 -39q174 -344 174 -747zM686 553q0 94 -11.5 172.5t-37 144.5t-71.5 103t-109 37t-110 -38.5t-72.5 -105.5t-37.5 -144t-12 -167q0 -95 12.5 -171.5t39.5 -137.5t74 -94t110 -33q225 0 225 434z" />
    <glyph glyph-name="ntilde" unicode="&#xf1;" horiz-adv-x="915" 
d="M801 0h-156v707q0 61 -2.5 100t-10.5 77t-23.5 59t-42 33.5t-64.5 12.5q-78 0 -223 -123v-866h-156v1118h156v-123q5 8 26 29.5t55.5 49.5t83 48.5t95.5 20.5q52 0 93.5 -15t68.5 -37.5t46.5 -59t29.5 -70t16 -81t7 -80t1 -79.5v-721zM750 1456q-22 -28 -41.5 -47
t-56 -36t-79.5 -17q-42 0 -114 26.5t-107 26.5q-37 0 -60 -8.5t-56 -34.5l-62 84q42 44 87.5 67t107.5 23q47 0 110 -25.5t88 -25.5q22 0 41.5 5.5t29.5 11t25.5 17t18.5 13.5z" />
    <glyph glyph-name="ograve" unicode="&#xf2;" horiz-adv-x="888" 
d="M823 559q0 -279 -104.5 -428t-278.5 -149q-179 0 -275.5 148t-96.5 417q0 280 104 438t279 158q187 0 279.5 -152.5t92.5 -431.5zM668 559q0 66 -6 125.5t-22 119t-40.5 103t-64.5 70.5t-91 27q-59 0 -104 -39.5t-69.5 -106.5t-36 -142.5t-11.5 -158.5q0 -89 12.5 -164.5
t38 -137t70.5 -97t105 -35.5q61 0 105.5 36.5t68.5 100.5t34.5 137.5t10.5 161.5zM647 1352l-74 -97l-325 261l92 114z" />
    <glyph glyph-name="oacute" unicode="&#xf3;" horiz-adv-x="888" 
d="M694 1522l-319 -260l-78 92l303 282zM823 559q0 -279 -104.5 -428t-278.5 -149q-179 0 -275.5 148t-96.5 417q0 280 104 438t279 158q187 0 279.5 -152.5t92.5 -431.5zM668 559q0 66 -6 125.5t-22 119t-40.5 103t-64.5 70.5t-91 27q-59 0 -104 -39.5t-69.5 -106.5
t-36 -142.5t-11.5 -158.5q0 -89 12.5 -164.5t38 -137t70.5 -97t105 -35.5q61 0 105.5 36.5t68.5 100.5t34.5 137.5t10.5 161.5z" />
    <glyph glyph-name="ocircumflex" unicode="&#xf4;" horiz-adv-x="888" 
d="M739 1384l-69 -94l-221 166l-226 -164l-71 92l294 232zM823 559q0 -279 -104.5 -428t-278.5 -149q-179 0 -275.5 148t-96.5 417q0 280 104 438t279 158q187 0 279.5 -152.5t92.5 -431.5zM668 559q0 66 -6 125.5t-22 119t-40.5 103t-64.5 70.5t-91 27q-59 0 -104 -39.5
t-69.5 -106.5t-36 -142.5t-11.5 -158.5q0 -89 12.5 -164.5t38 -137t70.5 -97t105 -35.5q61 0 105.5 36.5t68.5 100.5t34.5 137.5t10.5 161.5z" />
    <glyph glyph-name="otilde" unicode="&#xf5;" horiz-adv-x="888" 
d="M823 559q0 -279 -104.5 -428t-278.5 -149q-179 0 -275.5 148t-96.5 417q0 280 104 438t279 158q187 0 279.5 -152.5t92.5 -431.5zM668 559q0 66 -6 125.5t-22 119t-40.5 103t-64.5 70.5t-91 27q-59 0 -104 -39.5t-69.5 -106.5t-36 -142.5t-11.5 -158.5q0 -89 12.5 -164.5
t38 -137t70.5 -97t105 -35.5q61 0 105.5 36.5t68.5 100.5t34.5 137.5t10.5 161.5zM739 1456q-22 -29 -41 -47.5t-55.5 -35.5t-79.5 -17q-42 0 -114 26.5t-107 26.5q-37 0 -60.5 -9t-56.5 -34l-61 84q42 44 87 67t107 23q47 0 110.5 -25.5t88.5 -25.5q22 0 41.5 5.5t29.5 11
t25.5 17t18.5 13.5z" />
    <glyph glyph-name="odieresis" unicode="&#xf6;" horiz-adv-x="888" 
d="M713 1464l-111 -112l-108 112l108 109zM399 1464l-110 -112l-109 112l109 109zM823 559q0 -279 -104.5 -428t-278.5 -149q-179 0 -275.5 148t-96.5 417q0 280 104 438t279 158q187 0 279.5 -152.5t92.5 -431.5zM668 559q0 66 -6 125.5t-22 119t-40.5 103t-64.5 70.5
t-91 27q-59 0 -104 -39.5t-69.5 -106.5t-36 -142.5t-11.5 -158.5q0 -89 12.5 -164.5t38 -137t70.5 -97t105 -35.5q61 0 105.5 36.5t68.5 100.5t34.5 137.5t10.5 161.5z" />
    <glyph glyph-name="divide" unicode="&#xf7;" horiz-adv-x="694" 
d="M432 809h-170v178h170v-178zM647 516h-600v146h600v-146zM432 195h-170v176h170v-176z" />
    <glyph glyph-name="oslash" unicode="&#xf8;" horiz-adv-x="888" 
d="M864 1120l-110 -172q69 -141 69 -389q0 -279 -104.5 -428t-278.5 -149q-150 0 -239 102l-86 -135l-88 59l110 170q-69 144 -69 369q0 280 104 438t279 158q154 0 239 -101l86 136zM598 905q-59 99 -154 99q-59 0 -104 -39.5t-69.5 -106.5t-36 -142.5t-11.5 -158.5
q0 -127 25 -215zM668 559q0 117 -25 223l-352 -563q60 -96 158 -96q61 0 105.5 36.5t68.5 100.5t34.5 137.5t10.5 161.5z" />
    <glyph glyph-name="ugrave" unicode="&#xf9;" horiz-adv-x="915" 
d="M801 0h-158v129q-3 -6 -16.5 -21.5t-39 -38t-55.5 -43t-69.5 -35t-77.5 -14.5q-52 0 -93.5 14.5t-68.5 37t-46.5 59t-29.5 69.5t-16 80.5t-7 80t-1 79.5v721h153v-710q0 -152 28 -217.5t118 -65.5q52 0 116.5 43.5t104.5 85.5v864h158v-1118zM625 1352l-74 -97l-326 261
l92 114z" />
    <glyph glyph-name="uacute" unicode="&#xfa;" horiz-adv-x="915" 
d="M711 1522l-320 -260l-78 92l303 282zM801 0h-158v129q-3 -6 -16.5 -21.5t-39 -38t-55.5 -43t-69.5 -35t-77.5 -14.5q-52 0 -93.5 14.5t-68.5 37t-46.5 59t-29.5 69.5t-16 80.5t-7 80t-1 79.5v721h153v-710q0 -152 28 -217.5t118 -65.5q52 0 116.5 43.5t104.5 85.5v864
h158v-1118z" />
    <glyph glyph-name="ucircumflex" unicode="&#xfb;" horiz-adv-x="915" 
d="M752 1384l-70 -94l-221 166l-225 -164l-72 92l295 232zM801 0h-158v129q-3 -6 -16.5 -21.5t-39 -38t-55.5 -43t-69.5 -35t-77.5 -14.5q-52 0 -93.5 14.5t-68.5 37t-46.5 59t-29.5 69.5t-16 80.5t-7 80t-1 79.5v721h153v-710q0 -152 28 -217.5t118 -65.5q52 0 116.5 43.5
t104.5 85.5v864h158v-1118z" />
    <glyph glyph-name="udieresis" unicode="&#xfc;" horiz-adv-x="915" 
d="M725 1456l-111 -113l-108 113l108 109zM412 1456l-111 -113l-108 113l108 109zM801 0h-158v129q-3 -6 -16.5 -21.5t-39 -38t-55.5 -43t-69.5 -35t-77.5 -14.5q-52 0 -93.5 14.5t-68.5 37t-46.5 59t-29.5 69.5t-16 80.5t-7 80t-1 79.5v721h153v-710q0 -152 28 -217.5
t118 -65.5q52 0 116.5 43.5t104.5 85.5v864h158v-1118z" />
    <glyph glyph-name="yacute" unicode="&#xfd;" horiz-adv-x="763" 
d="M762 1118l-400 -1569h-155l108 451h-43l-266 1118h166l174 -794l23 -179h12l25 177l194 796h162zM627 1522l-320 -260l-78 92l303 282z" />
    <glyph glyph-name="thorn" unicode="&#xfe;" horiz-adv-x="886" 
d="M821 586q0 -135 -21.5 -240t-58.5 -172.5t-89 -111t-109 -61t-123 -17.5q-19 0 -40 1t-38 3t-31 4t-22.5 3t-9.5 1v-447h-156v1995h156v-516q4 4 10.5 11.5t28.5 26.5t46 33t60 26t72 12q151 0 238 -148t87 -403zM664 547q0 440 -211 440q-72 0 -174 -88v-758
q63 -14 143 -14q113 0 177.5 116.5t64.5 303.5z" />
    <glyph glyph-name="ydieresis" unicode="&#xff;" horiz-adv-x="763" 
d="M762 1118l-400 -1569h-155l108 451h-43l-266 1118h166l174 -794l23 -179h12l25 177l194 796h162zM651 1456l-110 -113l-109 113l109 109zM338 1456l-111 -113l-108 113l108 109z" />
    <glyph glyph-name="Amacron" unicode="&#x100;" horiz-adv-x="995" 
d="M995 0h-172l-137 541h-371l-153 -541h-162l416 1448h200zM653 682l-114 475l-25 139h-8l-25 -139l-129 -475h301zM750 1569h-476v127h476v-127z" />
    <glyph glyph-name="amacron" unicode="&#x101;" horiz-adv-x="841" 
d="M799 115l-11 -127q-58 0 -104 16t-70.5 40t-36.5 42t-16 33q-101 -135 -264 -135q-66 0 -115 27.5t-76.5 75t-41 103t-13.5 119.5q0 79 29 141.5t79.5 101t114 59.5t136.5 24l133 6v166q0 109 -38 148.5t-147 39.5q-73 0 -217 -57l-24 133q52 34 130.5 54t143.5 20
q305 0 305 -307v-619q0 -50 27 -73.5t76 -30.5zM543 233v287q-132 -5 -165 -10q-139 -22 -168 -121q-9 -29 -9 -67q0 -199 129 -199q103 0 213 110zM651 1368h-475v133h475v-133z" />
    <glyph glyph-name="Abreve" unicode="&#x102;" horiz-adv-x="995" 
d="M995 0h-172l-137 541h-371l-153 -541h-162l416 1448h200zM653 682l-114 475l-25 139h-8l-25 -139l-129 -475h301zM780 1681q-31 -51 -104.5 -100t-167.5 -49q-86 0 -154.5 43t-111.5 104l82 82q90 -98 186 -98q104 0 188 92z" />
    <glyph glyph-name="abreve" unicode="&#x103;" horiz-adv-x="841" 
d="M799 115l-11 -127q-58 0 -104 16t-70.5 40t-36.5 42t-16 33q-101 -135 -264 -135q-66 0 -115 27.5t-76.5 75t-41 103t-13.5 119.5q0 79 29 141.5t79.5 101t114 59.5t136.5 24l133 6v166q0 109 -38 148.5t-147 39.5q-73 0 -217 -57l-24 133q52 34 130.5 54t143.5 20
q305 0 305 -307v-619q0 -50 27 -73.5t76 -30.5zM543 233v287q-132 -5 -165 -10q-139 -22 -168 -121q-9 -29 -9 -67q0 -199 129 -199q103 0 213 110zM709 1479q-34 -53 -108.5 -102.5t-170.5 -49.5q-88 0 -158.5 44t-113.5 106l82 86q93 -101 192 -101q108 0 195 94z" />
    <glyph glyph-name="Aogonek" unicode="&#x104;" horiz-adv-x="995" 
d="M995 0q-78 -44 -139 -94q-86 -82 -86 -139q0 -52 29 -75.5t88 -23.5q38 0 84 17l30 -111q-59 -35 -157 -35q-120 0 -173 55t-53 146q0 143 203 266l-135 535h-371l-153 -541h-162l416 1448h200zM653 682l-114 475l-25 139h-8l-25 -139l-129 -475h301z" />
    <glyph glyph-name="aogonek" unicode="&#x105;" horiz-adv-x="841" 
d="M799 115l-11 -127q-215 -120 -215 -221q0 -52 28 -75.5t87 -23.5q38 0 84 17l31 -111q-59 -35 -158 -35q-120 0 -172.5 55t-52.5 146q0 82 63.5 153.5t153.5 122.5q-17 10 -30 23t-21 26.5t-13 23.5t-8.5 19.5t-3.5 10.5q-101 -135 -258 -135q-66 0 -116.5 27.5t-79 74.5
t-42.5 103t-14 120q0 79 29 141.5t79.5 101t114 59.5t136.5 24l133 6v166q0 109 -38 148.5t-147 39.5q-73 0 -217 -57l-24 133q52 34 130.5 54t143.5 20q305 0 305 -307v-619q0 -50 27 -73.5t76 -30.5zM543 233v287q-132 -5 -165 -10q-139 -22 -168 -121q-9 -29 -9 -67
q0 -199 129 -199q103 0 213 110z" />
    <glyph glyph-name="Cacute" unicode="&#x106;" horiz-adv-x="956" 
d="M868 1655l-358 -131l-43 100l348 172zM942 47q-123 -67 -321 -67q-174 0 -300 95.5t-188.5 260t-62.5 379.5q0 336 148.5 540.5t399.5 204.5q107 0 179.5 -16.5t138.5 -54.5l-35 -144q-157 68 -285 68q-79 0 -146.5 -34.5t-121.5 -102.5t-84.5 -181.5t-30.5 -259.5
q0 -151 32.5 -268t90 -188t131 -106.5t160.5 -35.5q136 0 264 49z" />
    <glyph glyph-name="cacute" unicode="&#x107;" horiz-adv-x="737" 
d="M690 1522l-319 -260l-78 92l303 282zM696 25q-103 -43 -204 -43q-222 0 -322 138t-100 439q0 268 103 426t286 158q139 0 241 -72l-41 -135q-55 31 -100 47t-102 16q-103 0 -167.5 -116.5t-64.5 -317.5q0 -226 62.5 -331t216.5 -105q21 0 46.5 3.5t42.5 7.5t45.5 10.5
t41.5 9.5z" />
    <glyph glyph-name="Ccircumflex" unicode="&#x108;" horiz-adv-x="956" 
d="M315 1597l297 183l293 -183l-55 -94l-238 131l-237 -129zM942 47q-123 -67 -321 -67q-174 0 -300 95.5t-188.5 260t-62.5 379.5q0 336 148.5 540.5t399.5 204.5q107 0 179.5 -16.5t138.5 -54.5l-35 -144q-157 68 -285 68q-79 0 -146.5 -34.5t-121.5 -102.5t-84.5 -181.5
t-30.5 -259.5q0 -151 32.5 -268t90 -188t131 -106.5t160.5 -35.5q136 0 264 49z" />
    <glyph glyph-name="ccircumflex" unicode="&#x109;" horiz-adv-x="737" 
d="M741 1384l-69 -94l-221 166l-226 -164l-71 92l295 232zM696 25q-103 -43 -204 -43q-222 0 -322 138t-100 439q0 268 103 426t286 158q139 0 241 -72l-41 -135q-55 31 -100 47t-102 16q-103 0 -167.5 -116.5t-64.5 -317.5q0 -226 62.5 -331t216.5 -105q21 0 46.5 3.5
t42.5 7.5t45.5 10.5t41.5 9.5z" />
    <glyph glyph-name="Cdotaccent" unicode="&#x10a;" horiz-adv-x="956" 
d="M942 47q-123 -67 -321 -67q-174 0 -300 95.5t-188.5 260t-62.5 379.5q0 336 148.5 540.5t399.5 204.5q107 0 179.5 -16.5t138.5 -54.5l-35 -144q-157 68 -285 68q-79 0 -146.5 -34.5t-121.5 -102.5t-84.5 -181.5t-30.5 -259.5q0 -151 32.5 -268t90 -188t131 -106.5
t160.5 -35.5q136 0 264 49zM719 1642l-111 -112l-110 112l110 109z" />
    <glyph glyph-name="cdotaccent" unicode="&#x10b;" horiz-adv-x="737" 
d="M696 25q-103 -43 -204 -43q-222 0 -322 138t-100 439q0 268 103 426t286 158q139 0 241 -72l-41 -135q-55 31 -100 47t-102 16q-103 0 -167.5 -116.5t-64.5 -317.5q0 -226 62.5 -331t216.5 -105q21 0 46.5 3.5t42.5 7.5t45.5 10.5t41.5 9.5zM565 1464l-123 -123l-118 123
l118 121z" />
    <glyph glyph-name="Ccaron" unicode="&#x10c;" horiz-adv-x="956" 
d="M907 1686l-297 -185l-293 182l56 97l237 -131l240 129zM942 47q-123 -67 -321 -67q-174 0 -300 95.5t-188.5 260t-62.5 379.5q0 336 148.5 540.5t399.5 204.5q107 0 179.5 -16.5t138.5 -54.5l-35 -144q-157 68 -285 68q-79 0 -146.5 -34.5t-121.5 -102.5t-84.5 -181.5
t-30.5 -259.5q0 -151 32.5 -268t90 -188t131 -106.5t160.5 -35.5q136 0 264 49z" />
    <glyph glyph-name="ccaron" unicode="&#x10d;" horiz-adv-x="737" 
d="M756 1507l-303 -235l-285 229l76 98l215 -165l223 163zM696 25q-103 -43 -204 -43q-222 0 -322 138t-100 439q0 268 103 426t286 158q139 0 241 -72l-41 -135q-55 31 -100 47t-102 16q-103 0 -167.5 -116.5t-64.5 -317.5q0 -226 62.5 -331t216.5 -105q21 0 46.5 3.5
t42.5 7.5t45.5 10.5t41.5 9.5z" />
    <glyph glyph-name="Dcaron" unicode="&#x10e;" horiz-adv-x="1103" 
d="M750 1686l-297 -185l-293 182l55 97l238 -131l239 129zM1036 729q0 -367 -153 -548t-430 -181h-303v1448h294q130 0 238 -47t187 -136.5t123 -226.5t44 -309zM877 707q0 296 -116.5 446t-318.5 150h-133v-1158h160q193 0 300.5 143.5t107.5 418.5z" />
    <glyph glyph-name="dcaron" unicode="&#x10f;" horiz-adv-x="958" 
d="M1004 1546l-48 -379h-118l24 379h142zM758 0h-156v106q-27 -43 -87 -82.5t-122 -39.5q-47 0 -90 15t-86.5 55t-75 102t-51.5 164.5t-20 234.5q0 280 106 434t270 154q29 0 55 -3t43 -6.5t30 -7.5t20 -7t8 -3v428h156v-1544zM602 238v735q-6 3 -21 8.5t-49 12.5t-65 7
q-83 0 -139 -61t-80.5 -159t-24.5 -228q0 -210 57 -316t148 -106q73 0 174 107z" />
    <glyph glyph-name="Dcroat" unicode="&#x110;" horiz-adv-x="1103" 
d="M1036 729q0 -367 -153 -548t-430 -181h-303v657h-111v125h111v666h294q130 0 238 -47t187 -136.5t123 -226.5t44 -309zM877 707q0 296 -116.5 446t-318.5 150h-133v-521h180v-125h-180v-512h160q193 0 300.5 143.5t107.5 418.5z" />
    <glyph glyph-name="dcroat" unicode="&#x111;" horiz-adv-x="878" 
d="M758 0h-156v106q-27 -43 -87 -82.5t-122 -39.5q-47 0 -90 15t-86.5 55t-75 102t-51.5 164.5t-20 234.5q0 280 106.5 437t269.5 157q25 0 47.5 -2t38 -5t29.5 -7t21 -6.5t14 -5.5l6 -3v144h-276v120h276v160h156v-160h110v-120h-110v-1264zM602 238v739q-62 31 -135 31
q-83 0 -139 -63t-80.5 -162.5t-24.5 -229.5q0 -210 57 -316t148 -106q73 0 174 107z" />
    <glyph glyph-name="Emacron" unicode="&#x112;" horiz-adv-x="858" 
d="M799 0h-649v1448h616v-141h-455v-510h422v-140h-422v-512h488v-145zM692 1569h-475v127h475v-127z" />
    <glyph glyph-name="emacron" unicode="&#x113;" horiz-adv-x="804" 
d="M750 524h-527q0 -115 19 -193.5t57 -121.5t86 -60.5t115 -17.5q86 0 209 43l28 -137q-37 -22 -110 -38.5t-162 -16.5q-96 0 -166.5 28.5t-123 92t-79 172.5t-26.5 264q0 160 28.5 279.5t80 189.5t117 103.5t146.5 33.5q308 0 308 -557v-64zM588 655q0 164 -41 260.5
t-123 96.5q-85 0 -136 -93.5t-63 -263.5h363zM657 1368h-475v133h475v-133z" />
    <glyph glyph-name="Ebreve" unicode="&#x114;" horiz-adv-x="858" 
d="M799 0h-649v1448h616v-141h-455v-510h422v-140h-422v-512h488v-145zM735 1681q-31 -51 -104.5 -100t-167.5 -49q-86 0 -154.5 43t-111.5 104l82 82q90 -98 186 -98q104 0 188 92z" />
    <glyph glyph-name="ebreve" unicode="&#x115;" horiz-adv-x="804" 
d="M750 524h-527q0 -115 19 -193.5t57 -121.5t86 -60.5t115 -17.5q86 0 209 43l28 -137q-37 -22 -110 -38.5t-162 -16.5q-96 0 -166.5 28.5t-123 92t-79 172.5t-26.5 264q0 160 28.5 279.5t80 189.5t117 103.5t146.5 33.5q308 0 308 -557v-64zM588 655q0 164 -41 260.5
t-123 96.5q-85 0 -136 -93.5t-63 -263.5h363zM700 1479q-34 -53 -108 -102.5t-170 -49.5q-88 0 -158.5 44t-113.5 106l81 86q93 -101 193 -101q107 0 194 94z" />
    <glyph glyph-name="Edotaccent" unicode="&#x116;" horiz-adv-x="858" 
d="M799 0h-649v1448h616v-141h-455v-510h422v-140h-422v-512h488v-145zM575 1642l-110 -112l-111 112l111 109z" />
    <glyph glyph-name="edotaccent" unicode="&#x117;" horiz-adv-x="804" 
d="M750 524h-527q0 -115 19 -193.5t57 -121.5t86 -60.5t115 -17.5q86 0 209 43l28 -137q-37 -22 -110 -38.5t-162 -16.5q-96 0 -166.5 28.5t-123 92t-79 172.5t-26.5 264q0 160 28.5 279.5t80 189.5t117 103.5t146.5 33.5q308 0 308 -557v-64zM588 655q0 164 -41 260.5
t-123 96.5q-85 0 -136 -93.5t-63 -263.5h363zM549 1464l-123 -123l-119 123l119 121z" />
    <glyph glyph-name="Eogonek" unicode="&#x118;" horiz-adv-x="858" 
d="M799 0q-234 -132 -234 -231q0 -52 28.5 -75.5t86.5 -23.5q42 0 84 17l31 -111q-55 -35 -156 -35q-120 0 -173.5 55t-53.5 146q0 75 53 141t133 117h-448v1448h616v-141h-455v-510h422v-140h-422v-512h488v-145z" />
    <glyph glyph-name="eogonek" unicode="&#x119;" horiz-adv-x="804" 
d="M750 524h-527q0 -115 19 -193.5t57 -121.5t86 -60.5t115 -17.5q86 0 209 43l28 -137q-23 -12 -50 -28t-68.5 -45.5t-73 -59t-55 -66.5t-23.5 -69q0 -52 28 -75.5t87 -23.5q38 0 84 17l30 -111q-59 -35 -157 -35q-120 0 -173 55t-53 146q0 128 152 240h-10q-93 2 -162 31
t-120 93t-77 172t-26 261q0 130 19 232.5t52 172t80 115t102 66t119 20.5q308 0 308 -557v-64zM588 655q0 164 -41 260.5t-123 96.5q-85 0 -136 -93.5t-63 -263.5h363z" />
    <glyph glyph-name="Ecaron" unicode="&#x11a;" horiz-adv-x="858" 
d="M764 1686l-297 -185l-293 182l55 97l238 -131l240 129zM799 0h-649v1448h616v-141h-455v-510h422v-140h-422v-512h488v-145z" />
    <glyph glyph-name="ecaron" unicode="&#x11b;" horiz-adv-x="804" 
d="M729 1507l-303 -235l-285 229l76 98l215 -165l223 163zM750 524h-527q0 -115 19 -193.5t57 -121.5t86 -60.5t115 -17.5q86 0 209 43l28 -137q-37 -22 -110 -38.5t-162 -16.5q-96 0 -166.5 28.5t-123 92t-79 172.5t-26.5 264q0 160 28.5 279.5t80 189.5t117 103.5
t146.5 33.5q308 0 308 -557v-64zM588 655q0 164 -41 260.5t-123 96.5q-85 0 -136 -93.5t-63 -263.5h363z" />
    <glyph glyph-name="Gcircumflex" unicode="&#x11c;" horiz-adv-x="1040" 
d="M309 1597l297 183l293 -183l-55 -94l-238 131l-237 -129zM952 45q-124 -65 -331 -65q-174 0 -300 95.5t-188.5 260t-62.5 379.5q0 219 66 387.5t191.5 264t293.5 95.5q178 0 321 -76l-41 -141q-89 39 -147 54.5t-138 15.5q-165 0 -274 -147t-109 -433
q0 -297 116.5 -450.5t297.5 -153.5q85 0 148 16v476h157v-578z" />
    <glyph glyph-name="gcircumflex" unicode="&#x11d;" horiz-adv-x="880" 
d="M760 -61q0 -200 -94 -303t-254 -103q-158 0 -281 45l27 152q48 -16 117.5 -30.5t111.5 -14.5q51 0 86 9.5t66.5 36.5t47 82.5t15.5 139.5v125q-3 -4 -9 -10t-25 -22.5t-39.5 -29t-50.5 -22.5t-60 -10q-34 0 -64.5 5.5t-66.5 21t-66 41t-59 69.5t-48.5 101.5t-31.5 141.5
t-12 187q0 280 107.5 436t279.5 156q132 0 303 -41v-1163zM604 225v758q-86 14 -139 14q-65 0 -112.5 -35t-75.5 -98t-41 -142.5t-13 -176.5q0 -219 58.5 -318.5t169.5 -99.5q24 0 49.5 12.5t37.5 22t38.5 36zM770 1384l-70 -94l-221 166l-225 -164l-72 92l295 232z" />
    <glyph glyph-name="Gbreve" unicode="&#x11e;" horiz-adv-x="1040" 
d="M952 45q-124 -65 -331 -65q-174 0 -300 95.5t-188.5 260t-62.5 379.5q0 219 66 387.5t191.5 264t293.5 95.5q178 0 321 -76l-41 -141q-89 39 -147 54.5t-138 15.5q-165 0 -274 -147t-109 -433q0 -297 116.5 -450.5t297.5 -153.5q85 0 148 16v476h157v-578zM889 1681
q-31 -51 -105 -100t-168 -49q-86 0 -154.5 43t-111.5 104l82 82q90 -98 186 -98q105 0 189 92z" />
    <glyph glyph-name="gbreve" unicode="&#x11f;" horiz-adv-x="880" 
d="M760 -61q0 -200 -94 -303t-254 -103q-158 0 -281 45l27 152q48 -16 117.5 -30.5t111.5 -14.5q51 0 86 9.5t66.5 36.5t47 82.5t15.5 139.5v125q-3 -4 -9 -10t-25 -22.5t-39.5 -29t-50.5 -22.5t-60 -10q-34 0 -64.5 5.5t-66.5 21t-66 41t-59 69.5t-48.5 101.5t-31.5 141.5
t-12 187q0 280 107.5 436t279.5 156q132 0 303 -41v-1163zM604 225v758q-86 14 -139 14q-65 0 -112.5 -35t-75.5 -98t-41 -142.5t-13 -176.5q0 -219 58.5 -318.5t169.5 -99.5q24 0 49.5 12.5t37.5 22t38.5 36zM756 1479q-34 -53 -108.5 -102.5t-170.5 -49.5q-88 0 -158.5 44
t-113.5 106l82 86q93 -101 192 -101q108 0 195 94z" />
    <glyph glyph-name="Gdotaccent" unicode="&#x120;" horiz-adv-x="1040" 
d="M952 45q-124 -65 -331 -65q-174 0 -300 95.5t-188.5 260t-62.5 379.5q0 219 66 387.5t191.5 264t293.5 95.5q178 0 321 -76l-41 -141q-89 39 -147 54.5t-138 15.5q-165 0 -274 -147t-109 -433q0 -297 116.5 -450.5t297.5 -153.5q85 0 148 16v476h157v-578zM715 1642
l-111 -112l-110 112l110 109z" />
    <glyph glyph-name="gdotaccent" unicode="&#x121;" horiz-adv-x="880" 
d="M760 -61q0 -200 -94 -303t-254 -103q-158 0 -281 45l27 152q48 -16 117.5 -30.5t111.5 -14.5q51 0 86 9.5t66.5 36.5t47 82.5t15.5 139.5v125q-3 -4 -9 -10t-25 -22.5t-39.5 -29t-50.5 -22.5t-60 -10q-34 0 -64.5 5.5t-66.5 21t-66 41t-59 69.5t-48.5 101.5t-31.5 141.5
t-12 187q0 280 107.5 436t279.5 156q132 0 303 -41v-1163zM604 225v758q-86 14 -139 14q-65 0 -112.5 -35t-75.5 -98t-41 -142.5t-13 -176.5q0 -219 58.5 -318.5t169.5 -99.5q24 0 49.5 12.5t37.5 22t38.5 36zM592 1464l-123 -123l-119 123l119 121z" />
    <glyph glyph-name="Gcommaaccent" unicode="&#x122;" horiz-adv-x="1040" 
d="M702 -123l-47 -379h-118l24 379h141zM952 45q-124 -65 -331 -65q-174 0 -300 95.5t-188.5 260t-62.5 379.5q0 219 66 387.5t191.5 264t293.5 95.5q178 0 321 -76l-41 -141q-89 39 -147 54.5t-138 15.5q-165 0 -274 -147t-109 -433q0 -297 116.5 -450.5t297.5 -153.5
q85 0 148 16v476h157v-578z" />
    <glyph glyph-name="gcommaaccent" unicode="&#x123;" horiz-adv-x="880" 
d="M760 -61q0 -200 -94 -303t-254 -103q-158 0 -281 45l27 152q48 -16 117.5 -30.5t111.5 -14.5q51 0 86 9.5t66.5 36.5t47 82.5t15.5 139.5v125q-3 -4 -9 -10t-25 -22.5t-39.5 -29t-50.5 -22.5t-60 -10q-34 0 -64.5 5.5t-66.5 21t-66 41t-59 69.5t-48.5 101.5t-31.5 141.5
t-12 187q0 280 107.5 436t279.5 156q132 0 303 -41v-1163zM604 225v758q-86 14 -139 14q-65 0 -112.5 -35t-75.5 -98t-41 -142.5t-13 -176.5q0 -219 58.5 -318.5t169.5 -99.5q24 0 49.5 12.5t37.5 22t38.5 36zM395 1276l47 379h119l-24 -379h-142z" />
    <glyph glyph-name="Hcircumflex" unicode="&#x124;" horiz-adv-x="1144" 
d="M268 1597l297 183l293 -183l-55 -94l-238 131l-237 -129zM995 0h-161v653h-523v-653h-161v1448h161v-647h523v647h161v-1448z" />
    <glyph glyph-name="hcircumflex" unicode="&#x125;" horiz-adv-x="915" 
d="M-94 1655l297 182l293 -182l-56 -94l-237 131l-238 -129zM801 0h-156v707q0 61 -2.5 100t-10.5 77t-23.5 59t-42 33.5t-64.5 12.5q-78 0 -223 -123v-866h-156v1544h156v-549q5 8 26 29.5t55.5 49.5t83 48.5t95.5 20.5q52 0 93.5 -15t68.5 -37.5t46.5 -59t29.5 -70t16 -81
t7 -80t1 -79.5v-721z" />
    <glyph glyph-name="Hbar" unicode="&#x126;" horiz-adv-x="1144" 
d="M995 0h-161v653h-523v-653h-161v1065h-113v119h113v264h161v-264h523v264h161v-264h109v-119h-109v-1065zM311 801h523v264h-523v-264z" />
    <glyph glyph-name="hbar" unicode="&#x127;" horiz-adv-x="915" 
d="M801 0h-156v707q0 61 -2.5 100t-10.5 77t-23.5 59t-42 33.5t-64.5 12.5q-78 0 -223 -123v-866h-156v1290h-113v119h113v135h156v-135h274v-119h-274v-295q5 8 26 29.5t55.5 49.5t83 48.5t95.5 20.5q52 0 93.5 -15t68.5 -37.5t46.5 -59t29.5 -70t16 -81t7 -80t1 -79.5
v-721z" />
    <glyph glyph-name="Itilde" unicode="&#x128;" horiz-adv-x="460" 
d="M311 0h-161v1448h161v-1448zM510 1653q-65 -92 -164 -92q-43 0 -118 22.5t-113 22.5q-34 0 -57 -9t-56 -32l-61 80q43 43 87 64.5t103 21.5q46 0 113 -22.5t94 -22.5q16 0 30 3t26 9.5t18.5 11t17.5 14t14 11.5z" />
    <glyph glyph-name="itilde" unicode="&#x129;" horiz-adv-x="399" 
d="M279 0h-156v1118h156v-1118zM492 1456q-22 -28 -41.5 -47t-56 -36t-79.5 -17q-42 0 -114 26.5t-107 26.5q-37 0 -60.5 -9t-56.5 -34l-61 84q42 44 87.5 67t107.5 23q47 0 110 -25.5t88 -25.5q22 0 41.5 5.5t29.5 11t25.5 17t18.5 13.5z" />
    <glyph glyph-name="Imacron" unicode="&#x12a;" horiz-adv-x="460" 
d="M311 0h-161v1448h161v-1448zM465 1569h-475v127h475v-127z" />
    <glyph glyph-name="imacron" unicode="&#x12b;" horiz-adv-x="399" 
d="M279 0h-156v1118h156v-1118zM440 1376h-475v133h475v-133z" />
    <glyph glyph-name="Ibreve" unicode="&#x12c;" horiz-adv-x="460" 
d="M311 0h-161v1448h161v-1448zM496 1681q-31 -51 -105 -100t-168 -49q-86 0 -154.5 43t-111.5 104l82 82q90 -98 186 -98q105 0 189 92z" />
    <glyph glyph-name="ibreve" unicode="&#x12d;" horiz-adv-x="399" 
d="M279 0h-156v1118h156v-1118zM473 1479q-34 -53 -108 -102.5t-170 -49.5q-89 0 -159.5 44t-113.5 106l82 86q93 -101 193 -101q107 0 194 94z" />
    <glyph glyph-name="Iogonek" unicode="&#x12e;" horiz-adv-x="460" 
d="M311 1448v-1448q-54 -31 -110 -97.5t-56 -133.5q0 -52 28.5 -75.5t86.5 -23.5q38 0 84 17l31 -111q-59 -35 -156 -35q-120 0 -173.5 55t-53.5 146q0 140 158 264v1442h161z" />
    <glyph glyph-name="iogonek" unicode="&#x12f;" horiz-adv-x="399" 
d="M281 1118v-1118q-55 -31 -112.5 -97.5t-57.5 -133.5q0 -52 28.5 -75.5t87.5 -23.5q38 0 84 17l31 -111q-59 -35 -158 -35q-223 0 -223 199q0 144 162 262v1116h158zM326 1464l-123 -123l-119 123l119 121z" />
    <glyph glyph-name="Idotaccent" unicode="&#x130;" horiz-adv-x="460" 
d="M311 0h-161v1448h161v-1448zM344 1642l-111 -112l-110 112l110 109z" />
    <glyph glyph-name="dotlessi" unicode="&#x131;" horiz-adv-x="399" 
d="M279 0h-156v1118h156v-1118z" />
    <glyph glyph-name="IJ" unicode="&#x132;" horiz-adv-x="909" 
d="M311 0h-161v1448h161v-1448zM764 319q0 -87 -4 -152.5t-15.5 -136t-33.5 -126.5t-55.5 -110t-84.5 -100.5t-118 -86.5l-78 114q132 94 179.5 221t47.5 355v1151h162v-1129z" />
    <glyph glyph-name="ij" unicode="&#x133;" horiz-adv-x="790" 
d="M670 -43q0 -228 -75 -326t-214 -98q-49 0 -127 31l29 139q50 -20 92 -20q75 0 107 66t32 196v1173h156v-1161zM279 0h-156v1118h156v-1118zM324 1464l-123 -123l-119 123l119 121zM715 1464l-123 -123l-119 123l119 121z" />
    <glyph glyph-name="Jcircumflex" unicode="&#x134;" horiz-adv-x="456" 
d="M-68 1597l297 183l293 -183l-55 -94l-238 131l-237 -129zM311 319q0 -87 -4 -152.5t-15.5 -136t-33.5 -126.5t-55.5 -110t-84.5 -100.5t-118 -86.5l-78 114q132 94 180 221t48 355v1151h161v-1129z" />
    <glyph glyph-name="jcircumflex" unicode="&#x135;" horiz-adv-x="399" 
d="M279 -43q0 -228 -75 -326t-214 -98q-50 0 -127 31l28 139q50 -20 93 -20q75 0 107 66t32 196v1173h156v-1161zM496 1384l-70 -94l-221 166l-225 -164l-72 92l295 232z" />
    <glyph glyph-name="Kcommaaccent" unicode="&#x136;" horiz-adv-x="923" 
d="M578 -123l-48 -379h-118l24 379h142zM950 0h-200l-353 610l-69 135v48l69 122l336 533h189l-441 -672zM311 0h-161v1448h161v-1448z" />
    <glyph glyph-name="kcommaaccent" unicode="&#x137;" horiz-adv-x="815" 
d="M508 -123l-47 -379h-119l25 379h141zM815 106l-45 -124q-77 7 -143.5 58.5t-132.5 174.5l-166 295l-41 80l47 100l276 428h178l-344 -524l162 -277q91 -153 209 -211zM279 0h-156v1544h156v-1544z" />
    <glyph glyph-name="Lacute" unicode="&#x139;" horiz-adv-x="761" 
d="M522 1655l-358 -131l-43 100l348 172zM756 0h-606v1448h161v-1298h445v-150z" />
    <glyph glyph-name="lacute" unicode="&#x13a;" horiz-adv-x="401" 
d="M455 1737l-359 -131l-43 100l348 172zM279 0h-156v1544h156v-1544z" />
    <glyph glyph-name="Lcommaaccent" unicode="&#x13b;" horiz-adv-x="761" 
d="M530 -123l-47 -379h-118l24 379h141zM756 0h-606v1448h161v-1298h445v-150z" />
    <glyph glyph-name="lcommaaccent" unicode="&#x13c;" horiz-adv-x="401" 
d="M270 -123l-47 -379h-119l25 379h141zM279 0h-156v1544h156v-1544z" />
    <glyph glyph-name="Lcaron" unicode="&#x13d;" horiz-adv-x="761" 
d="M578 1597l-48 -378h-118l24 378h142zM756 0h-606v1448h161v-1298h445v-150z" />
    <glyph glyph-name="lcaron" unicode="&#x13e;" horiz-adv-x="489" 
d="M532 1546l-47 -379h-118l24 379h141zM279 0h-156v1544h156v-1544z" />
    <glyph glyph-name="Ldot" unicode="&#x13f;" horiz-adv-x="759" 
d="M756 0h-606v1448h161v-1298h445v-150zM711 729l-111 -111l-111 111l111 109z" />
    <glyph glyph-name="ldot" unicode="&#x140;" horiz-adv-x="581" 
d="M279 0h-156v1544h156v-1544zM602 727l-110 -111l-111 111l111 109z" />
    <glyph glyph-name="Lslash" unicode="&#x141;" horiz-adv-x="761" 
d="M756 0h-606v612l-101 -80v152l101 80v684h161v-561l185 145v-151l-185 -146v-585h445v-150z" />
    <glyph glyph-name="lslash" unicode="&#x142;" horiz-adv-x="401" 
d="M391 866l-112 -88v-778h-156v655l-111 -86v154l111 86v735h156v-614l112 88v-152z" />
    <glyph glyph-name="Nacute" unicode="&#x143;" horiz-adv-x="1155" 
d="M836 1655l-359 -131l-43 100l348 172zM1004 0h-189l-512 1153h-8l16 -231v-922h-161v1448h186l514 -1172h8l-14 242v930h160v-1448z" />
    <glyph glyph-name="nacute" unicode="&#x144;" horiz-adv-x="915" 
d="M713 1522l-320 -260l-78 92l303 282zM801 0h-156v707q0 61 -2.5 100t-10.5 77t-23.5 59t-42 33.5t-64.5 12.5q-78 0 -223 -123v-866h-156v1118h156v-123q5 8 26 29.5t55.5 49.5t83 48.5t95.5 20.5q52 0 93.5 -15t68.5 -37.5t46.5 -59t29.5 -70t16 -81t7 -80t1 -79.5v-721
z" />
    <glyph glyph-name="Ncommaaccent" unicode="&#x145;" horiz-adv-x="1155" 
d="M659 -123l-47 -379h-118l24 379h141zM1004 0h-189l-512 1153h-8l16 -231v-922h-161v1448h186l514 -1172h8l-14 242v930h160v-1448z" />
    <glyph glyph-name="ncommaaccent" unicode="&#x146;" horiz-adv-x="915" 
d="M535 -123l-48 -379h-118l24 379h142zM801 0h-156v707q0 61 -2.5 100t-10.5 77t-23.5 59t-42 33.5t-64.5 12.5q-78 0 -223 -123v-866h-156v1118h156v-123q5 8 26 29.5t55.5 49.5t83 48.5t95.5 20.5q52 0 93.5 -15t68.5 -37.5t46.5 -59t29.5 -70t16 -81t7 -80t1 -79.5v-721
z" />
    <glyph glyph-name="Ncaron" unicode="&#x147;" horiz-adv-x="1155" 
d="M870 1686l-297 -185l-292 182l55 97l237 -131l240 129zM1004 0h-189l-512 1153h-8l16 -231v-922h-161v1448h186l514 -1172h8l-14 242v930h160v-1448z" />
    <glyph glyph-name="ncaron" unicode="&#x148;" horiz-adv-x="915" 
d="M754 1507l-303 -235l-285 229l76 98l215 -165l223 163zM801 0h-156v707q0 61 -2.5 100t-10.5 77t-23.5 59t-42 33.5t-64.5 12.5q-78 0 -223 -123v-866h-156v1118h156v-123q5 8 26 29.5t55.5 49.5t83 48.5t95.5 20.5q52 0 93.5 -15t68.5 -37.5t46.5 -59t29.5 -70t16 -81
t7 -80t1 -79.5v-721z" />
    <glyph glyph-name="napostrophe" unicode="&#x149;" horiz-adv-x="933" 
d="M100 1430q0 -135 -63 -300h-129q45 148 45 246v160h147v-106zM819 0h-155v707q0 61 -2.5 100t-11 77t-24 59t-42 33.5t-64.5 12.5q-78 0 -223 -123v-866h-156v1118h156v-123q5 8 26 29.5t55.5 49.5t83 48.5t95.5 20.5q52 0 93.5 -15t68.5 -37.5t46.5 -59t29.5 -70t16 -81
t7 -80t1 -79.5v-721z" />
    <glyph glyph-name="Eng" unicode="&#x14a;" horiz-adv-x="1155" 
d="M1004 -43q0 -228 -75 -326t-214 -98q-49 0 -127 31l28 139q50 -20 93 -20q75 0 105 65t30 197v55h-33l-506 1151h-8l14 -227v-924h-161v1448h186l514 -1167h8l-16 243v924h162v-1491z" />
    <glyph glyph-name="eng" unicode="&#x14b;" horiz-adv-x="915" 
d="M801 -43q0 -228 -75 -326t-214 -98q-48 0 -129 31l31 139q50 -20 92 -20q75 0 107 66t32 196v764q0 60 -2.5 99t-10.5 76.5t-23.5 58.5t-42 33.5t-64.5 12.5q-14 0 -31 -4.5t-31.5 -10t-33.5 -16t-30.5 -18t-30 -21t-26 -19t-23.5 -18.5t-17 -14v-868h-156v1118h156v-121
q5 8 26 29.5t55.5 49.5t83 48.5t95.5 20.5q52 0 93.5 -15t68.5 -37.5t46.5 -59t29.5 -70t16 -81t7 -80t1 -79.5v-766z" />
    <glyph glyph-name="Omacron" unicode="&#x14c;" horiz-adv-x="1208" 
d="M840 1569h-475v127h475v-127zM1139 723q0 -222 -64.5 -390.5t-189.5 -263t-295 -94.5q-166 0 -284.5 94.5t-178 262.5t-59.5 395q0 340 150 540.5t400 200.5q128 0 228.5 -57.5t164 -159t96 -235.5t32.5 -293zM973 725q0 270 -99 436t-274 166q-118 0 -202 -78.5
t-124.5 -211.5t-40.5 -308q0 -173 40 -308.5t124 -218.5t201 -83q124 0 210 80t125.5 214t39.5 312z" />
    <glyph glyph-name="omacron" unicode="&#x14d;" horiz-adv-x="888" 
d="M682 1368h-475v133h475v-133zM823 559q0 -279 -104.5 -428t-278.5 -149q-179 0 -275.5 148t-96.5 417q0 280 104 438t279 158q187 0 279.5 -152.5t92.5 -431.5zM668 559q0 66 -6 125.5t-22 119t-40.5 103t-64.5 70.5t-91 27q-59 0 -104 -39.5t-69.5 -106.5t-36 -142.5
t-11.5 -158.5q0 -89 12.5 -164.5t38 -137t70.5 -97t105 -35.5q61 0 105.5 36.5t68.5 100.5t34.5 137.5t10.5 161.5z" />
    <glyph glyph-name="Obreve" unicode="&#x14e;" horiz-adv-x="1208" 
d="M1139 723q0 -222 -64.5 -390.5t-189.5 -263t-295 -94.5q-166 0 -284.5 94.5t-178 262.5t-59.5 395q0 340 150 540.5t400 200.5q128 0 228.5 -57.5t164 -159t96 -235.5t32.5 -293zM973 725q0 270 -99 436t-274 166q-118 0 -202 -78.5t-124.5 -211.5t-40.5 -308
q0 -173 40 -308.5t124 -218.5t201 -83q124 0 210 80t125.5 214t39.5 312zM868 1681q-31 -51 -104.5 -100t-167.5 -49q-86 0 -154.5 43t-111.5 104l82 82q90 -98 186 -98q104 0 188 92z" />
    <glyph glyph-name="obreve" unicode="&#x14f;" horiz-adv-x="888" 
d="M823 559q0 -279 -104.5 -428t-278.5 -149q-179 0 -275.5 148t-96.5 417q0 280 104 438t279 158q187 0 279.5 -152.5t92.5 -431.5zM668 559q0 66 -6 125.5t-22 119t-40.5 103t-64.5 70.5t-91 27q-59 0 -104 -39.5t-69.5 -106.5t-36 -142.5t-11.5 -158.5q0 -89 12.5 -164.5
t38 -137t70.5 -97t105 -35.5q61 0 105.5 36.5t68.5 100.5t34.5 137.5t10.5 161.5zM723 1479q-34 -53 -108.5 -102.5t-170.5 -49.5q-88 0 -158.5 44t-113.5 106l82 86q93 -101 192 -101q108 0 195 94z" />
    <glyph glyph-name="Ohungarumlaut" unicode="&#x150;" horiz-adv-x="1208" 
d="M1096 1638l-344 -131l-41 101l331 166zM717 1763l-277 -245l-73 77l249 275zM1139 723q0 -222 -64.5 -390.5t-189.5 -263t-295 -94.5q-166 0 -284.5 94.5t-178 262.5t-59.5 395q0 340 150 540.5t400 200.5q128 0 228.5 -57.5t164 -159t96 -235.5t32.5 -293zM973 725
q0 270 -99 436t-274 166q-118 0 -202 -78.5t-124.5 -211.5t-40.5 -308q0 -173 40 -308.5t124 -218.5t201 -83q124 0 210 80t125.5 214t39.5 312z" />
    <glyph glyph-name="ohungarumlaut" unicode="&#x151;" horiz-adv-x="888" 
d="M907 1497l-340 -248l-65 94l325 269zM549 1561l-295 -301l-84 77l279 316zM823 559q0 -279 -104.5 -428t-278.5 -149q-179 0 -275.5 148t-96.5 417q0 280 104 438t279 158q187 0 279.5 -152.5t92.5 -431.5zM668 559q0 66 -6 125.5t-22 119t-40.5 103t-64.5 70.5t-91 27
q-59 0 -104 -39.5t-69.5 -106.5t-36 -142.5t-11.5 -158.5q0 -89 12.5 -164.5t38 -137t70.5 -97t105 -35.5q61 0 105.5 36.5t68.5 100.5t34.5 137.5t10.5 161.5z" />
    <glyph glyph-name="OE" unicode="&#x152;" horiz-adv-x="1585" 
d="M1528 0h-649v106q-112 -131 -299 -131q-158 0 -275 97t-177 266t-60 389q0 338 150 539.5t390 201.5q164 0 271 -122v102h616v-141h-457v-510h424v-140h-424v-512h490v-145zM879 287v868q-100 168 -275 168q-119 0 -205.5 -78.5t-129 -211.5t-42.5 -304
q0 -169 40.5 -304.5t125 -219.5t201.5 -84q180 0 285 166z" />
    <glyph glyph-name="oe" unicode="&#x153;" horiz-adv-x="1400" 
d="M1346 524h-525q0 -115 18.5 -193.5t56.5 -121.5t85.5 -60.5t114.5 -17.5q84 0 211 43l26 -137q-45 -28 -124 -41.5t-148 -13.5q-241 0 -324 208q-47 -101 -123 -154.5t-174 -53.5q-182 0 -277 151t-95 414q0 274 101.5 435t281.5 161q210 0 294 -215q49 112 120 164.5
t173 52.5q308 0 308 -557v-64zM1184 655q0 164 -41 260.5t-123 96.5q-84 0 -135 -94t-62 -263h361zM668 559q0 66 -6 125.5t-22 119t-40.5 103t-64.5 70.5t-91 27q-59 0 -104 -39.5t-69.5 -106.5t-36 -142.5t-11.5 -158.5q0 -89 12.5 -164.5t38 -137t70.5 -97t105 -35.5
q61 0 105.5 36.5t68.5 100.5t34.5 137.5t10.5 161.5z" />
    <glyph glyph-name="Racute" unicode="&#x154;" horiz-adv-x="1036" 
d="M729 1655l-358 -131l-43 100l348 172zM1030 109l-31 -132q-33 2 -68 13t-76.5 35t-82.5 70.5t-72 109.5l-182 373q-42 -9 -127 -9h-82v-569h-159v1448h352q164 0 260 -109.5t96 -324.5q0 -128 -48 -231t-144 -158l159 -308q38 -73 85.5 -123t119.5 -85zM690 1004
q0 299 -219 299h-162v-592h127q254 0 254 293z" />
    <glyph glyph-name="racute" unicode="&#x155;" horiz-adv-x="579" 
d="M641 1522l-319 -260l-78 92l303 282zM596 1118l-21 -147q-43 18 -110 18q-57 0 -107 -47t-79 -113v-829h-156v1118h156v-131h6q80 152 196 152q68 0 115 -21z" />
    <glyph glyph-name="Rcommaaccent" unicode="&#x156;" horiz-adv-x="1036" 
d="M604 -123l-47 -379h-119l25 379h141zM1030 109l-31 -132q-33 2 -68 13t-76.5 35t-82.5 70.5t-72 109.5l-182 373q-42 -9 -127 -9h-82v-569h-159v1448h352q164 0 260 -109.5t96 -324.5q0 -128 -48 -231t-144 -158l159 -308q38 -73 85.5 -123t119.5 -85zM690 1004
q0 299 -219 299h-162v-592h127q254 0 254 293z" />
    <glyph glyph-name="rcommaaccent" unicode="&#x157;" horiz-adv-x="579" 
d="M268 -123l-47 -379h-119l25 379h141zM596 1118l-21 -147q-43 18 -110 18q-57 0 -107 -47t-79 -113v-829h-156v1118h156v-131h6q80 152 196 152q68 0 115 -21z" />
    <glyph glyph-name="Rcaron" unicode="&#x158;" horiz-adv-x="1036" 
d="M741 1686l-297 -185l-292 182l55 97l237 -131l240 129zM1030 109l-31 -132q-33 2 -68 13t-76.5 35t-82.5 70.5t-72 109.5l-182 373q-42 -9 -127 -9h-82v-569h-159v1448h352q164 0 260 -109.5t96 -324.5q0 -128 -48 -231t-144 -158l159 -308q38 -73 85.5 -123t119.5 -85z
M690 1004q0 299 -219 299h-162v-592h127q254 0 254 293z" />
    <glyph glyph-name="rcaron" unicode="&#x159;" horiz-adv-x="579" 
d="M639 1507l-303 -235l-285 229l76 98l215 -165l223 163zM596 1118l-21 -147q-43 18 -110 18q-57 0 -107 -47t-79 -113v-829h-156v1118h156v-131h6q80 152 196 152q68 0 115 -21z" />
    <glyph glyph-name="Sacute" unicode="&#x15a;" horiz-adv-x="819" 
d="M684 1655l-358 -131l-43 100l348 172zM764 379q0 -98 -33 -175.5t-89.5 -125t-126.5 -72t-148 -24.5q-100 0 -172 25.5t-142 76.5l64 127q131 -82 248 -82q103 0 168 60.5t65 179.5q0 60 -27.5 112t-71.5 91.5t-97 78.5t-106 82t-97 92.5t-71.5 119.5t-27.5 153
q0 164 100 261t246 97q140 0 265 -67l-49 -127q-106 49 -209 49q-90 0 -140.5 -54.5t-50.5 -154.5q0 -57 27.5 -108.5t72 -91.5t98 -80t107 -84t98 -93t72 -117.5t27.5 -148.5z" />
    <glyph glyph-name="sacute" unicode="&#x15b;" horiz-adv-x="690" 
d="M623 1522l-320 -260l-78 92l303 282zM639 309q0 -82 -29 -146t-77.5 -102t-105 -57.5t-116.5 -19.5q-141 0 -252 49l23 139q129 -47 219 -47q78 0 131 47t53 119q0 45 -22 83.5t-58 67.5t-79 57.5t-85.5 61.5t-78.5 70.5t-58 92t-22 120.5q0 144 82.5 219.5t218.5 75.5
q97 0 209 -47l-25 -134q-105 43 -198 43q-63 0 -99.5 -39t-36.5 -102q0 -45 22.5 -83.5t58 -68t79 -59t87 -62.5t79 -70t58 -90.5t22.5 -117.5z" />
    <glyph glyph-name="Scircumflex" unicode="&#x15c;" horiz-adv-x="819" 
d="M127 1602l297 182l293 -182l-55 -95l-238 131l-238 -129zM764 379q0 -98 -33 -175.5t-89.5 -125t-126.5 -72t-148 -24.5q-100 0 -172 25.5t-142 76.5l64 127q131 -82 248 -82q103 0 168 60.5t65 179.5q0 60 -27.5 112t-71.5 91.5t-97 78.5t-106 82t-97 92.5t-71.5 119.5
t-27.5 153q0 164 100 261t246 97q140 0 265 -67l-49 -127q-106 49 -209 49q-90 0 -140.5 -54.5t-50.5 -154.5q0 -57 27.5 -108.5t72 -91.5t98 -80t107 -84t98 -93t72 -117.5t27.5 -148.5z" />
    <glyph glyph-name="scircumflex" unicode="&#x15d;" horiz-adv-x="690" 
d="M655 1384l-69 -94l-221 166l-226 -164l-71 92l294 232zM639 309q0 -82 -29 -146t-77.5 -102t-105 -57.5t-116.5 -19.5q-141 0 -252 49l23 139q129 -47 219 -47q78 0 131 47t53 119q0 45 -22 83.5t-58 67.5t-79 57.5t-85.5 61.5t-78.5 70.5t-58 92t-22 120.5
q0 144 82.5 219.5t218.5 75.5q97 0 209 -47l-25 -134q-105 43 -198 43q-63 0 -99.5 -39t-36.5 -102q0 -45 22.5 -83.5t58 -68t79 -59t87 -62.5t79 -70t58 -90.5t22.5 -117.5z" />
    <glyph glyph-name="Scedilla" unicode="&#x15e;" horiz-adv-x="819" 
d="M764 379q0 -98 -33 -175.5t-89.5 -125t-126.5 -72t-148 -24.5q-100 0 -172 25.5t-142 76.5l64 127q131 -82 248 -82q103 0 168 60.5t65 179.5q0 60 -27.5 112t-71.5 91.5t-97 78.5t-106 82t-97 92.5t-71.5 119.5t-27.5 153q0 164 100 261t246 97q140 0 265 -67l-49 -127
q-106 49 -209 49q-90 0 -140.5 -54.5t-50.5 -154.5q0 -57 27.5 -108.5t72 -91.5t98 -80t107 -84t98 -93t72 -117.5t27.5 -148.5zM504 -260q0 -74 -60 -138.5t-159 -113.5l-64 117q135 76 135 145q0 54 -47 146h148q47 -83 47 -156z" />
    <glyph glyph-name="scedilla" unicode="&#x15f;" horiz-adv-x="690" 
d="M639 309q0 -82 -29 -146t-77.5 -102t-105 -57.5t-116.5 -19.5q-141 0 -252 49l23 139q129 -47 219 -47q78 0 131 47t53 119q0 45 -22 83.5t-58 67.5t-79 57.5t-85.5 61.5t-78.5 70.5t-58 92t-22 120.5q0 144 82.5 219.5t218.5 75.5q97 0 209 -47l-25 -134
q-105 43 -198 43q-63 0 -99.5 -39t-36.5 -102q0 -45 22.5 -83.5t58 -68t79 -59t87 -62.5t79 -70t58 -90.5t22.5 -117.5zM451 -260q0 -74 -60 -138.5t-160 -113.5l-63 117q135 76 135 145q0 54 -47 146h147q48 -84 48 -156z" />
    <glyph glyph-name="Scaron" unicode="&#x160;" horiz-adv-x="819" 
d="M713 1686l-297 -185l-293 182l55 97l238 -131l239 129zM764 379q0 -98 -33 -175.5t-89.5 -125t-126.5 -72t-148 -24.5q-100 0 -172 25.5t-142 76.5l64 127q131 -82 248 -82q103 0 168 60.5t65 179.5q0 60 -27.5 112t-71.5 91.5t-97 78.5t-106 82t-97 92.5t-71.5 119.5
t-27.5 153q0 164 100 261t246 97q140 0 265 -67l-49 -127q-106 49 -209 49q-90 0 -140.5 -54.5t-50.5 -154.5q0 -57 27.5 -108.5t72 -91.5t98 -80t107 -84t98 -93t72 -117.5t27.5 -148.5z" />
    <glyph glyph-name="scaron" unicode="&#x161;" horiz-adv-x="690" 
d="M655 1507l-303 -235l-284 229l75 98l215 -165l224 163zM639 309q0 -82 -29 -146t-77.5 -102t-105 -57.5t-116.5 -19.5q-141 0 -252 49l23 139q129 -47 219 -47q78 0 131 47t53 119q0 45 -22 83.5t-58 67.5t-79 57.5t-85.5 61.5t-78.5 70.5t-58 92t-22 120.5
q0 144 82.5 219.5t218.5 75.5q97 0 209 -47l-25 -134q-105 43 -198 43q-63 0 -99.5 -39t-36.5 -102q0 -45 22.5 -83.5t58 -68t79 -59t87 -62.5t79 -70t58 -90.5t22.5 -117.5z" />
    <glyph glyph-name="Tcommaaccent" unicode="&#x162;" horiz-adv-x="839" 
d="M489 -123l-47 -379h-118l24 379h141zM852 1300h-350v-1300h-162v1300h-352v148h864v-148z" />
    <glyph glyph-name="tcommaaccent" unicode="&#x163;" horiz-adv-x="618" 
d="M459 -123l-47 -379h-119l24 379h142zM606 27q-88 -39 -166 -39q-62 0 -101.5 5.5t-78 25t-59.5 55t-34 96.5t-13 149v662h-119v137h119v230h151v-230h248v-137h-248v-670q0 -105 29.5 -143.5t105.5 -38.5q80 0 144 31z" />
    <glyph glyph-name="Tcaron" unicode="&#x164;" horiz-adv-x="839" 
d="M711 1686l-297 -185l-293 182l55 97l238 -131l239 129zM852 1300h-350v-1300h-162v1300h-352v148h864v-148z" />
    <glyph glyph-name="tcaron" unicode="&#x165;" horiz-adv-x="618" 
d="M592 1694l-47 -379h-119l25 379h141zM606 27q-88 -39 -166 -39q-62 0 -101.5 5.5t-78 25t-59.5 55t-34 96.5t-13 149v662h-119v137h119v230h151v-230h248v-137h-248v-670q0 -105 29.5 -143.5t105.5 -38.5q80 0 144 31z" />
    <glyph glyph-name="Tbar" unicode="&#x166;" horiz-adv-x="839" 
d="M852 1300h-350v-516h229v-120h-229v-664h-162v664h-223v120h223v516h-352v148h864v-148z" />
    <glyph glyph-name="tbar" unicode="&#x167;" horiz-adv-x="618" 
d="M606 27q-88 -39 -166 -39q-62 0 -101.5 5.5t-78 25t-59.5 55t-34 96.5t-13 149v267h-119v121h119v274h-119v137h119v230h151v-230h248v-137h-248v-274h225v-121h-225v-275q0 -105 29.5 -143.5t105.5 -38.5q80 0 144 31z" />
    <glyph glyph-name="Utilde" unicode="&#x168;" horiz-adv-x="1134" 
d="M999 553q0 -134 -26 -237.5t-67.5 -167t-99 -104t-115 -56t-120.5 -15.5q-68 0 -127.5 14t-117.5 51t-99 94.5t-66.5 151.5t-25.5 216v948h164v-950q0 -108 22.5 -184.5t62.5 -117t86 -58t101 -17.5q56 0 102.5 20.5t86.5 67t62 132t22 204.5v903h155v-895zM860 1653
q-65 -92 -164 -92q-43 0 -118 22.5t-113 22.5q-34 0 -57 -9t-56 -32l-61 80q43 43 87 64.5t103 21.5q46 0 113 -22.5t94 -22.5q16 0 30 3t26.5 9.5t18.5 11t18 14t14 11.5z" />
    <glyph glyph-name="utilde" unicode="&#x169;" horiz-adv-x="915" 
d="M801 0h-158v129q-3 -6 -16.5 -21.5t-39 -38t-55.5 -43t-69.5 -35t-77.5 -14.5q-52 0 -93.5 14.5t-68.5 37t-46.5 59t-29.5 69.5t-16 80.5t-7 80t-1 79.5v721h153v-710q0 -152 28 -217.5t118 -65.5q52 0 116.5 43.5t104.5 85.5v864h158v-1118zM752 1456q-22 -28 -41.5 -47
t-56 -36t-79.5 -17q-42 0 -114 26.5t-107 26.5q-37 0 -60 -8.5t-56 -34.5l-62 84q42 44 87.5 67t107.5 23q47 0 110 -25.5t88 -25.5q22 0 41.5 5.5t29.5 11t25.5 17t18.5 13.5z" />
    <glyph glyph-name="Umacron" unicode="&#x16a;" horiz-adv-x="1134" 
d="M999 553q0 -134 -26 -237.5t-67.5 -167t-99 -104t-115 -56t-120.5 -15.5q-68 0 -127.5 14t-117.5 51t-99 94.5t-66.5 151.5t-25.5 216v948h164v-950q0 -108 22.5 -184.5t62.5 -117t86 -58t101 -17.5q56 0 102.5 20.5t86.5 67t62 132t22 204.5v903h155v-895zM815 1569
h-475v127h475v-127z" />
    <glyph glyph-name="umacron" unicode="&#x16b;" horiz-adv-x="915" 
d="M801 0h-158v129q-3 -6 -16.5 -21.5t-39 -38t-55.5 -43t-69.5 -35t-77.5 -14.5q-52 0 -93.5 14.5t-68.5 37t-46.5 59t-29.5 69.5t-16 80.5t-7 80t-1 79.5v721h153v-710q0 -152 28 -217.5t118 -65.5q52 0 116.5 43.5t104.5 85.5v864h158v-1118zM698 1378h-475v133h475v-133
z" />
    <glyph glyph-name="Ubreve" unicode="&#x16c;" horiz-adv-x="1134" 
d="M999 553q0 -134 -26 -237.5t-67.5 -167t-99 -104t-115 -56t-120.5 -15.5q-68 0 -127.5 14t-117.5 51t-99 94.5t-66.5 151.5t-25.5 216v948h164v-950q0 -108 22.5 -184.5t62.5 -117t86 -58t101 -17.5q56 0 102.5 20.5t86.5 67t62 132t22 204.5v903h155v-895zM834 1681
q-31 -51 -105 -100t-168 -49q-86 0 -154.5 43t-111.5 104l82 82q90 -98 186 -98q105 0 189 92z" />
    <glyph glyph-name="ubreve" unicode="&#x16d;" horiz-adv-x="915" 
d="M801 0h-158v129q-3 -6 -16.5 -21.5t-39 -38t-55.5 -43t-69.5 -35t-77.5 -14.5q-52 0 -93.5 14.5t-68.5 37t-46.5 59t-29.5 69.5t-16 80.5t-7 80t-1 79.5v721h153v-710q0 -152 28 -217.5t118 -65.5q52 0 116.5 43.5t104.5 85.5v864h158v-1118zM741 1479
q-34 -53 -108 -102.5t-170 -49.5q-89 0 -159.5 44t-113.5 106l82 86q93 -101 193 -101q107 0 194 94z" />
    <glyph glyph-name="Uring" unicode="&#x16e;" horiz-adv-x="1134" 
d="M762 1669q0 -81 -54 -128.5t-135 -47.5q-82 0 -138 44t-56 128t56 133t134 49q73 0 133 -45.5t60 -132.5zM668 1667q0 39 -30 66.5t-69 27.5q-41 0 -67.5 -25t-26.5 -65q0 -41 27.5 -68.5t68.5 -27.5t69 26t28 66zM999 553q0 -134 -26 -237.5t-67.5 -167t-99 -104
t-115 -56t-120.5 -15.5q-68 0 -127.5 14t-117.5 51t-99 94.5t-66.5 151.5t-25.5 216v948h164v-950q0 -108 22.5 -184.5t62.5 -117t86 -58t101 -17.5q56 0 102.5 20.5t86.5 67t62 132t22 204.5v903h155v-895z" />
    <glyph glyph-name="uring" unicode="&#x16f;" horiz-adv-x="915" 
d="M659 1436q0 -81 -53.5 -128.5t-134.5 -47.5q-82 0 -138.5 44t-56.5 128t56.5 133t134.5 49q73 0 132.5 -45.5t59.5 -132.5zM565 1434q0 39 -29.5 66.5t-68.5 27.5q-41 0 -67.5 -25t-26.5 -65q0 -41 27.5 -69t68.5 -28t68.5 26.5t27.5 66.5zM801 0h-158v129
q-3 -6 -16.5 -21.5t-39 -38t-55.5 -43t-69.5 -35t-77.5 -14.5q-52 0 -93.5 14.5t-68.5 37t-46.5 59t-29.5 69.5t-16 80.5t-7 80t-1 79.5v721h153v-710q0 -152 28 -217.5t118 -65.5q52 0 116.5 43.5t104.5 85.5v864h158v-1118z" />
    <glyph glyph-name="Uhungarumlaut" unicode="&#x170;" horiz-adv-x="1134" 
d="M999 553q0 -134 -26 -237.5t-67.5 -167t-99 -104t-115 -56t-120.5 -15.5q-68 0 -127.5 14t-117.5 51t-99 94.5t-66.5 151.5t-25.5 216v948h164v-950q0 -108 22.5 -184.5t62.5 -117t86 -58t101 -17.5q56 0 102.5 20.5t86.5 67t62 132t22 204.5v903h155v-895zM1024 1638
l-344 -131l-41 101l332 166zM645 1763l-276 -245l-74 77l250 275z" />
    <glyph glyph-name="uhungarumlaut" unicode="&#x171;" horiz-adv-x="915" 
d="M801 0h-158v129q-3 -6 -16.5 -21.5t-39 -38t-55.5 -43t-69.5 -35t-77.5 -14.5q-52 0 -93.5 14.5t-68.5 37t-46.5 59t-29.5 69.5t-16 80.5t-7 80t-1 79.5v721h153v-710q0 -152 28 -217.5t118 -65.5q52 0 116.5 43.5t104.5 85.5v864h158v-1118zM950 1497l-340 -248l-65 94
l325 269zM592 1561l-295 -301l-84 77l279 316z" />
    <glyph glyph-name="Uogonek" unicode="&#x172;" horiz-adv-x="1134" 
d="M690 -313l31 -111q-59 -35 -158 -35q-120 0 -173.5 55t-53.5 146q0 126 156 238q-58 8 -108 28t-97 60t-79.5 96.5t-52.5 142.5t-20 193v948h164v-950q0 -108 22.5 -184.5t62.5 -117t86 -58t101 -17.5q56 0 102.5 20.5t86.5 67t62 132t22 204.5v903h155v-895
q0 -126 -22 -225t-61.5 -163t-87 -104t-105.5 -61q-234 -132 -234 -231q0 -52 28.5 -75.5t86.5 -23.5q40 0 86 17z" />
    <glyph glyph-name="uogonek" unicode="&#x173;" horiz-adv-x="915" 
d="M801 1118v-1118q-27 -13 -61 -34t-76 -53t-69.5 -70.5t-27.5 -73.5q0 -52 28.5 -75.5t86.5 -23.5q42 0 84 17l31 -111q-59 -35 -156 -35q-120 0 -173.5 55t-53.5 146q0 132 186 242q8 6 24.5 14.5t18.5 9.5v121q-3 -6 -16.5 -21.5t-39 -38t-55.5 -43t-69.5 -35
t-77.5 -14.5q-52 0 -93.5 14.5t-68.5 37t-46.5 58.5t-29.5 69t-16 80t-7 79.5t-1 79.5v723h153v-712q0 -150 28 -215.5t118 -65.5q52 0 116.5 43.5t104.5 85.5v864h158z" />
    <glyph glyph-name="Wcircumflex" unicode="&#x174;" horiz-adv-x="1484" 
d="M440 1597l297 183l293 -183l-55 -94l-238 131l-237 -129zM1489 1448l-348 -1448h-207l-168 692l-29 162h-6l-37 -160l-196 -694h-207l-293 1448h166l209 -1086l28 -210h7l43 206l211 725l-93 365h166l262 -1090l37 -204h6l35 208l256 1086h158z" />
    <glyph glyph-name="wcircumflex" unicode="&#x175;" horiz-adv-x="1288" 
d="M946 1384l-69 -94l-222 166l-225 -164l-72 92l295 232zM1284 1118l-283 -1118h-190l-141 748l-23 174h-10l-25 -177l-161 -745h-187l-256 1118h162l164 -784l20 -172h13l20 172l168 784h182l150 -776l20 -178h13l22 170l184 784h158z" />
    <glyph glyph-name="Ycircumflex" unicode="&#x176;" horiz-adv-x="841" 
d="M858 1448l-366 -899v-549h-160v551l-348 897h180l190 -539l58 -188h8l57 186l207 541h174zM125 1597l297 183l293 -183l-56 -94l-237 131l-238 -129z" />
    <glyph glyph-name="ycircumflex" unicode="&#x177;" horiz-adv-x="763" 
d="M762 1118l-400 -1569h-155l108 451h-43l-266 1118h166l174 -794l23 -179h12l25 177l194 796h162zM680 1384l-70 -94l-221 166l-225 -164l-72 92l295 232z" />
    <glyph glyph-name="Ydieresis" unicode="&#x178;" horiz-adv-x="841" 
d="M858 1448l-366 -899v-549h-160v551l-348 897h180l190 -539l58 -188h8l57 186l207 541h174zM684 1636l-111 -112l-110 112l110 109zM371 1636l-111 -112l-108 112l108 109z" />
    <glyph glyph-name="Zacute" unicode="&#x179;" horiz-adv-x="806" 
d="M629 1655l-359 -131l-43 100l348 172zM780 0h-751v158l540 1136h-503v154h684v-145l-545 -1149h575v-154z" />
    <glyph glyph-name="zacute" unicode="&#x17a;" horiz-adv-x="735" 
d="M606 1522l-319 -260l-78 92l303 282zM694 0h-649v160l469 811h-432v147h606v-151l-471 -820h477v-147z" />
    <glyph glyph-name="Zdotaccent" unicode="&#x17b;" horiz-adv-x="806" 
d="M780 0h-751v158l540 1136h-503v154h684v-145l-545 -1149h575v-154zM520 1642l-110 -112l-111 112l111 109z" />
    <glyph glyph-name="zdotaccent" unicode="&#x17c;" horiz-adv-x="735" 
d="M694 0h-649v160l469 811h-432v147h606v-151l-471 -820h477v-147zM502 1464l-123 -123l-119 123l119 121z" />
    <glyph glyph-name="Zcaron" unicode="&#x17d;" horiz-adv-x="806" 
d="M709 1686l-297 -185l-293 182l55 97l238 -131l239 129zM780 0h-751v158l540 1136h-503v154h684v-145l-545 -1149h575v-154z" />
    <glyph glyph-name="zcaron" unicode="&#x17e;" horiz-adv-x="735" 
d="M686 1507l-303 -235l-285 229l76 98l215 -165l223 163zM694 0h-649v160l469 811h-432v147h606v-151l-471 -820h477v-147z" />
    <glyph glyph-name="uni018F" unicode="&#x18f;" horiz-adv-x="1210" 
d="M584 -25q-130 0 -227 50.5t-157 145.5t-90.5 221.5t-33.5 287.5v115h882q-6 119 -30.5 213.5t-69 168t-115.5 113t-165 39.5q-190 0 -400 -137l-43 125q88 63 208 107t255 44q175 0 293 -92t173.5 -256.5t55.5 -396.5q0 -169 -31.5 -304t-95.5 -235.5t-167.5 -154.5
t-241.5 -54zM590 115q101 0 172.5 40.5t112 118t59.5 171t24 219.5h-725q5 -96 17.5 -173.5t39 -149.5t65 -120t98.5 -77t137 -29z" />
    <glyph glyph-name="florin" unicode="&#x192;" horiz-adv-x="698" 
d="M684 1018q-51 -5 -73.5 -7.5t-61.5 -12.5t-60 -25q-67 -51 -67 -232v-86h168v-139h-174v-149q0 -78 -13.5 -140.5t-35.5 -105t-55.5 -73.5t-67.5 -48t-78.5 -27t-80.5 -13t-81 -3l-8 139q119 10 159 24q24 9 40 21q67 50 67 228v147h-153v139h159v84q0 89 15 158
t44.5 114t65.5 75.5t85 46.5t95.5 22t104.5 6z" />
    <glyph glyph-name="uni01D3" unicode="&#x1d3;" horiz-adv-x="1134" 
d="M864 1686l-297 -185l-293 182l56 97l237 -131l240 129zM999 553q0 -134 -26 -237.5t-67.5 -167t-99 -104t-115 -56t-120.5 -15.5q-68 0 -127.5 14t-117.5 51t-99 94.5t-66.5 151.5t-25.5 216v948h164v-950q0 -108 22.5 -184.5t62.5 -117t86 -58t101 -17.5
q56 0 102.5 20.5t86.5 67t62 132t22 204.5v903h155v-895z" />
    <glyph glyph-name="uni01D4" unicode="&#x1d4;" horiz-adv-x="915" 
d="M754 1507l-303 -235l-285 229l76 98l215 -165l223 163zM801 0h-158v129q-3 -6 -16.5 -21.5t-39 -38t-55.5 -43t-69.5 -35t-77.5 -14.5q-52 0 -93.5 14.5t-68.5 37t-46.5 59t-29.5 69.5t-16 80.5t-7 80t-1 79.5v721h153v-710q0 -152 28 -217.5t118 -65.5q52 0 116.5 43.5
t104.5 85.5v864h158v-1118z" />
    <glyph glyph-name="AEmacron" unicode="&#x1e2;" horiz-adv-x="1382" 
d="M1325 0h-649v541h-334l-180 -541h-162l485 1448h807v-141h-454v-510h422v-140h-422v-512h487v-145zM676 682v629h-88l-203 -629h291zM1094 1569h-476v127h476v-127z" />
    <glyph glyph-name="aemacron" unicode="&#x1e3;" horiz-adv-x="1271" 
d="M1206 551l-524 -27q0 -115 18.5 -193.5t56 -121.5t85 -60.5t114.5 -17.5q84 0 211 43l27 -137q-37 -22 -110 -38.5t-162 -16.5q-216 0 -314 178q-20 -25 -47.5 -51.5t-68 -56.5t-93.5 -49t-106 -19q-66 0 -116.5 27.5t-79 74.5t-42.5 103t-14 120q0 155 103 239t255 89
l133 4v166q0 109 -37.5 148.5t-146.5 39.5q-76 0 -215 -57l-27 133q51 34 131 54t144 20q206 0 264 -158q90 158 254 158q160 0 233.5 -132t73.5 -403v-59zM1044 672q0 162 -40.5 251t-122.5 89q-83 0 -134 -98t-63 -269zM565 266q-16 61 -20 94q-13 83 -13 160
q-13 -1 -44.5 -2t-48 -2t-46 -4t-46 -7t-41 -11t-39 -17t-31 -24.5t-25.5 -32.5t-15 -43t-6 -55q0 -199 129 -199q91 0 246 143zM874 1368h-475v133h475v-133z" />
    <glyph glyph-name="AEacute" unicode="&#x1fc;" horiz-adv-x="1382" 
d="M1040 1655l-358 -131l-43 100l348 172zM1325 0h-649v541h-334l-180 -541h-162l485 1448h807v-141h-454v-510h422v-140h-422v-512h487v-145zM676 682v629h-88l-203 -629h291z" />
    <glyph glyph-name="aeacute" unicode="&#x1fd;" horiz-adv-x="1271" 
d="M954 1522l-319 -260l-78 92l303 282zM1206 551l-524 -27q0 -115 18.5 -193.5t56 -121.5t85 -60.5t114.5 -17.5q84 0 211 43l27 -137q-37 -22 -110 -38.5t-162 -16.5q-216 0 -314 178q-20 -25 -47.5 -51.5t-68 -56.5t-93.5 -49t-106 -19q-66 0 -116.5 27.5t-79 74.5
t-42.5 103t-14 120q0 155 103 239t255 89l133 4v166q0 109 -37.5 148.5t-146.5 39.5q-76 0 -215 -57l-27 133q51 34 131 54t144 20q206 0 264 -158q90 158 254 158q160 0 233.5 -132t73.5 -403v-59zM1044 672q0 162 -40.5 251t-122.5 89q-83 0 -134 -98t-63 -269zM565 266
q-16 61 -20 94q-13 83 -13 160q-13 -1 -44.5 -2t-48 -2t-46 -4t-46 -7t-41 -11t-39 -17t-31 -24.5t-25.5 -32.5t-15 -43t-6 -55q0 -199 129 -199q91 0 246 143z" />
    <glyph glyph-name="Oslashacute" unicode="&#x1fe;" horiz-adv-x="1208" 
d="M1159 1395l-129 -176q109 -193 109 -496q0 -220 -64.5 -388.5t-189.5 -264t-295 -95.5q-202 0 -338 152l-107 -152l-100 76l129 185q-106 201 -106 491q0 340 150 540.5t400 200.5q205 0 336 -143l105 145zM854 1190q-99 137 -250 137q-178 0 -277.5 -165.5t-99.5 -432.5
q0 -198 58 -344zM977 725q0 201 -59 340l-570 -809q94 -137 246 -137q125 0 212.5 79t129 213.5t41.5 313.5zM860 1655l-358 -131l-43 100l348 172z" />
    <glyph glyph-name="oslashacute" unicode="&#x1ff;" horiz-adv-x="888" 
d="M864 1120l-110 -172q69 -141 69 -389q0 -279 -104.5 -428t-278.5 -149q-150 0 -239 102l-86 -135l-88 59l110 170q-69 144 -69 369q0 280 104 438t279 158q154 0 239 -101l86 136zM598 905q-59 99 -154 99q-59 0 -104 -39.5t-69.5 -106.5t-36 -142.5t-11.5 -158.5
q0 -127 25 -215zM668 559q0 117 -25 223l-352 -563q60 -96 158 -96q61 0 105.5 36.5t68.5 100.5t34.5 137.5t10.5 161.5zM707 1522l-320 -260l-78 92l303 282z" />
    <glyph glyph-name="Scommaaccent" unicode="&#x218;" horiz-adv-x="819" 
d="M461 -123l-47 -379h-119l24 379h142zM764 379q0 -98 -33 -175.5t-89.5 -125t-126.5 -72t-148 -24.5q-100 0 -172 25.5t-142 76.5l64 127q131 -82 248 -82q103 0 168 60.5t65 179.5q0 60 -27.5 112t-71.5 91.5t-97 78.5t-106 82t-97 92.5t-71.5 119.5t-27.5 153
q0 164 100 261t246 97q140 0 265 -67l-49 -127q-106 49 -209 49q-90 0 -140.5 -54.5t-50.5 -154.5q0 -57 27.5 -108.5t72 -91.5t98 -80t107 -84t98 -93t72 -117.5t27.5 -148.5z" />
    <glyph glyph-name="scommaaccent" unicode="&#x219;" horiz-adv-x="690" 
d="M416 -123l-47 -379h-119l24 379h142zM639 309q0 -82 -29 -146t-77.5 -102t-105 -57.5t-116.5 -19.5q-141 0 -252 49l23 139q129 -47 219 -47q78 0 131 47t53 119q0 45 -22 83.5t-58 67.5t-79 57.5t-85.5 61.5t-78.5 70.5t-58 92t-22 120.5q0 144 82.5 219.5t218.5 75.5
q97 0 209 -47l-25 -134q-105 43 -198 43q-63 0 -99.5 -39t-36.5 -102q0 -45 22.5 -83.5t58 -68t79 -59t87 -62.5t79 -70t58 -90.5t22.5 -117.5z" />
    <glyph glyph-name="uni021A" unicode="&#x21a;" horiz-adv-x="839" 
d="M494 -123l-48 -379h-118l24 379h142zM852 1300h-350v-1300h-162v1300h-352v148h864v-148z" />
    <glyph glyph-name="uni021B" unicode="&#x21b;" horiz-adv-x="618" 
d="M455 -123l-47 -379h-119l24 379h142zM606 27q-88 -39 -166 -39q-62 0 -101.5 5.5t-78 25t-59.5 55t-34 96.5t-13 149v662h-119v137h119v230h151v-230h248v-137h-248v-670q0 -105 29.5 -143.5t105.5 -38.5q80 0 144 31z" />
    <glyph glyph-name="Ymacron" unicode="&#x232;" horiz-adv-x="841" 
d="M858 1448l-366 -899v-549h-160v551l-348 897h180l190 -539l58 -188h8l57 186l207 541h174zM653 1569h-475v127h475v-127z" />
    <glyph glyph-name="ymacron" unicode="&#x233;" horiz-adv-x="763" 
d="M762 1118l-400 -1569h-155l108 451h-43l-266 1118h166l174 -794l23 -179h12l25 177l194 796h162zM612 1368h-475v133h475v-133z" />
    <glyph glyph-name="schwa" unicode="&#x259;" horiz-adv-x="804" 
d="M53 598h527q0 115 -19 193.5t-57 121.5t-86 60.5t-115 17.5q-86 0 -209 -43l-28 137q38 22 110.5 39t161.5 17q96 0 166.5 -28.5t123 -92t79 -172.5t26.5 -264q0 -160 -28.5 -279.5t-80 -189.5t-117.5 -104t-147 -34q-159 0 -233 142t-74 416v63zM215 467q0 -164 41 -260
t123 -96q85 0 136 93t63 263h-363z" />
    <glyph glyph-name="h.superior" unicode="&#x2b0;" horiz-adv-x="677" 
d="M96 850v1020h119v-361q6 5 26.5 23t33.5 27.5t34.5 23t45.5 19.5t51 6q60 0 101 -24.5t60.5 -68.5t27 -88.5t7.5 -101.5v-475h-115v455q0 98 -21.5 145t-86.5 47q-18 0 -38 -6.5t-40.5 -19t-34.5 -22t-31 -23t-20 -15.5v-561h-119z" />
    <glyph glyph-name="j.superior" unicode="&#x2b2;" horiz-adv-x="339" 
d="M23 555q-45 0 -86 18l20 103q35 -10 66 -10q48 0 65.5 41t17.5 127v755h117v-753q0 -281 -200 -281zM164 1718l-90 103l90 100l92 -100z" />
    <glyph glyph-name="r.superior" unicode="&#x2b3;" horiz-adv-x="428" 
d="M96 852v737h119v-98q54 113 143 113q35 0 68 -11l-14 -118q-30 10 -68 10q-45 0 -74.5 -28t-54.5 -75v-530h-119z" />
    <glyph glyph-name="w.superior" unicode="&#x2b7;" horiz-adv-x="989" 
d="M195 852l-177 737h125l133 -645l136 645h170l112 -641l158 641h119l-205 -737h-156l-116 633l-138 -633h-161z" />
    <glyph glyph-name="y.superior" unicode="&#x2b8;" horiz-adv-x="589" 
d="M172 555l80 297h-43l-191 737h125l150 -626l162 626h118l-290 -1034h-111z" />
    <glyph glyph-name="circumflex" unicode="&#x2c6;" horiz-adv-x="798" 
d="M694 1384l-69 -94l-222 166l-225 -164l-72 92l295 232z" />
    <glyph glyph-name="caron" unicode="&#x2c7;" horiz-adv-x="798" 
d="M698 1507l-303 -235l-284 229l75 98l215 -165l224 163z" />
    <glyph glyph-name="breve" unicode="&#x2d8;" horiz-adv-x="755" 
d="M678 1479q-34 -53 -108.5 -102.5t-170.5 -49.5q-88 0 -158.5 44t-113.5 106l82 86q93 -101 192 -101q108 0 195 94z" />
    <glyph glyph-name="dotaccent" unicode="&#x2d9;" horiz-adv-x="417" 
d="M330 1464l-123 -123l-119 123l119 121z" />
    <glyph glyph-name="ring" unicode="&#x2da;" horiz-adv-x="808" 
d="M598 1436q0 -81 -53.5 -128.5t-134.5 -47.5q-82 0 -138.5 44t-56.5 128t56.5 133t134.5 49q73 0 132.5 -45.5t59.5 -132.5zM504 1434q0 39 -29.5 66.5t-68.5 27.5q-41 0 -68 -25t-27 -65q0 -41 28 -69t69 -28t68.5 26.5t27.5 66.5z" />
    <glyph glyph-name="ogonek" unicode="&#x2db;" horiz-adv-x="854" 
d="M766 -303l29 -107q-53 -34 -152 -34q-223 0 -223 206q0 35 13.5 70t33 62.5t51 56t56.5 46.5t62 40t54.5 31.5t46.5 23.5l62 -84q-2 -1 -19 -11t-26 -15t-28.5 -17.5t-32 -21.5t-31 -23t-30.5 -25.5t-26 -27t-22 -29.5t-13.5 -30t-5.5 -31q0 -51 28 -73.5t85 -22.5
q45 0 88 16z" />
    <glyph glyph-name="tilde" unicode="&#x2dc;" horiz-adv-x="798" 
d="M694 1456q-22 -29 -41 -47.5t-55.5 -35.5t-79.5 -17q-42 0 -114 26.5t-107 26.5q-37 0 -60.5 -9t-56.5 -34l-61 84q42 44 87 67t107 23q47 0 110.5 -25.5t88.5 -25.5q22 0 41.5 5.5t29.5 11t25.5 17t18.5 13.5z" />
    <glyph glyph-name="hungarumlaut" unicode="&#x2dd;" horiz-adv-x="862" 
d="M811 1497l-340 -248l-65 94l325 269zM453 1561l-295 -301l-84 77l278 316z" />
    <glyph glyph-name="x.superior" unicode="&#x2e3;" horiz-adv-x="593" 
d="M23 852l208 379l-194 358h129l131 -272l131 272h127l-193 -358l209 -379h-135l-139 291l-145 -291h-129z" />
    <glyph glyph-name="Sigma" unicode="&#x3a3;" horiz-adv-x="811" 
d="M764 0h-709v150l267 573l-267 573v152h709v-148h-537l277 -579l-273 -569h533v-152z" />
    <glyph glyph-name="alpha" unicode="&#x3b1;" horiz-adv-x="915" 
d="M360 -18q-45 0 -84.5 14.5t-78.5 52t-66.5 96t-45 153.5t-17.5 218q0 281 90 450t241 169q69 0 122.5 -38.5t78.5 -115.5h6v137h139v-885q0 -64 25.5 -87.5t79.5 -30.5l-10 -127q-56 0 -93 8.5t-68 32t-46.5 68.5t-16.5 114h-4q-41 -106 -109.5 -167.5t-142.5 -61.5z
M381 129q76 0 144.5 108t68.5 289v209q-35 128 -78 195t-104 67q-52 0 -90 -38.5t-59.5 -106.5t-31.5 -150.5t-10 -181.5q0 -189 42.5 -290t117.5 -101z" />
    <glyph glyph-name="beta" unicode="&#x3b2;" horiz-adv-x="925" 
d="M141 -451v1567q0 210 87.5 340.5t244.5 130.5q135 0 221 -104.5t86 -268.5q0 -122 -53.5 -219.5t-144.5 -140.5v-6q112 -37 188 -141.5t76 -260.5q0 -229 -98 -349t-259 -120q-89 0 -194 43v-471h-154zM477 119q104 0 159.5 80t55.5 237q0 155 -75 237.5t-189 92.5v141
q86 10 143.5 96t57.5 197q0 110 -44.5 178t-113.5 68q-86 0 -131 -90t-45 -232v-966q94 -39 182 -39z" />
    <glyph glyph-name="gamma" unicode="&#x3b3;" horiz-adv-x="804" 
d="M313 -451q-14 137 -14 283q0 55 8 195q-45 310 -128.5 607.5t-160.5 483.5h166q53 -141 119.5 -384.5t106.5 -510.5h10q188 547 198 895h158q-3 -101 -26.5 -224t-48.5 -217.5t-75.5 -236t-75.5 -206t-81 -202.5q-13 -34 -20 -50q16 -154 16 -285q0 -50 -4 -148h-148z
" />
    <glyph glyph-name="delta" unicode="&#x3b4;" horiz-adv-x="911" 
d="M453 -18q-171 0 -270 131.5t-99 394.5q0 178 66.5 315.5t179.5 231.5q-150 124 -150 248q0 74 27 131t72 89t96 48t106 16q166 0 297 -59l-24 -135q-74 28 -132 40.5t-135 12.5q-68 0 -108.5 -38.5t-40.5 -96.5q0 -32 15.5 -62.5t46.5 -59.5t56.5 -49.5t68 -50
t59.5 -42.5q54 -41 94 -84.5t77 -105.5t56.5 -146t19.5 -187q0 -141 -29.5 -248t-82.5 -170t-119.5 -93.5t-146.5 -30.5zM463 123q78 0 127.5 55.5t68.5 140.5t19 201q0 75 -14.5 138.5t-34 106t-55 84t-63 65.5t-71.5 57q-43 -35 -75.5 -71.5t-63 -90.5t-47 -129
t-16.5 -168q0 -86 13 -156t39.5 -122.5t70 -81.5t102.5 -29z" />
    <glyph glyph-name="pi" unicode="&#x3c0;" horiz-adv-x="948" 
d="M813 -12q-88 0 -134 56t-46 183v752h-334v-979h-156v979h-112v139h866v-139h-106v-750q0 -59 17.5 -84.5t55.5 -25.5q33 0 47 2l7 -121q-58 -12 -105 -12z" />
    <glyph glyph-name="omega" unicode="&#x3c9;" horiz-adv-x="1167" 
d="M369 -18q-95 0 -164 68.5t-103 181.5t-34 255q0 380 198 631h162q-110 -133 -158.5 -282.5t-48.5 -333.5q0 -60 7.5 -120t24.5 -121t51.5 -99.5t80.5 -38.5q55 0 89 83t34 224v315h149v-315q0 -139 38 -225t93 -86q46 0 79 38.5t48.5 101.5t22 122t6.5 121q0 182 -50 332
t-161 284h168q111 -138 155 -292.5t44 -338.5q0 -142 -34 -255t-103 -181.5t-164 -68.5q-148 0 -215 176q-67 -176 -215 -176z" />
    <glyph glyph-name="i.inferior" unicode="&#x1d62;" horiz-adv-x="342" 
d="M121 0v737h117v-737h-117zM178 866l-90 103l90 100l92 -100z" />
    <glyph glyph-name="r.inferior" unicode="&#x1d63;" horiz-adv-x="428" 
d="M96 0v737h119v-98q54 113 143 113q35 0 68 -11l-14 -118q-30 10 -68 10q-45 0 -74.5 -28t-54.5 -75v-530h-119z" />
    <glyph glyph-name="u.inferior" unicode="&#x1d64;" horiz-adv-x="679" 
d="M270 -16q-47 0 -81 17.5t-52.5 43.5t-29.5 66t-14 75.5t-3 81.5v469h117v-448q0 -49 3 -80t12 -59.5t28 -42t49 -13.5q60 0 168 72v571h117v-737h-117v68q-98 -84 -197 -84z" />
    <glyph glyph-name="v.inferior" unicode="&#x1d65;" horiz-adv-x="591" 
d="M219 0l-201 737h123l154 -624l162 624h118l-213 -737h-143z" />
    <glyph glyph-name="uni1E46" unicode="&#x1e46;" horiz-adv-x="1155" 
d="M717 -258l-123 -123l-119 123l119 121zM1004 0h-189l-512 1153h-8l16 -231v-922h-161v1448h186l514 -1172h8l-14 242v930h160v-1448z" />
    <glyph glyph-name="uni1E47" unicode="&#x1e47;" horiz-adv-x="915" 
d="M590 -262l-123 -123l-119 123l119 121zM801 0h-156v707q0 61 -2.5 100t-10.5 77t-23.5 59t-42 33.5t-64.5 12.5q-78 0 -223 -123v-866h-156v1118h156v-123q5 8 26 29.5t55.5 49.5t83 48.5t95.5 20.5q52 0 93.5 -15t68.5 -37.5t46.5 -59t29.5 -70t16 -81t7 -80t1 -79.5
v-721z" />
    <glyph glyph-name="uni1E62" unicode="&#x1e62;" horiz-adv-x="819" 
d="M764 379q0 -98 -33 -175.5t-89.5 -125t-126.5 -72t-148 -24.5q-100 0 -172 25.5t-142 76.5l64 127q131 -82 248 -82q103 0 168 60.5t65 179.5q0 60 -27.5 112t-71.5 91.5t-97 78.5t-106 82t-97 92.5t-71.5 119.5t-27.5 153q0 164 100 261t246 97q140 0 265 -67l-49 -127
q-106 49 -209 49q-90 0 -140.5 -54.5t-50.5 -154.5q0 -57 27.5 -108.5t72 -91.5t98 -80t107 -84t98 -93t72 -117.5t27.5 -148.5zM528 -260l-122 -123l-119 123l119 121z" />
    <glyph glyph-name="uni1E63" unicode="&#x1e63;" horiz-adv-x="690" 
d="M639 309q0 -82 -29 -146t-77.5 -102t-105 -57.5t-116.5 -19.5q-141 0 -252 49l23 139q129 -47 219 -47q78 0 131 47t53 119q0 45 -22 83.5t-58 67.5t-79 57.5t-85.5 61.5t-78.5 70.5t-58 92t-22 120.5q0 144 82.5 219.5t218.5 75.5q97 0 209 -47l-25 -134
q-105 43 -198 43q-63 0 -99.5 -39t-36.5 -102q0 -45 22.5 -83.5t58 -68t79 -59t87 -62.5t79 -70t58 -90.5t22.5 -117.5zM465 -256l-123 -123l-119 123l119 121z" />
    <glyph glyph-name="Wgrave" unicode="&#x1e80;" horiz-adv-x="1484" 
d="M1489 1448l-348 -1448h-207l-168 692l-29 162h-6l-37 -160l-196 -694h-207l-293 1448h166l209 -1086l28 -210h7l43 206l211 725l-93 365h166l262 -1090l37 -204h6l35 208l256 1086h158zM879 1524l-359 131l51 141l351 -172z" />
    <glyph glyph-name="wgrave" unicode="&#x1e81;" horiz-adv-x="1288" 
d="M1284 1118l-283 -1118h-190l-141 748l-23 174h-10l-25 -177l-161 -745h-187l-256 1118h162l164 -784l20 -172h13l20 172l168 784h182l150 -776l20 -178h13l22 170l184 784h158zM834 1352l-74 -97l-326 261l92 114z" />
    <glyph glyph-name="Wacute" unicode="&#x1e82;" horiz-adv-x="1484" 
d="M973 1655l-359 -131l-43 100l349 172zM1489 1448l-348 -1448h-207l-168 692l-29 162h-6l-37 -160l-196 -694h-207l-293 1448h166l209 -1086l28 -210h7l43 206l211 725l-93 365h166l262 -1090l37 -204h6l35 208l256 1086h158z" />
    <glyph glyph-name="wacute" unicode="&#x1e83;" horiz-adv-x="1288" 
d="M907 1522l-319 -260l-78 92l303 282zM1284 1118l-283 -1118h-190l-141 748l-23 174h-10l-25 -177l-161 -745h-187l-256 1118h162l164 -784l20 -172h13l20 172l168 784h182l150 -776l20 -178h13l22 170l184 784h158z" />
    <glyph glyph-name="Wdieresis" unicode="&#x1e84;" horiz-adv-x="1484" 
d="M1001 1636l-110 -112l-111 112l111 109zM688 1636l-110 -112l-109 112l109 109zM1489 1448l-348 -1448h-207l-168 692l-29 162h-6l-37 -160l-196 -694h-207l-293 1448h166l209 -1086l28 -210h7l43 206l211 725l-93 365h166l262 -1090l37 -204h6l35 208l256 1086h158z" />
    <glyph glyph-name="wdieresis" unicode="&#x1e85;" horiz-adv-x="1288" 
d="M909 1464l-110 -112l-109 112l109 109zM596 1464l-111 -112l-108 112l108 109zM1284 1118l-283 -1118h-190l-141 748l-23 174h-10l-25 -177l-161 -745h-187l-256 1118h162l164 -784l20 -172h13l20 172l168 784h182l150 -776l20 -178h13l22 170l184 784h158z" />
    <glyph glyph-name="uni1EBC" unicode="&#x1ebc;" horiz-adv-x="858" 
d="M799 0h-649v1448h616v-141h-455v-510h422v-140h-422v-512h488v-145zM748 1653q-65 -92 -164 -92q-43 0 -118.5 22.5t-113.5 22.5q-34 0 -56.5 -9t-55.5 -32l-62 80q43 43 87 64.5t104 21.5q46 0 112.5 -22.5t93.5 -22.5q16 0 30 3t26.5 9.5t18.5 11t18 14t14 11.5z" />
    <glyph glyph-name="uni1EBD" unicode="&#x1ebd;" horiz-adv-x="804" 
d="M750 524h-527q0 -115 19 -193.5t57 -121.5t86 -60.5t115 -17.5q86 0 209 43l28 -137q-37 -22 -110 -38.5t-162 -16.5q-96 0 -166.5 28.5t-123 92t-79 172.5t-26.5 264q0 160 28.5 279.5t80 189.5t117 103.5t146.5 33.5q308 0 308 -557v-64zM588 655q0 164 -41 260.5
t-123 96.5q-85 0 -136 -93.5t-63 -263.5h363zM719 1456q-22 -29 -41 -47.5t-55.5 -35.5t-79.5 -17q-42 0 -114 26.5t-107 26.5q-37 0 -60.5 -9t-56.5 -34l-62 84q42 44 87.5 67t107.5 23q47 0 110.5 -25.5t88.5 -25.5q22 0 41.5 5.5t29 11t24.5 17t19 13.5z" />
    <glyph glyph-name="Ygrave" unicode="&#x1ef2;" horiz-adv-x="841" 
d="M858 1448l-366 -899v-549h-160v551l-348 897h180l190 -539l58 -188h8l57 186l207 541h174zM557 1524l-358 131l51 141l350 -172z" />
    <glyph glyph-name="ygrave" unicode="&#x1ef3;" horiz-adv-x="763" 
d="M762 1118l-400 -1569h-155l108 451h-43l-266 1118h166l174 -794l23 -179h12l25 177l194 796h162zM565 1352l-73 -97l-326 261l92 114z" />
    <glyph glyph-name="uni2012" unicode="&#x2012;" horiz-adv-x="819" 
d="M0 547v137h819v-137h-819z" />
    <glyph glyph-name="endash" unicode="&#x2013;" horiz-adv-x="944" 
d="M883 516h-822v141h822v-141z" />
    <glyph glyph-name="emdash" unicode="&#x2014;" horiz-adv-x="1353" 
d="M1292 516h-1231v141h1231v-141z" />
    <glyph glyph-name="quoteleft" unicode="&#x2018;" horiz-adv-x="425" 
d="M336 1546q-43 -141 -43 -250v-163h-154v108q0 138 66 305h131z" />
    <glyph glyph-name="quoteright" unicode="&#x2019;" horiz-adv-x="417" 
d="M287 1438q0 -138 -66 -305h-131q45 148 45 249v164h152v-108z" />
    <glyph glyph-name="quotesinglbase" unicode="&#x201a;" horiz-adv-x="417" 
d="M287 55q0 -138 -66 -305h-131q45 148 45 217v197h152v-109z" />
    <glyph glyph-name="quotedblleft" unicode="&#x201c;" horiz-adv-x="661" 
d="M571 1546q-43 -141 -43 -250v-163h-153v108q0 140 65 305h131zM315 1546q-43 -141 -43 -250v-163h-153v108q0 140 65 305h131z" />
    <glyph glyph-name="quotedblright" unicode="&#x201d;" horiz-adv-x="657" 
d="M543 1438q0 -138 -66 -305h-129q43 153 43 249v164h152v-108zM287 1438q0 -138 -66 -305h-131q45 148 45 249v164h152v-108z" />
    <glyph glyph-name="quotedblbase" unicode="&#x201e;" horiz-adv-x="657" 
d="M559 55q0 -140 -65 -305h-132q46 151 46 217v197h151v-109zM303 55q0 -140 -65 -305h-132q44 144 44 217v197h153v-109z" />
    <glyph glyph-name="dagger" unicode="&#x2020;" horiz-adv-x="706" 
d="M668 1028l-240 16l2 -1044h-154l7 1044l-244 -16v162l244 -14l-13 368h166l-10 -368l242 14v-162z" />
    <glyph glyph-name="daggerdbl" unicode="&#x2021;" horiz-adv-x="718" 
d="M676 352l-246 13l12 -365h-168l13 365l-244 -13v164l244 -16l2 270l-2 272l-244 -14v162l244 -12l-13 366h168l-12 -366l246 12v-162l-246 14v-542l246 16v-164z" />
    <glyph glyph-name="bullet" unicode="&#x2022;" horiz-adv-x="1013" 
d="M805 721q0 -125 -86.5 -210t-210.5 -85q-125 0 -211 84t-86 211q0 128 86.5 212.5t210.5 84.5q125 0 211 -83.5t86 -213.5z" />
    <glyph glyph-name="ellipsis" unicode="&#x2026;" horiz-adv-x="1134" 
d="M991 0h-176v184h176v-184zM655 0h-176v184h176v-184zM319 0h-176v184h176v-184z" />
    <glyph glyph-name="perthousand" unicode="&#x2030;" horiz-adv-x="1738" 
d="M1692 338q0 -163 -72.5 -259.5t-179.5 -96.5q-111 0 -177.5 81.5t-66.5 258.5q0 158 71.5 254t178.5 96q110 0 178 -83t68 -251zM543 1128q0 -165 -72.5 -260.5t-179.5 -95.5q-110 0 -177 81.5t-67 258.5q0 158 71.5 254t178.5 96q110 0 178 -83t68 -251zM1128 338
q0 -163 -72 -259.5t-179 -96.5q-111 0 -178.5 81.5t-67.5 258.5q0 157 72.5 253.5t179.5 96.5q110 0 177.5 -83t67.5 -251zM1552 340q0 207 -106 207q-50 0 -83.5 -58t-33.5 -165q0 -103 29.5 -160.5t81.5 -57.5q48 0 80 59t32 175zM403 1130q0 207 -106 207
q-50 0 -83.5 -58.5t-33.5 -164.5q0 -103 29.5 -160t81.5 -57q48 0 80 58.5t32 174.5zM987 340q0 207 -104 207q-50 0 -83.5 -58t-33.5 -165q0 -103 29.5 -160.5t81.5 -57.5q47 0 78.5 59t31.5 175zM1081 1282l-897 -1227l-96 84l897 1225z" />
    <glyph glyph-name="guilsinglleft" unicode="&#x2039;" horiz-adv-x="423" 
d="M373 961l-168 -404l166 -397l-121 -49l-205 446l207 449z" />
    <glyph glyph-name="guilsinglright" unicode="&#x203a;" horiz-adv-x="423" 
d="M379 557l-207 -453l-121 50l168 403l-166 395l121 52z" />
    <glyph glyph-name="fraction" unicode="&#x2044;" horiz-adv-x="555" 
d="M786 1255l-905 -1138l-80 63l910 1143z" />
    <glyph glyph-name="fraction" unicode="&#x2215;" horiz-adv-x="555" 
d="M786 1255l-905 -1138l-80 63l910 1143z" />
    <glyph glyph-name="zerosuperior" unicode="&#x2070;" horiz-adv-x="567" 
d="M281 842q-236 0 -236 375q0 79 12 145t38.5 124.5t77 92t120.5 33.5q231 0 231 -373q0 -87 -12.5 -156t-40 -124.5t-76 -86t-114.5 -30.5zM283 944q34 0 58 17.5t37 43.5t20.5 67.5t9.5 76t2 82.5q0 54 -3.5 93.5t-15 84.5t-37.5 69.5t-65 24.5q-29 0 -51.5 -11.5
t-36 -34.5t-22.5 -48t-12.5 -61t-5 -64.5t-1.5 -66.5q0 -273 123 -273z" />
    <glyph glyph-name="i.superior" unicode="&#x2071;" horiz-adv-x="342" 
d="M121 848v737h117v-737h-117zM178 1714l-90 103l90 100l92 -100z" />
    <glyph glyph-name="foursuperior" unicode="&#x2074;" horiz-adv-x="520" 
d="M287 850v182h-254v109l207 458h159v-469h97v-98h-97v-182h-112zM121 1130h166v361z" />
    <glyph glyph-name="fivesuperior" unicode="&#x2075;" horiz-adv-x="503" 
d="M233 836q-19 0 -37 1.5l-30 2.5t-28 4.5t-23 5t-23.5 6.5t-21.5 6l24 105q82 -27 137 -27q50 0 75.5 36.5t25.5 94.5q0 137 -101 137q-53 0 -137 -8v399h338v-104h-233v-186q2 0 18.5 1t32.5 1q90 0 145.5 -60t55.5 -168q0 -114 -62 -180.5t-156 -66.5z" />
    <glyph glyph-name="sixsuperior" unicode="&#x2076;" horiz-adv-x="528" 
d="M276 838q-109 0 -163 74t-54 255q0 207 76.5 326t198.5 119q55 0 121 -25l-25 -102q-49 18 -100 18q-61 0 -99.5 -57.5t-52.5 -163.5q61 35 113 35q91 0 141.5 -57t50.5 -166q0 -124 -59 -190t-148 -66zM281 938q41 0 63.5 40.5t22.5 104.5q0 68 -23 103t-65 35
q-8 0 -15.5 -0.5t-13.5 -1.5t-13 -3t-11 -3.5l-12 -4.5t-11 -4.5t-12.5 -6t-12.5 -5.5q0 -150 19.5 -202t83.5 -52z" />
    <glyph glyph-name="sevensuperior" unicode="&#x2077;" horiz-adv-x="428" 
d="M137 827l-108 41l264 619h-287v112h406v-94z" />
    <glyph glyph-name="eightsuperior" unicode="&#x2078;" horiz-adv-x="528" 
d="M260 840q-98 0 -156.5 48t-58.5 152q0 117 109 211q-88 63 -88 168q0 89 57.5 141t144.5 52q92 0 144.5 -49.5t52.5 -130.5q0 -112 -109 -185q127 -79 127 -192q0 -105 -61 -160t-162 -55zM262 924q49 0 78 37t29 100q0 22 -9 40.5t-31.5 36.5t-38 28t-51.5 30
q-9 5 -14 8q-67 -50 -67 -151q0 -62 26.5 -95.5t77.5 -33.5zM281 1290q73 61 73 129q0 103 -88 103q-94 0 -94 -111q0 -36 27.5 -63t81.5 -58z" />
    <glyph glyph-name="ninesuperior" unicode="&#x2079;" horiz-adv-x="526" 
d="M211 838q-65 0 -123 24l27 99q51 -19 100 -19q62 0 99 58.5t48 166.5q-53 -37 -108 -37q-90 0 -142.5 58t-52.5 168q0 123 59 189.5t148 66.5q111 0 165 -75t54 -257q0 -206 -76 -324t-198 -118zM266 1229q53 0 101 26q0 149 -20.5 202.5t-84.5 53.5q-40 0 -62 -39
t-22 -102q0 -68 23 -104.5t65 -36.5z" />
    <glyph glyph-name="plussuperior" unicode="&#x207a;" horiz-adv-x="694" 
d="M285 946v228l-228 -3v109h228v233h110v-235l242 2v-109l-242 3v-228h-110z" />
    <glyph glyph-name="minussuperior" unicode="&#x207b;" horiz-adv-x="688" 
d="M57 1176v108h574v-108h-574z" />
    <glyph glyph-name="equalsuperior" unicode="&#x207c;" horiz-adv-x="688" 
d="M57 1038v109h574v-109h-574zM57 1309v108h574v-108h-574z" />
    <glyph glyph-name="parenleftsuperior" unicode="&#x207d;" horiz-adv-x="425" 
d="M319 553l-14 14t-34.5 41t-49 68.5t-52 97t-49 126t-34.5 155t-14 184.5t13.5 183t35.5 151.5t48 119t52.5 91.5t48.5 61.5t36 36.5l13 12l74 -88q-8 -7 -21.5 -21t-47.5 -65t-60 -111t-47.5 -159.5t-21.5 -208.5q0 -111 20.5 -213.5t49.5 -170t58 -119.5t49 -76l21 -23z
" />
    <glyph glyph-name="parenrightsuperior" unicode="&#x207e;" horiz-adv-x="425" 
d="M106 553l-73 86q8 8 21 24.5t47 73.5t60 121.5t47 168t21 214.5q0 109 -20 207.5t-49 161t-58 109t-49 67.5l-20 20l73 88q10 -8 27 -23.5t59.5 -73t75 -126t59.5 -185t27 -247.5q0 -130 -25.5 -248.5t-62 -195t-73 -134t-61.5 -83.5z" />
    <glyph glyph-name="n.superior" unicode="&#x207f;" horiz-adv-x="677" 
d="M96 852v737h119v-78q26 27 46 44.5t61 36t84 18.5q48 0 83 -17.5t54.5 -43t30 -66t13.5 -75t3 -81.5v-475h-117v455q0 48 -3 78.5t-12.5 59t-28.5 41.5t-50 13q-41 0 -88 -29.5t-76 -58.5v-559h-119z" />
    <glyph glyph-name="zeroinferior" unicode="&#x2080;" horiz-adv-x="567" 
d="M281 -10q-236 0 -236 375q0 79 12 145.5t38.5 125t77 91.5t120.5 33q231 0 231 -373q0 -86 -12.5 -155t-40 -125t-76 -86.5t-114.5 -30.5zM283 94q42 0 69 24t39 70t15.5 88t3.5 103q0 54 -3.5 94t-15 85t-37.5 69t-65 24q-29 0 -51.5 -11.5t-36 -34.5t-22.5 -48
t-12.5 -60.5t-5 -63.5t-1.5 -66q0 -131 28 -202t95 -71z" />
    <glyph glyph-name="oneinferior" unicode="&#x2081;" horiz-adv-x="395" 
d="M170 0v643h-129v105l246 8v-756h-117z" />
    <glyph glyph-name="twoinferior" unicode="&#x2082;" horiz-adv-x="481" 
d="M27 0v100q135 130 170 169q110 123 119 230q1 11 1 23q0 60 -23.5 92.5t-64.5 32.5q-40 0 -77 -18.5t-62 -50.5l-45 81q34 46 87 73.5t108 27.5q82 0 137 -60t55 -165q0 -56 -18.5 -110.5t-42 -93.5t-66.5 -85t-71.5 -71t-77.5 -66h282v-109h-411z" />
    <glyph glyph-name="threeinferior" unicode="&#x2083;" horiz-adv-x="473" 
d="M211 -10q-95 0 -168 33l20 100q81 -29 138 -29t89 29.5t32 89.5q0 74 -37.5 102.5t-122.5 34.5v80q69 9 101 40t32 93q0 45 -22.5 70.5t-63.5 25.5q-52 0 -111 -34l-24 84q71 51 151 51q79 0 131 -48.5t52 -131.5q0 -56 -26 -104.5t-71 -72.5q60 -17 93.5 -69.5
t33.5 -120.5q0 -115 -65.5 -169t-161.5 -54z" />
    <glyph glyph-name="fourinferior" unicode="&#x2084;" horiz-adv-x="520" 
d="M287 0v180h-254v111l207 459h159v-469h97v-101h-97v-180h-112zM121 281h166v360z" />
    <glyph glyph-name="fiveinferior" unicode="&#x2085;" horiz-adv-x="503" 
d="M233 -16q-37 0 -70.5 5t-45.5 8.5t-47 14.5l24 105q82 -27 137 -27q50 0 75.5 36t25.5 95q0 137 -101 137q-32 0 -137 -10v402h338v-105h-233v-188q2 0 18.5 1t32.5 1q90 0 145.5 -60t55.5 -166q0 -114 -62 -181.5t-156 -67.5z" />
    <glyph glyph-name="sixinferior" unicode="&#x2086;" horiz-adv-x="528" 
d="M276 -14q-108 0 -162.5 75t-54.5 256q0 206 76.5 324.5t198.5 118.5q63 0 121 -25l-25 -100q-61 18 -100 18q-61 0 -99.5 -58t-52.5 -165q65 37 113 37q91 0 141.5 -57t50.5 -168q0 -123 -59 -189.5t-148 -66.5zM281 86q41 0 63.5 40.5t22.5 104.5q0 68 -23 103t-65 35
t-101 -27q0 -152 20 -204t83 -52z" />
    <glyph glyph-name="seveninferior" unicode="&#x2087;" horiz-adv-x="428" 
d="M137 -25l-108 43l264 619h-287v113h406v-95z" />
    <glyph glyph-name="eightinferior" unicode="&#x2088;" horiz-adv-x="528" 
d="M260 -12q-98 0 -156.5 48.5t-58.5 151.5q0 117 109 211q-88 66 -88 170q0 89 57.5 141t144.5 52q92 0 144.5 -49.5t52.5 -130.5q0 -112 -109 -185q127 -79 127 -194q0 -105 -61 -160t-162 -55zM262 74q49 0 78 37t29 100q0 22 -9 40.5t-31.5 36.5t-38 28t-51.5 30
q-9 5 -14 8q-67 -53 -67 -151q0 -62 26.5 -95.5t77.5 -33.5zM281 440q73 58 73 129q0 103 -88 103q-94 0 -94 -111q0 -36 27.5 -63t81.5 -58z" />
    <glyph glyph-name="nineinferior" unicode="&#x2089;" horiz-adv-x="526" 
d="M211 -14q-56 0 -123 24l27 101q51 -19 100 -19q62 0 99 58.5t48 164.5q-49 -34 -108 -34q-90 0 -142.5 57.5t-52.5 165.5q0 124 59 190t148 66q111 0 165 -74t54 -256q0 -207 -76 -325.5t-198 -118.5zM266 377q47 0 101 29q0 147 -20.5 200t-84.5 53q-40 0 -62 -38.5
t-22 -100.5q0 -70 23 -106.5t65 -36.5z" />
    <glyph glyph-name="plus.inferior" unicode="&#x208a;" horiz-adv-x="694" 
d="M285 129v227l-228 -2v109h228v233h110v-235l242 2v-109l-242 2v-227h-110z" />
    <glyph glyph-name="minus.inferior" unicode="&#x208b;" horiz-adv-x="688" 
d="M57 352v109h574v-109h-574z" />
    <glyph glyph-name="equal.inferior" unicode="&#x208c;" horiz-adv-x="688" 
d="M57 215v109h574v-109h-574zM57 485v109h574v-109h-574z" />
    <glyph glyph-name="parenleft.inferior" unicode="&#x208d;" horiz-adv-x="425" 
d="M319 -301l-14 14t-34.5 41t-49 68.5t-52 97t-49 126t-34.5 155t-14 184.5t13.5 183t35.5 151.5t48 119t52.5 91.5t48.5 61.5t36 36.5l13 12l74 -88q-8 -7 -21.5 -21t-47.5 -65t-60 -111t-47.5 -159.5t-21.5 -208.5q0 -111 20.5 -213.5t49.5 -170t58 -119.5t49 -76l21 -23
z" />
    <glyph glyph-name="parenright.inferior" unicode="&#x208e;" horiz-adv-x="425" 
d="M106 -301l-73 86q8 8 21 24.5t47 73.5t60 121.5t47 168t21 214.5q0 109 -20 207.5t-49 161t-58 109t-49 67.5l-20 20l73 88q10 -8 27 -23.5t59.5 -73t75 -126t59.5 -185t27 -247.5q0 -130 -25.5 -248.5t-62 -195t-73 -134t-61.5 -83.5z" />
    <glyph glyph-name="colonsign" unicode="&#x20a1;" horiz-adv-x="1134" 
d="M53 -154l146 359q-129 198 -129 510q0 222 64 390.5t189 263.5t295 95q39 0 93 -4l73 178h99l-80 -194q56 -11 131 -55l100 249h101l-605 -1486q65 -21 117 -21q120 0 264 55l31 -139q-123 -67 -321 -67q-68 0 -154 22l-64 -156h-100l78 191q-65 33 -115 86l-112 -277
h-101zM233 735q0 -183 54 -317l360 891q-10 2 -39 2q-75 0 -141 -34.5t-119 -103t-84 -181t-31 -257.5zM340 301q54 -78 104 -111l433 1065q-81 33 -134 43z" />
    <glyph glyph-name="cruzeiro" unicode="&#x20a2;" horiz-adv-x="1028" 
d="M997 954l-20 -147q-52 18 -113 18q-56 0 -105 -47t-79 -112v-533h2q68 2 154.5 18t136.5 37l33 -129q-56 -30 -156.5 -54.5t-218.5 -24.5q-135 0 -242 55t-176.5 153t-106 232t-36.5 295q0 223 65 391t193.5 263t306.5 95q206 0 364 -84l-34 -133q-151 64 -330 64
q-84 0 -155.5 -34t-127.5 -102t-87.5 -180.5t-31.5 -259.5q0 -242 78 -387t211 -192v798h158v-133h6q29 62 78.5 108t118.5 46q67 0 114 -21z" />
    <glyph glyph-name="franc" unicode="&#x20a3;" horiz-adv-x="1134" 
d="M1151 829l-21 -149q-48 20 -110 20q-57 0 -105.5 -47t-80.5 -114v-539h-156v684h-367v-684h-161v1448h741v-141h-580v-480h523v-131h6q80 152 198 152q75 0 113 -19z" />
    <glyph glyph-name="lira" unicode="&#x20a4;" horiz-adv-x="751" 
d="M76 0v143q31 14 56.5 65t39.5 113.5t21 113t8 81.5h-152v137h162q0 19 1 63t1 68h-164v138h164q0 139 2 145q2 60 12 110.5t24 87t38.5 66t45 48t53.5 32.5t53.5 21t57 11.5t52 5.5t48.5 2h8t7.5 0.5t8.5 0.5l6 -137q-103 -11 -131 -18q-87 -25 -116 -111
q-18 -55 -17 -139v-125h284v-138h-287q0 -72 -6 -131h293v-137h-301q-23 -252 -108 -375h501v-141h-665z" />
    <glyph glyph-name="mill" unicode="&#x20a5;" horiz-adv-x="1400" 
d="M244 -274l381 952v80q0 125 -26 178t-107 53q-23 0 -48.5 -8.5t-52 -26t-43.5 -30t-41 -33t-28 -23.5v-868h-156v1118h156v-121q8 13 40 45t93.5 67.5t117.5 35.5q168 0 222 -158l215 531h108l-168 -414q73 41 129 41q41 0 74.5 -9.5t58 -23t43.5 -38.5t31 -46.5
t21 -57.5t13 -60t6 -65t2.5 -63t0.5 -63v-719h-153v711q0 45 -1 73t-3.5 60.5t-8.5 52t-15.5 39.5t-24 30t-35.5 16.5t-48 6.5q-61 0 -170 -80l-47 -121v-788h-155v432l-275 -706h-106z" />
    <glyph glyph-name="naira" unicode="&#x20a6;" horiz-adv-x="1153" 
d="M1004 0h-232l-199 522h-264v-522h-159v522h-134v103h134v237h-134v103h134v483h210l185 -483h297v483h162v-483h133v-103h-133v-237h133v-103h-133v-522zM584 862l92 -237h166v237h-258zM307 862l2 -237h228l-91 237h-139zM848 207l-4 104v211h-129l125 -315h8zM307 1128
v-163h101l-99 254h-8z" />
    <glyph glyph-name="pesetas" unicode="&#x20a7;" horiz-adv-x="2160" 
d="M858 989q0 -132 -48.5 -236t-151 -167.5t-246.5 -63.5h-35v148h45q117 0 192.5 78.5t75.5 230.5q0 156 -62.5 240t-172.5 84h-146v-1303h-159v1448h319q180 0 284.5 -121.5t104.5 -337.5zM2079 309q0 -82 -29 -146t-77.5 -102t-105 -57.5t-116.5 -19.5q-141 0 -252 49
l23 139q129 -47 219 -47q78 0 131 47t53 119q0 45 -22 83.5t-58 67.5t-78.5 57.5t-85.5 61.5t-79 70.5t-58 92t-22 120.5q0 144 82.5 219.5t218.5 75.5q97 0 209 -47l-25 -134q-105 43 -199 43q-63 0 -99 -39t-36 -102q0 -45 22.5 -83.5t58 -68t79 -59t87 -62.5t79 -70
t58 -90.5t22.5 -117.5zM1466 27q-88 -39 -166 -39q-62 0 -101.5 5.5t-78 25t-59.5 55t-34 96.5t-13 149v662h-119v137h119v230h151v-230h248v-137h-248v-670q0 -105 29.5 -143.5t105.5 -38.5q80 0 144 31z" />
    <glyph glyph-name="rupee" unicode="&#x20a8;" horiz-adv-x="1536" 
d="M690 1004q0 299 -219 299h-162v-592h127q254 0 254 293zM1106 -16q-68 0 -123 10.5t-110 36.5t-101 75t-82 121l-172 351q-42 -9 -127 -9h-82v-569h-159v1448h352q164 0 260 -109.5t96 -324.5q0 -128 -48 -231t-144 -158l149 -285q112 -219 275 -219q111 0 176 47.5
t65 122.5q0 45 -21.5 83.5t-56.5 66.5t-77 55.5t-83.5 59t-76.5 68t-56.5 90.5t-21.5 120q0 146 79 226.5t212 80.5q109 0 209 -49l-25 -136q-92 43 -199 43q-62 0 -95.5 -43t-33.5 -108q0 -45 22 -82.5t57 -66t77 -56.5t84 -59.5t77 -67.5t57 -88.5t22 -116.5
q0 -71 -24.5 -128.5t-63 -93.5t-89 -60.5t-100 -34.5t-98.5 -10z" />
    <glyph glyph-name="won" unicode="&#x20a9;" horiz-adv-x="1533" 
d="M6 1038h105l-82 410h166l77 -410h408l12 45l-92 365h166l96 -410h404l96 410h158l-99 -410h107v-114h-133l-58 -230h191v-114h-217l-140 -580h-206l-142 580h-133l-162 -580h-206l-117 580h-199v114h174l-47 230h-127v114zM291 924l47 -230h240l67 230h-354zM891 924
l55 -230h240l53 230h-348zM438 152l39 167l70 261h-191l50 -254l26 -174h6zM1071 154l33 172l55 254h-186l61 -254l31 -172h6zM729 729l-8 -35h78l-8 33l-23 127h-6z" />
    <glyph glyph-name="sheqel" unicode="&#x20aa;" horiz-adv-x="1472" 
d="M180 0v1448h371q85 0 147 -11t108 -30t75.5 -60t48 -83.5t27 -119t11.5 -149.5t3 -190v-311h-154v311v131q0 58 -1.5 96t-7.5 81.5t-17 70t-30 53t-46.5 40.5t-67.5 23t-92 9h-221v-1309h-154zM502 0v956h155v-815h220q52 0 92 9t67.5 23t46.5 40.5t30 53t17 70t7.5 81.5
t1.5 96v131v803h155v-803q0 -81 -1 -137t-5 -117t-10.5 -100.5t-18.5 -82.5t-28 -69t-40 -52t-54 -40t-69.5 -26t-87.5 -16.5t-108 -4.5h-370z" />
    <glyph glyph-name="dong" unicode="&#x20ab;" horiz-adv-x="880" 
d="M393 197q-323 0 -323 467q0 229 105.5 357t277.5 128q14 0 25 -0.5t19 -0.5t17 -2t13.5 -2.5t14 -4t13 -5t17 -7t18.5 -7.5v150h-225v110h225v164h158v-164h118v-110h-118v-1057h-158v94q-88 -110 -197 -110zM414 334q29 0 56.5 10t52.5 30t36.5 31t30.5 31v545
q-3 1 -24.5 11.5t-30.5 13t-32.5 6.5t-51.5 4q-49 0 -88.5 -20t-65 -53.5t-43 -79.5t-24.5 -95.5t-7 -105.5q0 -328 191 -328zM106 0v100h642v-100h-642z" />
    <glyph glyph-name="Euro" unicode="&#x20ac;" horiz-adv-x="825" 
d="M774 43q-112 -63 -264 -63q-164 0 -273.5 102.5t-148.5 277.5h-92v113h76q-2 27 -2 78q0 71 4 104h-78v113h96q41 172 147.5 270.5t266.5 98.5q72 0 132.5 -16.5t133.5 -55.5l-33 -131q-136 61 -231 61q-88 0 -157 -55.5t-101 -171.5h371v-113h-392q-4 -58 -4 -88
q0 -32 4 -94h392v-113h-369q32 -123 106 -183t172 -60q95 0 215 55z" />
    <glyph glyph-name="uni20AD" unicode="&#x20ad;" horiz-adv-x="923" 
d="M35 840h115v608h161v-608h43l379 608h189l-400 -608h340v-133h-340l428 -707h-200l-404 707h-35v-707h-161v707h-115v133z" />
    <glyph glyph-name="uni20AE" unicode="&#x20ae;" horiz-adv-x="839" 
d="M121 403l219 150v207l-219 -148v127l219 148v413h-352v148h864v-148h-350v-311l219 148v-127l-219 -148v-209l219 148v-135l-219 -148v-518h-162v416l-219 -148v135z" />
    <glyph glyph-name="uni20B1" unicode="&#x20b1;" horiz-adv-x="956" 
d="M20 1176h130v272h319q135 0 230 -71t135 -201h145v-105h-125q4 -54 4 -84q0 -49 -2 -69h123v-107h-145q-43 -133 -150.5 -211t-271.5 -78h-35v148h45q79 0 142 35t95 106h-350v-811h-159v811h-130v107h130v153h-130v105zM309 918h379q2 18 2 59q0 69 -6 94h-375v-153z
M309 1303v-127h346q-62 127 -200 127h-146z" />
    <glyph glyph-name="afii61289" unicode="&#x2113;" horiz-adv-x="688" 
d="M365 -25q-98 0 -139.5 81t-41.5 255v240q-10 -9 -27.5 -25.5t-32 -30.5t-28.5 -26l-47 82q75 72 135 137v383q0 132 16.5 225.5t49.5 146.5t75 77t99 24q168 0 168 -246q0 -142 -70.5 -307t-204.5 -329v-314q0 -152 14.5 -200t65.5 -48q71 0 115 76l49 -61
q-79 -140 -196 -140zM317 1151v-336q154 222 154 453q0 47 -1.5 71t-7.5 50.5t-19.5 37.5t-36.5 11q-50 0 -69.5 -67t-19.5 -220z" />
    <glyph glyph-name="afii61352" unicode="&#x2116;" horiz-adv-x="1511" 
d="M883 0h-209l-404 903l9 -115v-788h-156v1118h196l414 -919l-6 131v788h156v-1118zM1462 737q0 -131 -69 -205.5t-170 -74.5q-105 0 -168.5 74.5t-63.5 199.5q0 130 67 207.5t169 77.5q109 0 172 -75t63 -204zM1462 166h-471v121h471v-121zM1329 737q0 73 -24.5 123.5
t-79.5 50.5q-53 0 -79 -51.5t-26 -124.5q0 -76 25.5 -124t79.5 -48q104 0 104 174z" />
    <glyph glyph-name="uni2117" unicode="&#x2117;" horiz-adv-x="1259" 
d="M1182 723q0 -221 -66 -389t-195 -263.5t-305 -95.5q-171 0 -293.5 98t-182.5 266t-60 388q0 337 154 537t411 200q127 0 229.5 -57t169 -157.5t102.5 -235t36 -291.5zM1059 725q0 282 -116 456.5t-314 174.5q-202 0 -315 -170.5t-113 -456.5q0 -181 46.5 -323.5
t143.5 -230t232 -87.5q109 0 193 47.5t136.5 133.5t79.5 201t27 255zM895 868q0 -137 -74 -200.5t-198 -63.5h-48v-313h-126v850h223q104 0 163.5 -72t59.5 -201zM768 862q0 172 -115 172h-78v-323h60q133 0 133 151z" />
    <glyph glyph-name="servicemark" unicode="&#x2120;" horiz-adv-x="1302" 
d="M246 717q-55 0 -113.5 10.5t-81.5 20.5l15 98q99 -29 165 -29q115 0 115 103q0 31 -20.5 57t-51 43t-66.5 39t-66.5 45t-51 62.5t-20.5 88.5q0 100 61 154.5t152 54.5q45 0 90.5 -10.5t68.5 -21.5l-18 -101q-73 33 -141 33q-48 0 -72.5 -25t-24.5 -67q0 -36 29.5 -65.5
t71 -53t83.5 -50t71.5 -70t29.5 -99.5q0 -60 -21.5 -105t-56.5 -68t-71.5 -33.5t-75.5 -10.5zM1128 721h-124v375l10 198h-13l-120 -317h-121l-98 303h-15l10 -188v-371h-120v727h170l116 -344h6l129 344h170v-727z" />
    <glyph glyph-name="trademark" unicode="&#x2122;" horiz-adv-x="1208" 
d="M1128 721h-124v375l10 198h-13l-120 -317h-121l-98 303h-15l10 -188v-371h-120v727h170l116 -344h6l129 344h170v-727zM498 1315h-168v-594h-127v594h-174v133h469v-133z" />
    <glyph glyph-name="Omega" unicode="&#x2126;" horiz-adv-x="1204" 
d="M1190 0h-492v158q269 264 269 587q0 165 -43 295.5t-126.5 207.5t-195.5 77q-120 0 -201.5 -77t-118 -203.5t-36.5 -294.5q0 -186 61.5 -318.5t202.5 -273.5v-158h-490v150h324q-26 24 -42 39t-46.5 50t-50.5 65.5t-45 80t-40 100.5t-25.5 119.5t-10.5 143.5
q0 335 139.5 528.5t386.5 193.5q128 0 228 -56t162 -155t94 -230t32 -286q0 -97 -26 -193.5t-67.5 -172t-84 -132t-84.5 -95.5h326v-150z" />
    <glyph glyph-name="estimated" unicode="&#x212e;" horiz-adv-x="972" 
d="M506 -16q-197 0 -322 148t-125 409q0 171 56 309t159 217.5t234 79.5q184 0 295.5 -130.5t111.5 -365.5v-104h-675v-133q0 -74 35 -146t99 -120t140 -48q99 0 171 48t132 149l66 -64q-65 -127 -163 -188t-214 -61zM240 649h497v58q0 160 -56.5 248.5t-172.5 88.5
q-122 0 -195 -90.5t-73 -246.5v-58z" />
    <glyph glyph-name="uni2139" unicode="&#x2139;" horiz-adv-x="1638" 
d="M819 -16q-150 0 -287.5 58.5t-236.5 157.5t-158 236.5t-59 288.5q0 150 59 287.5t158 236.5t236.5 158t287.5 59t287.5 -59t237 -158t158.5 -236.5t59 -287.5q0 -151 -59 -288.5t-158.5 -236.5t-237 -157.5t-287.5 -58.5zM819 98q170 0 314 84t228 228.5t85 314.5
q0 170 -84 314.5t-228.5 228.5t-314.5 84q-127 0 -243 -49.5t-200 -133.5t-133.5 -200.5t-49.5 -243.5t49.5 -243.5t133.5 -200.5t200 -133.5t243 -49.5zM819 930q-63 0 -108 44t-45 109q0 61 45.5 104.5t107.5 43.5t108 -43.5t46 -104.5q0 -65 -45.5 -109t-108.5 -44z
M672 287v573h293v-573h-293z" />
    <glyph glyph-name="uni213B" unicode="&#x213b;" horiz-adv-x="1646" 
d="M1544 0h-1442v633h228v704h633l358 -358v-346h223v-633zM1198 989l-223 225v-225h223zM1241 633v276h-348v348h-483v-624h831zM1464 80l-2 473h-1280v-473h1282zM799 1083h-295v80h295v-80zM1147 737h-643v78h643v-78zM799 909h-295v80h295v-80zM799 164h-295v80h295v-80
z" />
    <glyph glyph-name="onethird" unicode="&#x2153;" horiz-adv-x="1226" 
d="M936 -16q-97 0 -168 32l20 101q81 -29 138 -29t89 29.5t32 89.5q0 74 -37.5 102.5t-122.5 34.5v80q69 9 101 40t32 93q0 45 -22.5 70.5t-63.5 25.5q-51 0 -111 -35l-24 84q72 52 151 52t131 -49t52 -132q0 -56 -26 -104t-71 -72q60 -17 93.5 -69.5t33.5 -120.5
q0 -115 -65.5 -169t-161.5 -54zM1067 1255l-905 -1138l-80 63l909 1143zM205 842v643h-129v102l246 10v-755h-117z" />
    <glyph glyph-name="twothirds" unicode="&#x2154;" horiz-adv-x="1259" 
d="M969 -10q-95 0 -168 33l20 100q81 -29 137 -29q57 0 89 29.5t32 89.5q0 74 -37 102.5t-122 34.5v80q69 9 101 40t32 93q0 45 -22.5 70.5t-63.5 25.5q-52 0 -111 -34l-25 84q71 51 152 51q79 0 130.5 -48.5t51.5 -131.5q0 -57 -25.5 -105t-70.5 -72q60 -17 93.5 -69.5
t33.5 -120.5q0 -115 -65.5 -169t-161.5 -54zM61 850v102q135 129 172 169q110 123 118 233q1 10 1 20q0 59 -24 92t-64 33q-39 0 -76.5 -19t-62.5 -50l-45 79q34 46 86.5 74.5t107.5 28.5q82 0 137.5 -60.5t55.5 -165.5q0 -57 -18.5 -111.5t-42.5 -93.5t-67 -84.5
t-71.5 -70.5t-77.5 -65h283v-111h-412zM1143 1255l-905 -1138l-80 63l909 1143z" />
    <glyph glyph-name="uni215B" unicode="&#x215b;" horiz-adv-x="1183" 
d="M219 842v643h-129v102l246 10v-755h-117zM1047 1303l-906 -1139l-80 63l910 1143zM897 -12q-98 0 -156.5 48.5t-58.5 151.5q0 117 109 211q-89 67 -89 170q0 89 58 141t145 52q92 0 144.5 -49.5t52.5 -130.5q0 -112 -109 -185q127 -79 127 -194q0 -105 -61 -160t-162 -55
zM899 74q49 0 78 37t29 100q0 22 -9 40.5t-31.5 36.5t-38 28t-51.5 30q-9 5 -14 8q-67 -53 -67 -151q0 -62 26.5 -95.5t77.5 -33.5zM918 440q73 58 73 129q0 103 -88 103q-94 0 -94 -111q0 -36 27.5 -63t81.5 -58z" />
    <glyph glyph-name="threesup_fraction_eightinf" unicode="&#x215c;" horiz-adv-x="1284" 
d="M229 840q-85 0 -168 32l21 101q88 -27 137 -27q121 0 121 117q0 74 -37 102.5t-123 36.5v80q69 8 101 38.5t32 92.5q0 45 -22.5 70.5t-63.5 25.5q-51 0 -110 -34l-25 84q74 53 152 53q79 0 130.5 -49t51.5 -133q0 -57 -25.5 -105t-70.5 -72q60 -17 93.5 -68.5
t33.5 -119.5q0 -115 -66 -170t-162 -55zM1096 1255l-906 -1138l-79 63l909 1143zM987 -12q-98 0 -156.5 48.5t-58.5 151.5q0 117 109 211q-88 66 -88 170q0 89 57.5 141t144.5 52q92 0 144.5 -49.5t52.5 -130.5q0 -112 -109 -185q127 -79 127 -194q0 -105 -61 -160t-162 -55
zM989 74q49 0 78 37t29 100q0 22 -9 40.5t-31.5 36.5t-38 28t-51.5 30q-9 5 -14 8q-67 -53 -67 -151q0 -62 26.5 -95.5t77.5 -33.5zM1008 440q73 58 73 129q0 103 -88 103q-94 0 -94 -111q0 -36 27.5 -63t81.5 -58z" />
    <glyph glyph-name="fivesup_fraction_eightinf" unicode="&#x215d;" horiz-adv-x="1277" 
d="M1079 1255l-905 -1138l-80 63l910 1143zM979 -12q-98 0 -156.5 48.5t-58.5 151.5q0 118 108 211q-88 66 -88 170q0 89 58 141t145 52q92 0 144.5 -49.5t52.5 -130.5q0 -112 -109 -185q127 -79 127 -194q0 -105 -61 -160t-162 -55zM981 74q49 0 77.5 37t28.5 100
q0 22 -8.5 40.5t-32.5 37.5t-37.5 27.5t-52.5 30.5q-8 5 -12 7q-67 -53 -67 -151q0 -62 26.5 -95.5t77.5 -33.5zM999 440q74 59 74 129q0 103 -88 103q-94 0 -94 -111q0 -36 27 -63t81 -58zM260 836q-19 0 -37.5 1.5t-30 2.5t-28 4.5t-23 5t-24 6.5t-21.5 6l25 105
q83 -27 137 -27q50 0 75 36.5t25 94.5q0 137 -100 137q-53 0 -137 -8v399h338v-104h-234v-186q2 0 18.5 1t32.5 1q90 0 145.5 -60t55.5 -168q0 -114 -61.5 -180.5t-155.5 -66.5z" />
    <glyph glyph-name="sevensup_fraction_eightinf" unicode="&#x215e;" horiz-adv-x="1277" 
d="M1063 1255l-905 -1138l-80 63l909 1143zM979 -12q-98 0 -156.5 48.5t-58.5 151.5q0 118 108 211q-88 66 -88 170q0 89 58 141t145 52q92 0 144.5 -49.5t52.5 -130.5q0 -112 -109 -185q127 -79 127 -194q0 -105 -61 -160t-162 -55zM981 74q49 0 77.5 37t28.5 100
q0 22 -8.5 40.5t-32.5 37.5t-37.5 27.5t-52.5 30.5q-8 5 -12 7q-67 -53 -67 -151q0 -62 26.5 -95.5t77.5 -33.5zM999 440q74 59 74 129q0 103 -88 103q-94 0 -94 -111q0 -36 27 -63t81 -58zM258 827l-108 41l264 619h-287v112h405v-94z" />
    <glyph glyph-name="arrowleft" unicode="&#x2190;" horiz-adv-x="1251" 
d="M453 223l-377 393l375 392l86 -99l-205 -225h842l-3 -135h-841l209 -232z" />
    <glyph glyph-name="arrowup" unicode="&#x2191;" horiz-adv-x="1251" 
d="M231 836l396 376l389 -374l-98 -86l-224 202v-837h-137v841l-229 -208z" />
    <glyph glyph-name="arrowright" unicode="&#x2192;" horiz-adv-x="1251" 
d="M799 1010l375 -394l-377 -393l-86 96l204 228h-839v137h837l-202 225z" />
    <glyph glyph-name="arrowdown" unicode="&#x2193;" horiz-adv-x="1251" 
d="M1020 379l-397 -377l-394 373l101 88l223 -201v836h139v-842l228 211z" />
    <glyph glyph-name="uni2196" unicode="&#x2196;" horiz-adv-x="1251" 
d="M213 508v545h543v-133h-312l594 -590l-100 -101l-592 596v-317h-133z" />
    <glyph glyph-name="uni2197" unicode="&#x2197;" horiz-adv-x="1251" 
d="M494 1055h542v-545h-133v315l-590 -596l-100 101l594 590h-313v135z" />
    <glyph glyph-name="uni2198" unicode="&#x2198;" horiz-adv-x="1251" 
d="M1038 633v-547h-542v135h309l-594 590l102 98l590 -596v320h135z" />
    <glyph glyph-name="uni2199" unicode="&#x2199;" horiz-adv-x="1251" 
d="M758 88h-545v543h135v-309l588 593l100 -104l-596 -588h318v-135z" />
    <glyph glyph-name="home" unicode="&#x21b8;" horiz-adv-x="1597" 
d="M1495 819h-188v-819h-1006v819h-199l697 553zM1276 893l-479 375l-484 -375h963zM1227 80v739h-846v-739h473v518h238v-518h135zM723 360h-238v238h238v-238z" />
    <glyph glyph-name="partialdiff" unicode="&#x2202;" horiz-adv-x="845" 
d="M778 668q0 -695 -364 -695q-60 0 -108.5 11.5t-94 42.5t-76 81t-49 132.5t-18.5 191.5q0 86 23 168.5t65.5 150t110 109t149.5 41.5q87 0 182 -29q-48 353 -344 465l51 144q47 -18 86 -38t89.5 -55t90 -77t80 -105t67 -138t43.5 -178t17 -222zM618 651v74
q-116 29 -206 29q-92 0 -142.5 -97t-50.5 -245q0 -131 49 -216t135 -85q59 0 101.5 38t67 111t35.5 168.5t11 222.5z" />
    <glyph glyph-name="Delta" unicode="&#x2206;" horiz-adv-x="1001" 
d="M999 0h-997l422 1448h201zM797 141l-248 1018l-25 154h-6l-29 -154l-284 -1018h592z" />
    <glyph glyph-name="product" unicode="&#x220f;" horiz-adv-x="1040" 
d="M1049 1307h-146v-1758h-164v1758h-438v-1758h-162v1758h-145v141h1055v-141z" />
    <glyph glyph-name="summation" unicode="&#x2211;" horiz-adv-x="739" 
d="M721 -451h-690v150l282 799l-284 798v152h692v-148h-518l284 -804l-280 -795h514v-152z" />
    <glyph glyph-name="minus" unicode="&#x2212;" horiz-adv-x="694" 
d="M651 516h-608v146h608v-146z" />
    <glyph glyph-name="radical" unicode="&#x221a;" horiz-adv-x="921" 
d="M944 1714l-373 -1714h-196l-182 975h-205v139h334l139 -807l12 -151h6l17 145l292 1413h156z" />
    <glyph glyph-name="infinity" unicode="&#x221e;" horiz-adv-x="1454" 
d="M1372 602q0 -66 -18 -125t-52 -105.5t-88.5 -74t-121.5 -27.5q-43 0 -85 14.5t-85 45.5t-71 55t-73 67.5t-61 57.5l-23.5 -23.5l-30 -30t-31.5 -30.5t-37 -33.5t-38 -31t-41.5 -31t-41 -25t-44 -21.5t-42 -12.5t-42.5 -5.5q-69 0 -121.5 26.5t-83 72.5t-46 101.5
t-15.5 119.5q0 144 73 236.5t201 92.5q44 0 86.5 -14.5t84.5 -44.5t70 -54t71.5 -66.5t60.5 -57.5l27.5 27.5t34 33t36 33.5t42 36t43 32t47.5 30.5t46.5 22.5t50 17t48.5 5q131 0 200.5 -90t69.5 -223zM1231 594q0 86 -39 135t-98 49q-91 0 -273 -182q108 -103 163 -140
q70 -48 118 -48q58 0 93.5 52.5t35.5 133.5zM625 592q-3 2 -21 20t-24.5 24t-26 23.5t-29 25.5t-28.5 23t-31 23t-29 18.5t-30 15.5t-28 9t-28 4q-58 0 -93.5 -51.5t-35.5 -130.5q0 -88 36 -138t99 -50q30 0 67 18t79 53t65 56.5t58 56.5z" />
    <glyph glyph-name="integral" unicode="&#x222b;" horiz-adv-x="540" 
d="M598 1321q-56 -6 -90.5 -12.5t-67 -19.5t-50 -30.5t-31 -46.5t-18.5 -67.5t-5 -93.5v-1098q0 -109 -23.5 -188t-59.5 -124t-92.5 -71.5t-110 -34.5t-124.5 -8l-10 147q82 7 129.5 20.5t78.5 45t41.5 79.5t10.5 128v1102q0 78 12.5 141.5t34 107t53.5 76t65.5 51t77 30
t82 15t85.5 3.5z" />
    <glyph glyph-name="approxequal" unicode="&#x2248;" horiz-adv-x="845" 
d="M795 885q-54 -59 -104.5 -88t-115.5 -29q-45 0 -90 17t-76 37.5t-71.5 37.5t-77.5 17q-15 0 -29.5 -3t-24 -6.5t-24.5 -12.5t-21 -13t-22.5 -17t-21.5 -16l-66 117q102 106 225 106q47 0 90 -17.5t70.5 -38.5t65.5 -38.5t76 -17.5q35 0 63.5 16.5t77.5 56.5zM795 537
q-54 -59 -104.5 -88t-115.5 -29q-56 0 -111.5 27t-106.5 54t-97 27q-18 0 -33 -3t-32 -12t-24.5 -13t-28.5 -19.5t-25 -17.5l-66 117q102 106 225 106q38 0 73 -11.5t61 -28t51 -33.5t55 -28.5t62 -11.5q24 0 49 11t41 23t51 40z" />
    <glyph glyph-name="notequal" unicode="&#x2260;" horiz-adv-x="684" 
d="M645 319h-352l-125 -266h-125l125 266h-129v136h188l125 264h-313v133h373l104 223h125l-104 -223h108v-133h-168l-125 -264h293v-136z" />
    <glyph glyph-name="lessequal" unicode="&#x2264;" horiz-adv-x="696" 
d="M649 285l-602 340v198l602 338v-162l-485 -272v-8l485 -270v-164zM649 0h-602v139h602v-139z" />
    <glyph glyph-name="greaterequal" unicode="&#x2265;" horiz-adv-x="696" 
d="M649 625l-602 -340v164l485 270v8l-485 272v162l602 -338v-198zM649 0h-602v139h602v-139z" />
    <glyph glyph-name="uni231A" unicode="&#x231a;" horiz-adv-x="1609" 
d="M1542 725q0 -151 -58 -287.5t-157 -235t-235.5 -156.5t-286.5 -58t-286.5 58t-235.5 156.5t-157 235t-58 287.5q0 150 58 286.5t157 235.5t235.5 157t286.5 58t286.5 -58t235.5 -157t157 -235.5t58 -286.5zM1456 725q0 133 -51 254t-138 208t-208 138t-254 51t-254 -51
t-208 -138t-138 -208t-51 -254t51 -254t138 -208t208 -138t254 -51t254 51t208 138t138 208t51 254zM1141 1231l-41 -51l-53 30l30 62zM1350 999l-64 -30l-31 55l54 41zM1411 698h-61v64h61v-64zM567 1210l-53 -32l-41 53l64 41zM1348 461l-41 -64l-54 41l31 54zM840 696
h-410v68h342v536h68v-604zM358 1024l-30 -55l-62 30l39 66zM1141 229l-66 -36l-31 59l56 31zM838 127h-62v66h62v-66zM266 698h-63v64h63v-64zM360 438l-55 -41l-39 64l64 31zM567 252l-30 -59l-64 36l41 54z" />
    <glyph glyph-name="uni235F" unicode="&#x235f;" horiz-adv-x="1363" 
d="M1262 682q0 -115 -45 -220.5t-121.5 -182t-182 -121.5t-221.5 -45q-154 0 -285 76.5t-207.5 207.5t-76.5 285q0 155 76.5 286t207.5 207t285 76q116 0 221.5 -45t182 -121t121.5 -181.5t45 -221.5zM1006 788l-263 -20l-61 254l-61 -254l-261 20l224 -137l-101 -241
l199 172l201 -172l-103 241z" />
    <glyph glyph-name="uni24BB" unicode="&#x24bb;" horiz-adv-x="1624" 
d="M1559 725q0 -204 -100 -376t-271 -272t-373 -100q-152 0 -290 59t-238.5 159t-159.5 239t-59 291t59 290.5t159 238.5t238 159.5t289 59.5q203 0 374.5 -100.5t271.5 -272.5t100 -375zM1444 725q0 128 -49.5 245t-134 201.5t-201 134.5t-244.5 50q-129 0 -246 -50
t-202 -134.5t-135 -201.5t-50 -245t50 -245t134.5 -201.5t201.5 -134.5t245 -50q129 0 246 50t201 134.5t134 201.5t50 245zM1006 938h-279v-197h262v-79h-262v-238h-104v598h383v-84z" />
    <glyph glyph-name="uni24C2" unicode="&#x24c2;" horiz-adv-x="1624" 
d="M477 424v598h144l186 -514l209 514h133v-598h-105v364l7 89l-183 -453h-131l-164 455l9 -82v-373h-105zM815 -23q-152 0 -290 59t-238.5 159t-159.5 239t-59 291t59 290.5t159 238.5t238 159.5t289 59.5q203 0 374.5 -100.5t271.5 -272.5t100 -375q0 -204 -100 -376
t-271 -272t-373 -100zM813 94q129 0 246 50t201 134.5t134 201.5t50 245t-49.5 245t-134 201.5t-201 134.5t-244.5 50q-129 0 -246 -50t-202 -134.5t-135 -201.5t-50 -245t50 -245t134.5 -201.5t201.5 -134.5t245 -50z" />
    <glyph glyph-name="uni24C9" unicode="&#x24c9;" horiz-adv-x="1624" 
d="M1559 723q0 -203 -100 -375t-271 -271.5t-373 -99.5q-152 0 -290 59t-238.5 158.5t-159.5 238t-59 290.5t59 290t159 238.5t238 159.5t289 59q152 0 290 -59t238 -159.5t159 -238.5t59 -290zM1444 723q0 128 -49.5 245t-134 201.5t-201 134.5t-244.5 50q-129 0 -246 -50
t-202 -134.5t-135 -201.5t-50 -245t50 -245t134.5 -201.5t201.5 -134.5t245 -50q129 0 246 50t201 134.5t134 201.5t50 245zM1061 934h-197v-512h-104v512h-199v86h500v-86z" />
    <glyph glyph-name="uni24CC" unicode="&#x24cc;" horiz-adv-x="1624" 
d="M1559 721q0 -204 -100 -376t-271 -272t-373 -100q-152 0 -290 59t-238.5 159t-159.5 239t-59 291q0 151 59 289t159 238t238 159t289 59q152 0 290 -59t238 -159t159 -238t59 -289zM1444 721q0 128 -49.5 245t-134 201.5t-201 134.5t-244.5 50q-129 0 -246 -50
t-202 -134.5t-135 -201.5t-50 -245q0 -129 50 -246t134.5 -202t201.5 -135t245 -50q129 0 246 50t201 135t134 202t50 246zM1243 1016l-186 -598h-135l-88 248l-27 90l-33 -88l-98 -250h-139l-154 598h104l103 -412l22 -119l45 121l107 260l-51 150h104l137 -414l35 -115
l33 121l121 408h100z" />
    <glyph glyph-name="uni25A0" unicode="&#x25a0;" horiz-adv-x="1896" 
d="M225 0v1448h1446v-1448h-1446z" />
    <glyph glyph-name="uni25A1" unicode="&#x25a1;" horiz-adv-x="1638" 
d="M123 27v1394h1393v-1394h-1393zM266 170h1106v1108h-1106v-1108z" />
    <glyph glyph-name="uni25AA" unicode="&#x25aa;" horiz-adv-x="1568" 
d="M225 0v1120h1118v-1120h-1118z" />
    <glyph glyph-name="uni25AB" unicode="&#x25ab;" horiz-adv-x="1568" 
d="M225 0v1120h1118v-1120h-1118zM379 156h811v811h-811v-811z" />
    <glyph glyph-name="uni25B6" unicode="&#x25b6;" horiz-adv-x="1361" 
d="M225 -84v1372l1096 -686z" />
    <glyph glyph-name="uni25B7" unicode="&#x25b7;" horiz-adv-x="1361" 
d="M225 -84v1372l1096 -686zM383 190l688 410l-688 420v-830z" />
    <glyph glyph-name="uni25B8" unicode="&#x25b8;" horiz-adv-x="952" 
d="M909 559l-684 -686v1372z" />
    <glyph glyph-name="uni25B9" unicode="&#x25b9;" horiz-adv-x="952" 
d="M909 559l-684 -686v1372zM684 559l-297 299v-598z" />
    <glyph glyph-name="uni25BA" unicode="&#x25ba;" horiz-adv-x="2074" 
d="M2075 559l-1850 -686v1372z" />
    <glyph glyph-name="uni25BB" unicode="&#x25bb;" horiz-adv-x="2074" 
d="M2075 559l-1850 -686v1372zM1640 559l-1251 449v-897z" />
    <glyph glyph-name="uni25C0" unicode="&#x25c0;" horiz-adv-x="1361" 
d="M1137 -84l-1096 686l1096 686v-1372z" />
    <glyph glyph-name="uni25C1" unicode="&#x25c1;" horiz-adv-x="1361" 
d="M1137 -84l-1096 686l1096 686v-1372zM979 190v830l-688 -420z" />
    <glyph glyph-name="uni25C2" unicode="&#x25c2;" horiz-adv-x="950" 
d="M725 -127l-684 688l684 684v-1372z" />
    <glyph glyph-name="uni25C3" unicode="&#x25c3;" horiz-adv-x="950" 
d="M725 -127l-684 688l684 684v-1372zM565 260v598l-299 -299z" />
    <glyph glyph-name="uni25C4" unicode="&#x25c4;" horiz-adv-x="2074" 
d="M1849 -127l-1849 684l1849 688v-1372z" />
    <glyph glyph-name="uni25C5" unicode="&#x25c5;" horiz-adv-x="2074" 
d="M1849 -127l-1849 684l1849 688v-1372zM1686 111v897l-1252 -451z" />
    <glyph glyph-name="uni25C6" unicode="&#x25c6;" horiz-adv-x="1044" 
d="M522 352l-358 359l358 358l359 -358z" />
    <glyph glyph-name="uni25C9" unicode="&#x25c9;" horiz-adv-x="1824" 
d="M1640 719q0 -300 -215 -512q-212 -215 -512 -215q-302 0 -514 215q-215 212 -215 512q0 302 215 514q212 215 514 215q300 0 512 -215q215 -212 215 -514zM1532 719q0 259 -182 438q-177 180 -437 180q-261 0 -438 -180q-180 -177 -180 -438q0 -259 180 -436
q183 -183 438 -183q257 0 437 183q182 176 182 436zM1233 719q0 -131 -94 -225q-95 -95 -226 -95q-132 0 -227 95q-94 94 -94 225q0 133 94 227t227 94q132 0 226 -94t94 -227z" />
    <glyph glyph-name="lozenge" unicode="&#x25ca;" horiz-adv-x="804" 
d="M776 723l-295 -723h-180l-278 727l294 723h179zM606 719l-174 514l-20 84h-11l-22 -82l-186 -504l172 -495l28 -101h10l29 101z" />
    <glyph glyph-name="uni25CB" unicode="&#x25cb;" horiz-adv-x="1509" 
d="M754 -14q-118 0 -226 46t-185.5 124t-123 185t-45.5 224q0 158 77.5 291.5t211 211t291.5 77.5t291.5 -77.5t210.5 -211t77 -291.5q0 -156 -77 -289.5t-210.5 -211.5t-291.5 -78zM754 150q174 0 297 121t123 294q0 174 -123 297t-297 123t-297 -123t-123 -297
q0 -173 123 -294t297 -121z" />
    <glyph glyph-name="uni25CE" unicode="&#x25ce;" horiz-adv-x="1824" 
d="M1632 739q0 -297 -211 -508t-508 -211q-299 0 -510 211q-210 210 -210 508q0 300 210 510q211 211 510 211q297 0 508 -211t211 -510zM1526 739q0 255 -180 435q-178 178 -433 178q-256 0 -434 -178t-178 -435q0 -254 178 -432q183 -180 434 -180q253 0 433 180
q180 177 180 432zM1337 739q0 -171 -125 -299q-123 -123 -299 -123t-299 123q-125 125 -125 299q0 176 125 301q123 123 299 123t299 -123q125 -128 125 -301zM1229 739q0 134 -92 226t-224 92q-133 0 -225 -92t-92 -226q0 -131 92 -223t225 -92q132 0 224 92t92 223z
M1040 739q0 -54 -36 -90q-37 -37 -91 -37q-53 0 -90 37q-37 40 -37 90q0 53 37 90q36 39 90 39q52 0 91 -39q36 -36 36 -90z" />
    <glyph glyph-name="uni25CF" unicode="&#x25cf;" horiz-adv-x="1568" 
d="M782 -10q-155 0 -286.5 76.5t-208 207.5t-76.5 285q0 155 76.5 286t208 207t286.5 76q115 0 220.5 -45t182 -121t122 -181.5t45.5 -221.5q0 -154 -76.5 -285t-208 -207.5t-285.5 -76.5z" />
    <glyph glyph-name="uni25EF" unicode="&#x25ef;" horiz-adv-x="1816" 
d="M909 -10q-201 0 -370 98.5t-267 267.5t-98 369t98 369t267 267.5t370 98.5q200 0 368.5 -98.5t266.5 -267.5t98 -369t-98 -369t-266.5 -267.5t-368.5 -98.5zM909 152q155 0 287 76.5t209.5 208.5t77.5 288q0 116 -45.5 222t-123 183t-183.5 122.5t-222 45.5
q-156 0 -288.5 -77t-209.5 -209t-77 -287q0 -117 45.5 -223t122.5 -182.5t183.5 -122t223.5 -45.5z" />
    <glyph glyph-name="star" unicode="&#x2605;" horiz-adv-x="1198" 
d="M262 215l148 399l-355 238l426 -16l115 411l117 -411l426 16l-355 -238l148 -399l-336 264z" />
    <glyph glyph-name="uni260F" unicode="&#x260f;" horiz-adv-x="1347" 
d="M1245 256q-83 -79 -138 -124t-75.5 -56t-44.5 -19q-32 -11 -86 9q-135 53 -267 184.5t-245 288.5q-158 226 -219 372q-63 152 -68 265q1 5 2.5 19.5t3 21t5.5 18.5t10 22q25 38 117 104t147 93l209 -364l-131 -97l381 -530l119 102zM1110 264l-149 164l-103 -90
q-8 -11 -25.5 -6t-33.5 28l-449 625q-16 19 -13.5 35.5t17.5 23.5l105 89l-115 184q-46 -24 -94 -84.5t-41 -108.5q39 -232 256 -528q51 -68 91 -117t99.5 -115t121 -115t120.5 -77q40 -19 104 15t109 77z" />
    <glyph glyph-name="uni2612" unicode="&#x2612;" horiz-adv-x="1568" 
d="M225 0v1120h1118v-1120h-1118zM385 242l315 317l-315 318v-635zM469 160h643l-328 315zM784 643l320 318h-639zM1184 252v625l-316 -318z" />
    <glyph glyph-name="uni261C" unicode="&#x261c;" horiz-adv-x="1566" 
d="M1464 199h-137q-19 0 -40 -13.5t-38.5 -29.5t-47.5 -29.5t-64 -13.5h-385q-80 0 -124 41.5t-44 105.5q0 19 6 37q-43 15 -69.5 53.5t-26.5 83.5q0 29 16 66q-31 36 -31 86q0 20 13 55h-238q-71 0 -111.5 43t-40.5 102q0 62 44 108t124 46h539l-92 86q-62 59 -62 121
q0 87 121 205l486 -389h200v-78h-229l-455 364q-41 -41 -41 -88q0 -58 60 -108l221 -191h-748q-43 0 -66.5 -22t-23.5 -52q0 -28 19.5 -48.5t54.5 -20.5h684v-78h-365q-16 -29 -16 -45q0 -19 14 -36t45 -17h322v-78h-358q-11 -14 -11 -45q0 -53 97 -53h272v-78h-268
q-8 -8 -8 -33q0 -28 28.5 -47t61.5 -19h385q26 0 50 13.5t40 29.5t42.5 29.5t57.5 13.5h137v-77z" />
    <glyph glyph-name="uni261D" unicode="&#x261d;" horiz-adv-x="1443" 
d="M1341 739l-389 -485v-254h-78v283l365 454q-41 41 -88 41q-60 0 -109 -59l-190 -221v747q0 43 -22 66.5t-52 23.5q-28 0 -48.5 -19t-20.5 -54v-684h-78v364q-29 16 -45 16q-19 0 -36.5 -14t-17.5 -45v-321h-77v358q-13 10 -45 10q-54 0 -54 -96v-272h-77v266
q-7 10 -33 10q-28 0 -47 -28.5t-19 -61.5v-385q0 -26 13.5 -50t29.5 -40.5t29.5 -43t13.5 -57.5v-190h-78v190q0 23 -21.5 50t-43 62.5t-21.5 78.5v385q0 80 42 124t106 44q19 0 37 -6q15 43 53.5 69.5t83.5 26.5q28 0 65 -16q38 30 86 30q24 0 56 -12v238q0 71 42.5 111
t102.5 40q62 0 108 -44t46 -124v-538l86 92q58 61 121 61q86 0 204 -121z" />
    <glyph glyph-name="uni261E" unicode="&#x261e;" horiz-adv-x="1566" 
d="M1464 786q0 -60 -40 -102.5t-111 -42.5h-238q12 -32 12 -55q0 -48 -30 -86q16 -37 16 -66q0 -45 -26.5 -83.5t-69.5 -53.5q6 -18 6 -37q0 -64 -44 -105.5t-124 -41.5h-385q-34 0 -64 13.5t-47.5 29.5t-38.5 29.5t-40 13.5h-138v77h138q31 0 57.5 -13.5t42.5 -29.5
t40 -29.5t50 -13.5h385q33 0 61.5 19t28.5 47q0 26 -10 33h-266v78h272q96 0 96 53q0 32 -10 45h-358v78h321q31 0 45.5 17.5t14.5 35.5q0 14 -17 45h-364v78h684q35 0 54 20.5t19 48.5q0 30 -23.5 52t-66.5 22h-747l221 191q59 49 59 108q0 47 -41 88l-454 -364h-230v78
h201l486 389q120 -117 120 -205q0 -63 -61 -121l-92 -86h538q80 0 124 -46t44 -108z" />
    <glyph glyph-name="uni261F" unicode="&#x261f;" horiz-adv-x="1443" 
d="M1341 739l-389 -485v-254h-78v283l365 454q-41 41 -88 41q-60 0 -109 -59l-190 -221v327q0 90 -53 90q-29 0 -49.5 -19t-20.5 -54v-264h-78v690q0 34 -18.5 56t-44.5 22q-25 0 -40.5 -21.5t-15.5 -56.5v-690h-77v329q-14 11 -45 11q-30 0 -42 -12.5t-12 -55.5v-272h-77
v266q-7 10 -33 10q-28 0 -47 -28.5t-19 -61.5v-385q0 -26 13.5 -50t29.5 -40.5t29.5 -43t13.5 -57.5v-190h-78v190q0 23 -21.5 50t-43 62.5t-21.5 78.5v385q0 80 42 124t106 44q19 0 37 -6q41 67 119 67q21 0 49 -14v313q0 58 46 98t97 40q52 0 92.5 -39.5t40.5 -90.5v-319
q29 12 66 12q60 0 96.5 -43t36.5 -125v-118l86 92q54 57 137 57q44 0 85 -26.5t103 -90.5z" />
    <glyph glyph-name="smileface" unicode="&#x263a;" horiz-adv-x="1699" 
d="M850 279q-153 0 -272 93.5t-156 239.5l106 33q31 -110 120.5 -180t203.5 -70q119 0 209 72.5t115 187.5l102 -41q-32 -146 -152 -240.5t-276 -94.5zM610 813q-44 0 -75 29.5t-31 72.5t31 73t75 30q43 0 76 -30.5t33 -72.5t-33 -72t-76 -30zM850 -12q-150 0 -286.5 58
t-234.5 157t-156 235.5t-58 286.5q0 200 98 369t267 267.5t370 98.5t370 -98.5t267 -267.5t98 -369q0 -150 -58 -286.5t-156 -235.5t-234.5 -157t-286.5 -58zM850 137q160 0 295 78.5t214 214t79 295.5q0 158 -79 293t-214.5 214t-294.5 79t-294.5 -79t-214.5 -214t-79 -293
q0 -160 79 -295.5t214 -214t295 -78.5zM1090 813q-44 0 -75.5 29.5t-31.5 72.5t31.5 73t75.5 30q43 0 75.5 -30.5t32.5 -72.5t-32.5 -72t-75.5 -30z" />
    <glyph glyph-name="earth" unicode="&#x2641;" horiz-adv-x="1609" 
d="M1542 725q0 -151 -58 -287.5t-157 -235t-235.5 -156.5t-286.5 -58t-286.5 58t-235.5 156.5t-157 235t-58 287.5q0 150 58 286.5t157 235.5t235.5 157t286.5 58t286.5 -58t235.5 -157t157 -235.5t58 -286.5zM414 1149l-60 -43l-32 51l2 2h-5l3 -2q-168 -180 -168 -432
q0 -133 51 -254t138 -208t208 -138t254 -51t254 51t208 138t138 208t51 254q0 67 -14 141l-10 -100l-101 -66l35 -41l-57 -28l-21 37l-10 -2l10 -54l43 -24l-16 -15l-27 9l6 -21l23 -2l20 -39l62 -22l4 -21l-74 12l-98 105l39 -4l-56 131v33h-16l-6 -31l-55 -41v-39l-52 -12
l-26 74l-19 6l2 43l-165 28l26 -43l37 11l29 -29l-29 -37l-80 -25l-69 138h-21l-2 -27l47 -98l37 -27l66 4l-111 -155l12 -13l4 -49l-30 -31l-2 -36l-78 -95l-72 4l-55 158l16 23v39l-45 55l18 12l-45 29l-100 4l-53 55l-2 101l127 110l65 6l17 -18l-4 -27l51 -16l26 33
l19 -29h82l12 12v49l-29 -49l-49 62l17 -62l-45 37l-7 39l-43 49l-8 -8l35 -41l-23 -39l-4 33l-45 35l-22 -21l-12 8l-84 -69l-29 71l53 -2l19 23l-29 18l43 27l20 2l35 33l-10 37l20 8l13 -29l65 8l2 25l82 27l-12 14l-55 -14l-15 28l33 25l-18 20l-43 -55l16 -12l-4 -33
l-41 -12l-10 24l-45 -6l4 39l73 100l91 19l122 -29l-22 -33l-47 4l31 -32l94 61h71l-40 55l47 54l67 28q-106 39 -227 39q-144 0 -269 -57t-212 -160l61 17zM1155 1280q-74 38 -123 57l10 -22l-63 -23l-37 -47l74 -47l-12 23l45 49l92 -31zM897 449l-29 -105l-43 29l13 53
l43 33zM1438 567l-27 -51l-47 12l2 39l43 43zM514 1016l-2 -27h-55l12 27l-31 43l25 22l12 -37zM446 1006l-20 -23l-23 21l19 36zM606 858l-18 8l12 19z" />
    <glyph glyph-name="uni2661" unicode="&#x2661;" horiz-adv-x="1378" 
d="M1276 768q0 -79 -57.5 -181.5t-143.5 -203.5l-387 -457l-315 359q-119 134 -195 267t-76 216q0 85 29.5 157t77 118.5t106 72t119.5 25.5q129 0 256 -115q118 115 254 115q60 0 118.5 -25.5t106.5 -71.5t77.5 -118t29.5 -158zM1155 768q0 120 -66.5 186t-144.5 66
q-40 0 -75.5 -14.5t-58.5 -32t-49 -53t-38 -56.5t-35 -63q-48 90 -76 125q-79 94 -178 94q-35 0 -71 -16t-68 -46t-52 -79.5t-20 -110.5q0 -59 64 -167t151 -208l252 -291l293 347q76 90 124 180.5t48 138.5z" />
    <glyph glyph-name="uni2665" unicode="&#x2665;" horiz-adv-x="1378" 
d="M1276 768q0 -79 -57.5 -181.5t-143.5 -203.5l-387 -457l-315 359q-119 134 -195 267t-76 216q0 85 29.5 157t77 118.5t106 72t119.5 25.5q129 0 256 -115q118 115 254 115q60 0 118.5 -25.5t106.5 -71.5t77.5 -118t29.5 -158z" />
    <glyph glyph-name="uni2708" unicode="&#x2708;" horiz-adv-x="1609" 
d="M1542 725q0 -150 -58 -286.5t-157 -235.5t-235.5 -157t-286.5 -58t-286.5 58t-235.5 157t-157 235.5t-58 286.5t58 286.5t157 235.5t235.5 157t286.5 58t286.5 -58t235.5 -157t157 -235.5t58 -286.5zM1456 725q0 133 -51 254t-138 208t-208 138t-254 51t-254 -51
t-208 -138t-138 -208t-51 -254t51 -254t138 -208t208 -138t254 -51t254 51t208 138t138 208t51 254zM1171 1049q0 -33 -16 -52l-162 -178l174 -383l-88 -92l-235 330l-152 -156l29 -211l-74 -24l-90 196l-199 84l11 76l223 -27l151 158l-333 221l88 92l385 -159l176 166
q20 20 47 20q30 0 47.5 -17.5t17.5 -43.5z" />
    <glyph glyph-name="uni2709" unicode="&#x2709;" horiz-adv-x="1548" 
d="M1446 104h-1344v992h1344v-992zM1362 238v718l-381 -344zM1315 1014h-1073l538 -465zM1305 182l-390 373l-65 -63q-19 -19 -33.5 -23t-44.5 -4q-26 0 -39.5 7t-36.5 28l-67 59l-389 -377h1065zM569 614l-387 334v-719z" />
    <glyph glyph-name="uni270E" unicode="&#x270e;" horiz-adv-x="1564" 
d="M1462 1020l-772 -778l-588 -222l228 570l784 778zM1200 1169l-92 84l-647 -655l92 -86zM1346 1016l-93 92l-647 -655l92 -95zM647 303l-248 242l-108 -252l88 -94z" />
    <glyph glyph-name="uni2740" unicode="&#x2740;" horiz-adv-x="888" 
d="M786 432l-280 -422v-10h-121v6l-283 426q33 8 76 8q60 0 103 -22q84 -48 104 -221v319q-85 25 -134.5 89.5t-49.5 148.5q0 44 1 208.5t1 208.5l145 -92l90 97l97 -99l151 94v-417q0 -84 -47.5 -148t-132.5 -88v-305q19 156 102 205q43 22 103 22q19 0 38 -2t28 -4z
M578 754v229l-41 -41l-97 98l-92 -100l-39 41v-227q0 -56 38.5 -94.5t94.5 -38.5t96 39t40 94z" />
    <glyph glyph-name="uni2780" unicode="&#x2780;" horiz-adv-x="1720" 
d="M860 -10q-201 0 -370.5 98.5t-268 267.5t-98.5 369q0 150 58 286.5t157 234.5t235.5 156t286.5 58q200 0 369.5 -98t268.5 -267.5t99 -369.5t-99 -369t-268.5 -267.5t-369.5 -98.5zM860 98q170 0 314.5 84t228.5 228.5t84 314.5t-84 314.5t-228.5 228.5t-314.5 84
t-314.5 -84t-228.5 -228.5t-84 -314.5t84 -314.5t228.5 -228.5t314.5 -84zM821 373v639h-182v108l322 8v-755h-140z" />
    <glyph glyph-name="uni2781" unicode="&#x2781;" horiz-adv-x="1720" 
d="M588 393v105q22 16 67.5 49.5t67 49.5t60 45t57 46t46.5 43.5t42 46t28.5 43.5t20.5 47t6 47q0 59 -36.5 90t-92.5 31q-51 0 -100.5 -18.5t-81.5 -50.5l-58 86q44 46 112 73t140 27q109 0 180.5 -60t71.5 -165q0 -41 -12.5 -80t-30 -70.5t-50 -66t-57.5 -57t-69.5 -54
t-69 -47.5t-71.5 -45h370v-115h-540zM860 -10q-201 0 -370.5 98.5t-268 267.5t-98.5 369q0 150 58 286.5t157 234.5t235.5 156t286.5 58q200 0 369.5 -98t268.5 -267.5t99 -369.5t-99 -369t-268.5 -267.5t-369.5 -98.5zM860 98q170 0 314.5 84t228.5 228.5t84 314.5
t-84 314.5t-228.5 228.5t-314.5 84t-314.5 -84t-228.5 -228.5t-84 -314.5t84 -314.5t228.5 -228.5t314.5 -84z" />
    <glyph glyph-name="uni2782" unicode="&#x2782;" horiz-adv-x="1720" 
d="M840 354q-106 0 -219 33l28 105q110 -27 178 -27q78 0 125 27.5t47 85.5q0 74 -53 102.5t-170 36.5v80q93 8 141 39.5t48 93.5q0 42 -35.5 66t-89.5 24q-68 0 -144 -35l-34 88q40 24 96 38.5t104 14.5q102 0 169 -49t67 -133q0 -57 -32.5 -104.5t-92.5 -71.5
q78 -17 121 -68.5t43 -119.5q0 -60 -25 -105t-68 -70.5t-94 -38t-110 -12.5zM860 -10q-201 0 -370.5 98.5t-268 267.5t-98.5 369q0 150 58 286.5t157 234.5t235.5 156t286.5 58q200 0 369.5 -98t268.5 -267.5t99 -369.5t-99 -369t-268.5 -267.5t-369.5 -98.5zM860 98
q170 0 314.5 84t228.5 228.5t84 314.5t-84 314.5t-228.5 228.5t-314.5 84t-314.5 -84t-228.5 -228.5t-84 -314.5t84 -314.5t228.5 -228.5t314.5 -84z" />
    <glyph glyph-name="uni2783" unicode="&#x2783;" horiz-adv-x="1720" 
d="M860 -10q-201 0 -370.5 98.5t-268 267.5t-98.5 369q0 150 58 286.5t157 234.5t235.5 156t286.5 58q200 0 369.5 -98t268.5 -267.5t99 -369.5t-99 -369t-268.5 -267.5t-369.5 -98.5zM860 98q170 0 314.5 84t228.5 228.5t84 314.5t-84 314.5t-228.5 228.5t-314.5 84
t-314.5 -84t-228.5 -228.5t-84 -314.5t84 -314.5t228.5 -228.5t314.5 -84zM862 373v180h-344v117l270 450h207v-461h127v-106h-127v-180h-133zM625 659h237v385z" />
    <glyph glyph-name="uni2784" unicode="&#x2784;" horiz-adv-x="1720" 
d="M860 -10q-201 0 -370.5 98.5t-268 267.5t-98.5 369q0 150 58 286.5t157 234.5t235.5 156t286.5 58q200 0 369.5 -98t268.5 -267.5t99 -369.5t-99 -369t-268.5 -267.5t-369.5 -98.5zM860 98q170 0 314.5 84t228.5 228.5t84 314.5t-84 314.5t-228.5 228.5t-314.5 84
t-314.5 -84t-228.5 -228.5t-84 -314.5t84 -314.5t228.5 -228.5t314.5 -84zM838 334q-99 0 -213 28l32 105q108 -27 179 -27q67 0 106 37t39 94q0 65 -40 99.5t-107 34.5q-66 0 -179 -11v406h443v-109h-316v-182h76q120 0 191 -58.5t71 -166.5q0 -115 -79.5 -182.5
t-202.5 -67.5z" />
    <glyph glyph-name="uni2785" unicode="&#x2785;" horiz-adv-x="1720" 
d="M860 -10q-201 0 -370.5 98.5t-268 267.5t-98.5 369q0 150 58 286.5t157 234.5t235.5 156t286.5 58q200 0 369.5 -98t268.5 -267.5t99 -369.5t-99 -369t-268.5 -267.5t-369.5 -98.5zM860 98q170 0 314.5 84t228.5 228.5t84 314.5t-84 314.5t-228.5 228.5t-314.5 84
t-314.5 -84t-228.5 -228.5t-84 -314.5t84 -314.5t228.5 -228.5t314.5 -84zM848 352q-143 0 -214 75t-71 257q0 205 99.5 323.5t259.5 118.5q75 0 159 -24l-32 -107q-70 19 -134 19q-79 0 -134 -56.5t-72 -160.5q73 34 157 34q118 0 185 -56.5t67 -166.5q0 -123 -77 -189.5
t-193 -66.5zM854 457q54 0 88.5 39.5t34.5 101.5q0 66 -35.5 101.5t-91.5 35.5q-70 0 -143 -26q0 -147 30 -199.5t117 -52.5z" />
    <glyph glyph-name="uni2786" unicode="&#x2786;" horiz-adv-x="1720" 
d="M860 -10q-201 0 -370.5 98.5t-268 267.5t-98.5 369q0 150 58 286.5t157 234.5t235.5 156t286.5 58q200 0 369.5 -98t268.5 -267.5t99 -369.5t-99 -369t-268.5 -267.5t-369.5 -98.5zM860 98q170 0 314.5 84t228.5 228.5t84 314.5t-84 314.5t-228.5 228.5t-314.5 84
t-314.5 -84t-228.5 -228.5t-84 -314.5t84 -314.5t228.5 -228.5t314.5 -84zM784 305l-129 43l346 608h-389v123h529v-104z" />
    <glyph glyph-name="uni2787" unicode="&#x2787;" horiz-adv-x="1720" 
d="M852 340q-129 0 -205 48t-76 153q0 119 142 211q-115 64 -115 168q0 89 75.5 140.5t188.5 51.5q121 0 189.5 -49.5t68.5 -130.5q0 -111 -143 -184q166 -79 166 -193q0 -105 -79.5 -160t-211.5 -55zM856 436q66 0 107 33t41 94q0 18 -10.5 34t-23 27.5t-41 26t-45 22
t-53.5 22.5q-16 7 -24 10q-46 -27 -73 -66.5t-27 -83.5q0 -60 39.5 -89.5t109.5 -29.5zM860 -10q-201 0 -370.5 98.5t-268 267.5t-98.5 369q0 150 58 286.5t157 234.5t235.5 156t286.5 58q200 0 369.5 -98t268.5 -267.5t99 -369.5t-99 -369t-268.5 -267.5t-369.5 -98.5z
M860 98q170 0 314.5 84t228.5 228.5t84 314.5t-84 314.5t-228.5 228.5t-314.5 84t-314.5 -84t-228.5 -228.5t-84 -314.5t84 -314.5t228.5 -228.5t314.5 -84zM877 791q53 33 78.5 62.5t25.5 64.5q0 92 -123 92q-64 0 -97.5 -27t-33.5 -74q0 -15 9 -29.5t20 -24.5t35 -23
t38.5 -20t47.5 -21z" />
    <glyph glyph-name="uni2788" unicode="&#x2788;" horiz-adv-x="1720" 
d="M860 -10q-201 0 -370.5 98.5t-268 267.5t-98.5 369q0 150 58 286.5t157 234.5t235.5 156t286.5 58q200 0 369.5 -98t268.5 -267.5t99 -369.5t-99 -369t-268.5 -267.5t-369.5 -98.5zM860 98q170 0 314.5 84t228.5 228.5t84 314.5t-84 314.5t-228.5 228.5t-314.5 84
t-314.5 -84t-228.5 -228.5t-84 -314.5t84 -314.5t228.5 -228.5t314.5 -84zM788 338q-75 0 -159 24l33 107q79 -18 131 -18q79 0 135 57.5t71 159.5q-65 -35 -155 -35q-119 0 -186.5 57.5t-67.5 165.5q0 124 77.5 190t192.5 66q144 0 215.5 -74.5t71.5 -255.5
q0 -206 -100 -325t-259 -119zM860 729q55 0 144 29q-2 144 -32.5 197t-115.5 53q-56 0 -90.5 -39t-34.5 -103q0 -67 35.5 -102t93.5 -35z" />
    <glyph glyph-name="uni278A" unicode="&#x278a;" horiz-adv-x="1720" 
d="M860 -10q-201 0 -370.5 98.5t-268 267.5t-98.5 369q0 150 58 286.5t157 234.5t235.5 156t286.5 58q200 0 369.5 -98t268.5 -267.5t99 -369.5t-99 -369t-268.5 -267.5t-369.5 -98.5zM821 373h140v755l-322 -8v-108h182v-639z" />
    <glyph glyph-name="uni278B" unicode="&#x278b;" horiz-adv-x="1720" 
d="M588 393h540v115h-370q47 29 71.5 45t69 47.5t69.5 54t57.5 57t50 66t30 70.5t12.5 80q0 105 -71.5 165t-180.5 60q-72 0 -140 -27t-112 -73l58 -86q32 32 81.5 50.5t100.5 18.5q56 0 92.5 -31t36.5 -90q0 -24 -6 -47t-20.5 -47t-28.5 -43.5t-42 -46t-46.5 -43.5t-57 -46
t-60 -45t-67 -49.5t-67.5 -49.5v-105zM860 -10q-201 0 -370.5 98.5t-268 267.5t-98.5 369q0 150 58 286.5t157 234.5t235.5 156t286.5 58q200 0 369.5 -98t268.5 -267.5t99 -369.5t-99 -369t-268.5 -267.5t-369.5 -98.5z" />
    <glyph glyph-name="uni278C" unicode="&#x278c;" horiz-adv-x="1720" 
d="M840 354q59 0 110 12.5t94 38t68 70.5t25 105q0 68 -43 119.5t-121 68.5q60 24 92.5 71.5t32.5 104.5q0 84 -67 133t-169 49q-48 0 -104 -14.5t-96 -38.5l34 -88q76 35 144 35q54 0 89.5 -24t35.5 -66q0 -62 -48 -93.5t-141 -39.5v-80q117 -8 170 -36.5t53 -102.5
q0 -58 -47 -85.5t-125 -27.5q-68 0 -178 27l-28 -105q113 -33 219 -33zM860 -10q-201 0 -370.5 98.5t-268 267.5t-98.5 369q0 150 58 286.5t157 234.5t235.5 156t286.5 58q200 0 369.5 -98t268.5 -267.5t99 -369.5t-99 -369t-268.5 -267.5t-369.5 -98.5z" />
    <glyph glyph-name="uni278D" unicode="&#x278d;" horiz-adv-x="1720" 
d="M860 -10q-201 0 -370.5 98.5t-268 267.5t-98.5 369q0 150 58 286.5t157 234.5t235.5 156t286.5 58q200 0 369.5 -98t268.5 -267.5t99 -369.5t-99 -369t-268.5 -267.5t-369.5 -98.5zM862 373h133v180h127v106h-127v461h-207l-270 -450v-117h344v-180zM625 659l237 385
v-385h-237z" />
    <glyph glyph-name="uni278E" unicode="&#x278e;" horiz-adv-x="1720" 
d="M860 -10q-201 0 -370.5 98.5t-268 267.5t-98.5 369q0 150 58 286.5t157 234.5t235.5 156t286.5 58q200 0 369.5 -98t268.5 -267.5t99 -369.5t-99 -369t-268.5 -267.5t-369.5 -98.5zM838 334q123 0 202.5 67.5t79.5 182.5q0 108 -71 166.5t-191 58.5h-76v182h316v109h-443
v-406q113 11 179 11q67 0 107 -34.5t40 -99.5q0 -57 -39 -94t-106 -37q-71 0 -179 27l-32 -105q114 -28 213 -28z" />
    <glyph glyph-name="uni278F" unicode="&#x278f;" horiz-adv-x="1720" 
d="M860 -10q-201 0 -370.5 98.5t-268 267.5t-98.5 369q0 150 58 286.5t157 234.5t235.5 156t286.5 58q200 0 369.5 -98t268.5 -267.5t99 -369.5t-99 -369t-268.5 -267.5t-369.5 -98.5zM848 352q116 0 193 66.5t77 189.5q0 110 -67 166.5t-185 56.5q-84 0 -157 -34
q17 104 72 160.5t134 56.5q64 0 134 -19l32 107q-84 24 -159 24q-160 0 -259.5 -118.5t-99.5 -323.5q0 -182 71 -257t214 -75zM854 457q-86 0 -116.5 52t-30.5 200q73 26 143 26q56 0 91.5 -35.5t35.5 -101.5q0 -62 -34 -101.5t-89 -39.5z" />
    <glyph glyph-name="uni2790" unicode="&#x2790;" horiz-adv-x="1720" 
d="M860 -10q-201 0 -370.5 98.5t-268 267.5t-98.5 369q0 150 58 286.5t157 234.5t235.5 156t286.5 58q200 0 369.5 -98t268.5 -267.5t99 -369.5t-99 -369t-268.5 -267.5t-369.5 -98.5zM784 305l357 670v104h-529v-123h389l-346 -608z" />
    <glyph glyph-name="uni2791" unicode="&#x2791;" horiz-adv-x="1720" 
d="M852 340q132 0 211.5 55t79.5 160q0 114 -166 193q143 73 143 184q0 81 -68.5 130.5t-189.5 49.5q-113 0 -188.5 -51.5t-75.5 -140.5q0 -104 115 -168q-142 -92 -142 -211q0 -105 76 -153t205 -48zM856 436q-70 0 -109.5 29.5t-39.5 89.5q0 44 27 83.5t73 66.5
q8 -3 24 -10q36 -15 53.5 -22.5t45 -22t40.5 -26t23.5 -27.5t10.5 -34q0 -61 -41 -94t-107 -33zM860 -10q-201 0 -370.5 98.5t-268 267.5t-98.5 369q0 150 58 286.5t157 234.5t235.5 156t286.5 58q200 0 369.5 -98t268.5 -267.5t99 -369.5t-99 -369t-268.5 -267.5
t-369.5 -98.5zM877 791q-33 14 -47.5 21t-38.5 20t-35 23t-20 24.5t-9 29.5q0 47 33.5 74t97.5 27q123 0 123 -92q0 -35 -25.5 -64.5t-78.5 -62.5z" />
    <glyph glyph-name="uni2792" unicode="&#x2792;" horiz-adv-x="1720" 
d="M788 338q159 0 259 119t100 325q0 181 -71.5 255.5t-215.5 74.5q-115 0 -192.5 -66t-77.5 -190q0 -108 67.5 -165.5t186.5 -57.5q90 0 155 35q-15 -102 -71 -159.5t-135 -57.5q-52 0 -131 18l-33 -107q84 -24 159 -24zM856 1008q86 0 117 -53.5t31 -196.5
q-89 -29 -144 -29q-58 0 -93.5 35t-35.5 102q0 63 35.5 102.5t89.5 39.5zM1597 725q0 -200 -99 -369t-268.5 -267.5t-369.5 -98.5q-201 0 -370.5 98.5t-268 267.5t-98.5 369q0 150 58 286.5t157 234.5t235.5 156t286.5 58q200 0 369.5 -98t268.5 -267.5t99 -369.5z" />
    <glyph glyph-name="swing" unicode="&#x301c;" horiz-adv-x="2058" 
d="M1466 342q-85 0 -161.5 18t-134.5 47.5t-113 64.5t-107 70t-104.5 64.5t-118 47.5t-137.5 18q-132 0 -224 -47.5t-192 -139.5q-14 16 -53.5 60t-44.5 49q114 111 248.5 174t263.5 63q82 0 157.5 -18.5t134 -48t114 -65.5t109 -71.5t107.5 -65.5t120 -49t136 -19
q109 -1 207.5 49t208.5 141l100 -106q-103 -103 -244 -169.5t-272 -66.5z" />
    <glyph glyph-name="apple" unicode="&#xf8ff;" horiz-adv-x="2541" 
d="M410 772v23h22v-23h-22zM328 772v23h22v-23h-22zM328 692v21h22v-21h-22zM410 692v21h22v-21h-22zM594 692v21h22v-21h21v-20h-23v20h-20zM594 772v23h20v20h23v-22h-21v-21h-22zM492 793v22h22v-20h21v-23h-23v21h-20zM492 672v20h20v21h23v-21h-21v-20h-22zM532 731v23
h21v20h22v-20h21v-23h-21v-20h-22v20h-21zM348 731v23h21v20h22v-20h21v-23h-21v-20h-22v20h-21zM205 731v23h20v20h23v-20h20v-23h-20v-20h-23v20h-20zM760 692h-43v19h-21v61h-20v23h20v20h23v-20h41v-23h-41v-59h41v-21zM883 711h-21v-19h-20v-20h-21v-21h-22v23h20v37
h-20v84h22v-82h39v82h23v-84zM983 713v59h-39v-59h39zM1006 711h-21v-19h-41v-41h-22v144h63v-21h21v-63zM1106 713v59h-39v-59h39zM1128 711h-20v-19h-43v19h-21v63h21v21h43v-21h20v-63zM1251 692h-43v19h-20v61h-21v23h21v20h22v-20h41v-23h-41v-59h41v-21zM1374 692h-22
v80h-39v-80h-23v144h23v-41h41v-21h20v-82zM1475 754v18h-39v-18h39zM1497 692h-63v19h-21v63h21v21h43v-21h20v-43h-61v-18h61v-21zM1597 713v59h-38v-59h38zM1620 651h-23v41h-41v19h-20v63h20v21h64v-144zM1743 692h-64v19h-20v84h22v-82h39v82h23v-103zM1843 754v18h-39
v-18h39zM1866 692h-64v19h-20v63h20v21h43v-21h21v-43h-62v-18h62v-21zM2132 795v-23h-23v23h23zM2132 713v-21h-23v21h23zM2214 713v-21h-23v21h23zM2214 795v-23h-23v23h23zM1927 815v-20h21v-23h-23v21h-20v22h22zM1948 713v-21h-21v-20h-22v20h20v21h23zM2050 692v-20
h-22v20h-21v21h23v-21h20zM2050 815v-22h-20v-21h-23v23h21v20h22zM2009 754v-23h-20v-20h-23v20h-20v23h20v20h23v-20h20zM2193 754v-23h-20v-20h-23v20h-20v23h20v20h23v-20h20zM2316 774v-20h21v-23h-21v-20h-22v20h-21v23h21v20h22z" />
    <glyph glyph-name="comma.inferior" unicode="&#xfe50;" horiz-adv-x="413" 
d="M100 -106q37 99 37 176v104h119v-57q0 -51 -11.5 -95.5t-24 -68.5t-34.5 -59h-86z" />
    <glyph glyph-name="period.inferior" unicode="&#xfe52;" horiz-adv-x="428" 
d="M145 0v145h140v-145h-140z" />
    <glyph glyph-name="dollar.inferior" unicode="&#xfe69;" horiz-adv-x="530" 
d="M301 29l4 -117h-90l4 111q-103 7 -145 30l12 94q89 -24 152 -24q110 0 110 90q0 32 -19.5 54.5t-48.5 35t-63 30t-63 37.5t-48.5 60.5t-19.5 95.5q0 75 40 123t103 64l-4 133h90l-4 -129q71 -6 119 -27l-16 -90q-68 25 -135 25q-84 0 -84 -84q0 -30 14.5 -53t38 -37.5
t51.5 -28t56 -29.5t51.5 -36.5t38 -54t14.5 -77.5q0 -87 -45.5 -134.5t-112.5 -61.5z" />
    <glyph glyph-name="uni0045_uni02DA" horiz-adv-x="858" 
d="M649 1683q0 -81 -53.5 -128.5t-134.5 -47.5q-82 0 -138.5 44t-56.5 128t56.5 133.5t134.5 49.5q73 0 132.5 -46t59.5 -133zM555 1681q0 39 -29.5 67t-68.5 28q-41 0 -68 -25t-27 -65q0 -41 28 -69t69 -28t68.5 26t27.5 66zM799 0h-649v1448h616v-141h-455v-510h422v-140
h-422v-512h488v-145z" />
    <glyph glyph-name="uni0046_uni00AF" horiz-adv-x="825" 
d="M707 1569h-476v127h476v-127zM793 1307h-482v-547h451v-146h-451v-614h-161v1448h643v-141z" />
    <glyph glyph-name="Jacute" horiz-adv-x="456" 
d="M506 1655l-359 -131l-43 100l349 172zM311 319q0 -87 -4 -152.5t-15.5 -136t-33.5 -126.5t-55.5 -110t-84.5 -100.5t-118 -86.5l-78 114q132 94 180 221t48 355v1151h161v-1129z" />
    <glyph glyph-name="uni004E_uni00AF" horiz-adv-x="1155" 
d="M815 1569h-475v127h475v-127zM1004 0h-189l-512 1153h-8l16 -231v-922h-161v1448h186l514 -1172h8l-14 242v930h160v-1448z" />
    <glyph glyph-name="uni0050_uni00AF" horiz-adv-x="872" 
d="M858 989q0 -132 -48.5 -236t-151 -167.5t-246.5 -63.5h-35v148h45q117 0 192.5 78.5t75.5 230.5q0 156 -62.5 240t-172.5 84h-146v-1303h-159v1448h319q180 0 284.5 -121.5t104.5 -337.5zM666 1569h-476v127h476v-127z" />
    <glyph glyph-name="uni0052_uni0060" horiz-adv-x="1036" 
d="M1030 109l-31 -132q-33 2 -68 13t-76.5 35t-82.5 70.5t-72 109.5l-182 373q-42 -9 -127 -9h-82v-569h-159v1448h352q164 0 260 -109.5t96 -324.5q0 -128 -48 -231t-144 -158l159 -308q38 -73 85.5 -123t119.5 -85zM690 1004q0 299 -219 299h-162v-592h127q254 0 254 293z
M504 1524l-359 131l52 141l350 -172z" />
    <glyph glyph-name="uni0053_uni02D8" horiz-adv-x="819" 
d="M764 379q0 -98 -33 -175.5t-89.5 -125t-126.5 -72t-148 -24.5q-100 0 -172 25.5t-142 76.5l64 127q131 -82 248 -82q103 0 168 60.5t65 179.5q0 60 -27.5 112t-71.5 91.5t-97 78.5t-106 82t-97 92.5t-71.5 119.5t-27.5 153q0 164 100 261t246 97q140 0 265 -67l-49 -127
q-106 49 -209 49q-90 0 -140.5 -54.5t-50.5 -154.5q0 -57 27.5 -108.5t72 -91.5t98 -80t107 -84t98 -93t72 -117.5t27.5 -148.5zM692 1681q-31 -51 -104.5 -100t-167.5 -49q-86 0 -154.5 43t-111.5 104l82 82q90 -98 186 -98q104 0 188 92z" />
    <glyph glyph-name="uni0056_uni00AF" horiz-adv-x="960" 
d="M705 1569h-476v127h476v-127zM981 1448l-422 -1448h-197l-382 1448h174l270 -1081l37 -203h6l47 213l303 1071h164z" />
    <glyph glyph-name="uni0058_uni00AF" horiz-adv-x="905" 
d="M899 0h-184l-209 506l-47 121h-4l-47 -115l-230 -512h-180l375 766l-314 682h185l166 -410l51 -129h4l53 129l184 410h172l-325 -680zM700 1569h-475v127h475v-127z" />
    <glyph glyph-name="uni00CD_uni004A_uni0301" horiz-adv-x="909" 
d="M311 0h-161v1448h161v-1448zM510 1655l-358 -131l-43 100l348 172zM958 1655l-358 -131l-43 100l348 172zM764 319q0 -87 -4 -152.5t-15.5 -136t-33.5 -126.5t-55.5 -110t-84.5 -100.5t-118 -86.5l-78 114q132 94 179.5 221t47.5 355v1151h162v-1129z" />
    <glyph glyph-name="f.alt" horiz-adv-x="507" 
d="M639 1548l-23 -141q-97 27 -165 27q-83 0 -124.5 -46t-41.5 -163v-107h170v-135h-170v-983h-158v983h-115v135h115v88q0 379 317 379q49 0 107.5 -12t87.5 -25z" />
    <glyph glyph-name="g.alt" horiz-adv-x="946" 
d="M887 936h-150q27 -61 27 -170q0 -158 -91.5 -258t-226.5 -100q-109 0 -182 49v-201h236q163 0 248.5 -84.5t85.5 -220.5q0 -81 -29 -155t-82 -132.5t-135 -93.5t-180 -35q-159 0 -246.5 88.5t-87.5 222.5q0 138 123 279q-27 12 -47.5 46t-20.5 67q0 101 88 254
q-92 99 -92 266q0 107 33 191.5t105.5 138t176.5 53.5q57 0 106.5 -17t69.5 -31.5t31 -27.5l240 6v-135zM616 774q0 248 -167 248q-94 0 -135.5 -64t-41.5 -194q0 -238 172 -238q86 0 129 65t43 183zM688 -74q0 183 -209 183h-205q-51 -91 -51 -213q0 -97 52 -160.5
t165 -63.5q117 0 182.5 73t65.5 181z" />
    <glyph glyph-name="uni0065_uni02DA" horiz-adv-x="804" 
d="M606 1436q0 -81 -53.5 -128.5t-134.5 -47.5q-82 0 -138.5 44t-56.5 128t56.5 133t134.5 49q73 0 132.5 -45.5t59.5 -132.5zM512 1434q0 39 -29.5 66.5t-68.5 27.5q-41 0 -68 -25t-27 -65q0 -41 28 -69t69 -28t68.5 26.5t27.5 66.5zM750 524h-527q0 -115 19 -193.5
t57 -121.5t86 -60.5t115 -17.5q86 0 209 43l28 -137q-37 -22 -110 -38.5t-162 -16.5q-96 0 -166.5 28.5t-123 92t-79 172.5t-26.5 264q0 160 28.5 279.5t80 189.5t117 103.5t146.5 33.5q308 0 308 -557v-64zM588 655q0 164 -41 260.5t-123 96.5q-85 0 -136 -93.5t-63 -263.5
h363z" />
    <glyph glyph-name="uni0066_uni00AF" horiz-adv-x="507" 
d="M639 1548l-23 -141q-97 27 -165 27q-83 0 -124.5 -46t-41.5 -163v-107h170v-135h-170v-983h-158v983h-115v135h115v88q0 379 317 379q49 0 107.5 -12t87.5 -25zM487 -279h-475v134h475v-134z" />
    <glyph glyph-name="jacute" horiz-adv-x="399" 
d="M279 -43q0 -228 -75 -326t-214 -98q-50 0 -127 31l28 139q50 -20 93 -20q75 0 107 66t32 196v1173h156v-1161zM473 1522l-319 -260l-78 92l303 282z" />
    <glyph glyph-name="dotlessj" horiz-adv-x="399" 
d="M279 -43q0 -228 -75 -326t-214 -98q-50 0 -127 31l28 139q50 -20 93 -20q75 0 107 66t32 196v1173h156v-1161z" />
    <glyph glyph-name="uni006E_uni00AF" horiz-adv-x="915" 
d="M692 1368h-475v133h475v-133zM801 0h-156v707q0 61 -2.5 100t-10.5 77t-23.5 59t-42 33.5t-64.5 12.5q-78 0 -223 -123v-866h-156v1118h156v-123q5 8 26 29.5t55.5 49.5t83 48.5t95.5 20.5q52 0 93.5 -15t68.5 -37.5t46.5 -59t29.5 -70t16 -81t7 -80t1 -79.5v-721z" />
    <glyph glyph-name="uni0070_uni00AF" horiz-adv-x="886" 
d="M821 586q0 -135 -21.5 -240t-58.5 -172.5t-89 -111t-109 -61t-123 -17.5q-19 0 -40 1t-38 3t-31 4t-22.5 3t-9.5 1v-447h-156v1569h156v-90q4 4 10.5 11.5t28.5 26.5t46 33t60 26t72 12q151 0 238 -148t87 -403zM664 547q0 440 -211 440q-72 0 -174 -88v-758
q63 -14 143 -14q113 0 177.5 116.5t64.5 303.5zM670 1368h-475v133h475v-133z" />
    <glyph glyph-name="uni0072_uni0060" horiz-adv-x="579" 
d="M596 1118l-21 -147q-43 18 -110 18q-57 0 -107 -47t-79 -113v-829h-156v1118h156v-131h6q80 152 196 152q68 0 115 -21zM469 1352l-74 -97l-325 261l92 114z" />
    <glyph glyph-name="uni0073_uni02D8" horiz-adv-x="690" 
d="M639 309q0 -82 -29 -146t-77.5 -102t-105 -57.5t-116.5 -19.5q-141 0 -252 49l23 139q129 -47 219 -47q78 0 131 47t53 119q0 45 -22 83.5t-58 67.5t-79 57.5t-85.5 61.5t-78.5 70.5t-58 92t-22 120.5q0 144 82.5 219.5t218.5 75.5q97 0 209 -47l-25 -134
q-105 43 -198 43q-63 0 -99.5 -39t-36.5 -102q0 -45 22.5 -83.5t58 -68t79 -59t87 -62.5t79 -70t58 -90.5t22.5 -117.5zM616 1479q-34 -53 -108 -102.5t-170 -49.5q-88 0 -158.5 44t-113.5 106l81 86q93 -101 193 -101q108 0 195 94z" />
    <glyph glyph-name="germandbls.alt" horiz-adv-x="919" 
d="M862 281q0 -81 -24.5 -142t-65.5 -95t-87.5 -50.5t-96.5 -16.5q-126 0 -234 56l33 131q105 -43 184 -43q65 0 99.5 38t34.5 111q0 40 -17 75.5t-44.5 63.5t-61 56.5t-67 62t-61 72t-44.5 94.5t-17 123q0 51 16.5 101t39.5 90.5l46 81t39.5 88.5t16.5 96q0 83 -32 124.5
t-89 41.5q-86 0 -116.5 -66.5t-30.5 -204.5v-1169h-156v1159q0 223 77.5 323.5t225.5 100.5q37 0 72 -7.5t74 -29t67.5 -55.5t47 -93t18.5 -136q0 -66 -24.5 -131t-54.5 -109.5t-54.5 -100.5t-24.5 -104t17 -89.5t44.5 -73.5t60.5 -62.5t66.5 -62.5t61 -66.5t44.5 -81
t17 -100.5z" />
    <glyph glyph-name="uni0076_uni00AF" horiz-adv-x="772" 
d="M621 1368h-476v133h476v-133zM766 1118l-297 -1118h-195l-268 1118h168l168 -766l29 -194h10l33 200l190 760h162z" />
    <glyph glyph-name="uni0078_uni00AF" horiz-adv-x="749" 
d="M750 0h-183l-188 449h-12l-187 -449h-182l293 571l-275 547h181l172 -424h12l176 424h172l-268 -543zM614 1378h-475v133h475v-133z" />
    <glyph glyph-name="iacute_jacute" horiz-adv-x="790" 
d="M670 -43q0 -228 -75 -326t-214 -98q-49 0 -127 31l29 139q50 -20 92 -20q75 0 107 66t32 196v1173h156v-1161zM473 1522l-319 -260l-78 92l303 282zM860 1522l-319 -260l-78 92l303 282zM279 0h-156v1118h156v-1118z" />
    <glyph glyph-name="gbreve.alt" horiz-adv-x="894" 
d="M887 936h-150q27 -61 27 -170q0 -158 -91.5 -258t-226.5 -100q-109 0 -182 49v-201h236q163 0 248.5 -84.5t85.5 -220.5q0 -81 -29 -155t-82 -132.5t-135 -93.5t-180 -35q-159 0 -246.5 88.5t-87.5 222.5q0 138 123 279q-27 12 -47.5 46t-20.5 67q0 101 88 254
q-92 99 -92 266q0 107 33 191.5t105.5 138t176.5 53.5q57 0 106.5 -17t69.5 -31.5t31 -27.5l240 6v-135zM616 774q0 248 -167 248q-94 0 -135.5 -64t-41.5 -194q0 -238 172 -238q86 0 129 65t43 183zM688 -74q0 183 -209 183h-205q-51 -91 -51 -213q0 -97 52 -160.5
t165 -63.5q117 0 182.5 73t65.5 181zM723 1479q-34 -53 -108.5 -102.5t-170.5 -49.5q-88 0 -158.5 44t-113.5 106l82 86q93 -101 192 -101q108 0 195 94z" />
    <glyph glyph-name="gcircumflex.alt" horiz-adv-x="894" 
d="M745 1384l-69 -94l-221 166l-226 -164l-71 92l295 232zM887 936h-150q27 -61 27 -170q0 -158 -91.5 -258t-226.5 -100q-109 0 -182 49v-201h236q163 0 248.5 -84.5t85.5 -220.5q0 -81 -29 -155t-82 -132.5t-135 -93.5t-180 -35q-159 0 -246.5 88.5t-87.5 222.5
q0 138 123 279q-27 12 -47.5 46t-20.5 67q0 101 88 254q-92 99 -92 266q0 107 33 191.5t105.5 138t176.5 53.5q57 0 106.5 -17t69.5 -31.5t31 -27.5l240 6v-135zM616 774q0 248 -167 248q-94 0 -135.5 -64t-41.5 -194q0 -238 172 -238q86 0 129 65t43 183zM688 -74
q0 183 -209 183h-205q-51 -91 -51 -213q0 -97 52 -160.5t165 -63.5q117 0 182.5 73t65.5 181z" />
    <glyph glyph-name="gcommaaccent.alt" horiz-adv-x="894" 
d="M383 1276l47 379h119l-25 -379h-141zM887 936h-150q27 -61 27 -170q0 -158 -91.5 -258t-226.5 -100q-109 0 -182 49v-201h236q163 0 248.5 -84.5t85.5 -220.5q0 -81 -29 -155t-82 -132.5t-135 -93.5t-180 -35q-159 0 -246.5 88.5t-87.5 222.5q0 138 123 279
q-27 12 -47.5 46t-20.5 67q0 101 88 254q-92 99 -92 266q0 107 33 191.5t105.5 138t176.5 53.5q57 0 106.5 -17t69.5 -31.5t31 -27.5l240 6v-135zM616 774q0 248 -167 248q-94 0 -135.5 -64t-41.5 -194q0 -238 172 -238q86 0 129 65t43 183zM688 -74q0 183 -209 183h-205
q-51 -91 -51 -213q0 -97 52 -160.5t165 -63.5q117 0 182.5 73t65.5 181z" />
    <glyph glyph-name="gdotaccent.alt" horiz-adv-x="894" 
d="M887 936h-150q27 -61 27 -170q0 -158 -91.5 -258t-226.5 -100q-109 0 -182 49v-201h236q163 0 248.5 -84.5t85.5 -220.5q0 -81 -29 -155t-82 -132.5t-135 -93.5t-180 -35q-159 0 -246.5 88.5t-87.5 222.5q0 138 123 279q-27 12 -47.5 46t-20.5 67q0 101 88 254
q-92 99 -92 266q0 107 33 191.5t105.5 138t176.5 53.5q57 0 106.5 -17t69.5 -31.5t31 -27.5l240 6v-135zM616 774q0 248 -167 248q-94 0 -135.5 -64t-41.5 -194q0 -238 172 -238q86 0 129 65t43 183zM688 -74q0 183 -209 183h-205q-51 -91 -51 -213q0 -97 52 -160.5
t165 -63.5q117 0 182.5 73t65.5 181zM565 1464l-123 -123l-118 123l118 121z" />
    <glyph glyph-name="questiondown.cap" horiz-adv-x="581" 
d="M457 1257h-172v187h172v-187zM504 139l-25 -149q-81 9 -148.5 36t-124 75t-88.5 126.5t-32 180.5q0 70 24 135t58 114.5t67.5 96t57.5 98.5t24 102q0 38 -12 125l137 33q23 -108 23 -160q0 -73 -23 -139t-55.5 -115t-64.5 -93.5t-55 -91t-23 -89.5q0 -119 73.5 -194
t186.5 -91z" />
    <glyph glyph-name="question.smcp" horiz-adv-x="610" 
d="M537 918q0 -58 -21.5 -111.5t-52.5 -94t-61.5 -79t-52 -82.5t-21.5 -88t8 -88l-109 -31q-18 63 -18 125q0 73 28.5 141t62.5 111.5t62.5 94.5t28.5 93q0 94 -55 144t-164 75l27 144q67 -9 126 -35t107.5 -68t76.5 -107t28 -144zM360 0h-163v170h163v-170z" />
    <glyph glyph-name="questiondown.smcp" horiz-adv-x="610" 
d="M100 203q0 58 21.5 111.5t52 94t61.5 78.5t52.5 82t21.5 88t-8 88l109 31q18 -63 18 -125q0 -73 -28.5 -141t-62.5 -111.5t-62.5 -94.5t-28.5 -93q0 -94 55 -144t164 -75l-27 -144q-67 9 -126 35t-107 68.5t-76.5 107.5t-28.5 144zM276 1120h164v-170h-164v170z" />
    <glyph glyph-name="exclamdown.cap" horiz-adv-x="423" 
d="M289 1260h-172v186h172v-186zM281 -2h-156v799l10 297h135l11 -297v-799z" />
    <glyph glyph-name="exclam.smcp" horiz-adv-x="542" 
d="M330 639l-8 -287h-127l-9 287v604h144v-604zM340 0h-166v170h166v-170z" />
    <glyph glyph-name="exclamdown.smcp" horiz-adv-x="542" 
d="M199 479l8 287h127l8 -287v-604h-143v604zM188 1118h166v-170h-166v170z" />
    <glyph glyph-name="hyphen.cap" horiz-adv-x="540" 
d="M508 659h-475v142h475v-142z" />
    <glyph glyph-name="endash.cap" horiz-adv-x="944" 
d="M883 659h-822v142h822v-142z" />
    <glyph glyph-name="emdash.cap" horiz-adv-x="1353" 
d="M1292 659h-1231v142h1231v-142z" />
    <glyph glyph-name="slash.smcp" horiz-adv-x="647" 
d="M590 1262l-395 -1389h-138l398 1389h135z" />
    <glyph glyph-name="backslash.smcp" horiz-adv-x="651" 
d="M457 -127l-396 1389h134l399 -1389h-137z" />
    <glyph glyph-name="parenleft.cap" horiz-adv-x="520" 
d="M520 1655l-18 -23q-18 -23 -36.5 -48.5t-47 -73.5t-53.5 -99.5t-51.5 -126t-45.5 -152.5t-31 -179.5t-12 -207.5q0 -131 16.5 -255t47 -223t59 -175t67.5 -144t56 -94.5t40 -58.5l4.5 -6t2.5 -4l-106 -86q-24 23 -55.5 63.5t-84.5 134.5t-94.5 205t-72.5 282.5t-31 358.5
q0 136 17 262.5t43 219.5t61 177t67.5 138.5t67 100t54 66t34.5 32.5z" />
    <glyph glyph-name="parenright.cap" horiz-adv-x="522" 
d="M109 -305l-101 90q1 1 17.5 25t31 47.5t39.5 65.5t45.5 88.5t45 106t43.5 128t35.5 145.5t25 167.5t8.5 184.5q0 158 -27 304.5t-60.5 239.5t-82 180.5t-71.5 118t-49 61.5q-4 5 -5 6l102 84q15 -12 34.5 -32t54.5 -66t67.5 -100.5t68.5 -138.5t62 -177t43 -219.5
t17 -262.5q0 -187 -32 -358.5t-73.5 -282t-96 -206t-86 -135t-56.5 -64.5z" />
    <glyph glyph-name="bracketleft.cap" horiz-adv-x="522" 
d="M446 -291h-296v1995h296v-143h-145v-1708h145v-144z" />
    <glyph glyph-name="bracketright.cap" horiz-adv-x="522" 
d="M373 -291h-297v144h145v1708h-145v143h297v-1995z" />
    <glyph glyph-name="braceleft.cap" horiz-adv-x="518" 
d="M496 -291h-54q-50 0 -89 6.5t-78 26t-65 51t-42 85t-16 124.5q0 38 2 61l32 400q5 67 -31.5 123.5t-93.5 56.5v154q57 0 94 54.5t31 123.5l-32 416q-26 352 288 352h54v-146q-121 0 -161.5 -47t-31.5 -172l27 -360q9 -111 -22 -188t-93 -109v-4q132 -85 115 -289
l-27 -365q-9 -119 34.5 -164.5t158.5 -45.5v-144z" />
    <glyph glyph-name="braceright.cap" horiz-adv-x="518" 
d="M457 655q-57 0 -94 -55.5t-31 -124.5l33 -414q7 -99 -12.5 -170t-62 -109.5t-95 -55.5t-119.5 -17h-53v144q121 0 161 47t31 174l-27 360q-9 111 22 186t93 107v4q-132 85 -115 293l27 365q9 119 -34 164.5t-158 45.5v144h53q50 0 89.5 -6.5t78.5 -26t65 -51t42 -85
t16 -124.5q0 -38 -2 -61l-33 -400q-5 -67 31.5 -123.5t93.5 -56.5v-154z" />
    <glyph glyph-name="section.pnum_lnum" horiz-adv-x="751" 
d="M760 1483l-62 -123q-81 57 -161 57q-39 0 -63.5 -39.5t-24.5 -99.5q0 -84 12 -162l108 -731q27 -185 27 -309q0 -218 -113.5 -368t-292.5 -150q-102 0 -194 61l45 127q75 -47 135 -47q28 0 46.5 27.5t26 65t7.5 81.5q0 28 -3 64t-5.5 55.5t-10 70t-8.5 60.5l-96 706
q-18 119 -18 213q0 243 114 380t297 137q67 0 133 -22t101 -54zM444 184l-120 887q-9 65 -9 117q0 48 5.5 92t10.5 64l5 20l-6 6q-76 -104 -76 -276q0 -66 12 -148l119 -876q8 -63 8 -125q0 -103 -31 -199l7 -6q86 109 86 301q0 70 -11 143z" />
    <glyph glyph-name="numbersign.pnum_lnum" horiz-adv-x="763" 
d="M719 326h-139l-15 -326h-125l15 326h-174l-15 -326h-123l13 326h-113v137h121l20 520h-141v135h147l15 330h127l-17 -330h174l15 330h125l-15 -330h105v-135h-111l-22 -520h133v-137zM481 983h-172l-20 -520h172z" />
    <glyph glyph-name="ordfeminine.smcp" horiz-adv-x="661" 
d="M590 801h-133l-49 217h-154l-53 -217h-127l190 649h148zM582 614h-508v115h508v-115zM395 1102q-6 35 -20 96.5t-22.5 101t-6.5 39.5h-22q-36 -151 -54 -237h125z" />
    <glyph glyph-name="quotedblleft.smcp" horiz-adv-x="661" 
d="M571 1384q-43 -141 -43 -249v-164h-153v108q0 140 65 305h131zM315 1384q-43 -141 -43 -249v-164h-153v108q0 140 65 305h131z" />
    <glyph glyph-name="quotedblright.smcp" horiz-adv-x="657" 
d="M543 1276q0 -138 -66 -305h-129q43 153 43 250v163h152v-108zM287 1276q0 -138 -66 -305h-131q45 148 45 250v163h152v-108z" />
    <glyph glyph-name="quoteleft.smcp" horiz-adv-x="425" 
d="M336 1384q-43 -141 -43 -249v-164h-154v108q0 138 66 305h131z" />
    <glyph glyph-name="quoteright.smcp" horiz-adv-x="417" 
d="M287 1276q0 -138 -66 -305h-131q45 148 45 250v163h152v-108z" />
    <glyph glyph-name="guilsinglright.cap" horiz-adv-x="423" 
d="M379 715l-207 -449l-121 45l168 404l-166 397l121 53z" />
    <glyph glyph-name="guilsinglleft.cap" horiz-adv-x="423" 
d="M373 1120l-168 -403l166 -398l-119 -47l-207 445l205 450z" />
    <glyph glyph-name="guillemotleft.cap" horiz-adv-x="722" 
d="M672 1120l-168 -403l168 -398l-121 -51l-205 449l205 448zM375 1120l-168 -403l168 -398l-121 -51l-205 449l205 448z" />
    <glyph glyph-name="guillemotright.cap" horiz-adv-x="722" 
d="M676 715l-207 -451l-121 47l168 404l-166 397l121 51zM379 715l-207 -451q-2 0 -29.5 11t-57 22.5t-34.5 13.5l168 404l-166 397l121 51z" />
    <glyph glyph-name="asterisk.alt" horiz-adv-x="645" 
d="M588 1430l-189 -111l88 -203l-163 146l-166 -146l88 203l-189 111l219 -21l48 213l47 -213z" />
    <glyph glyph-name="fi.alt" horiz-adv-x="925" 
d="M788 1450q-79 -29 -178 -29q-28 0 -81.5 6.5t-75.5 6.5q-82 0 -125 -48.5t-43 -160.5v-107h518v-1118h-158v983h-360v-983h-158v983h-115v135h115v88q0 186 80 282.5t239 96.5q27 0 87 -5.5t106 -6.5q41 0 127 8z" />
    <glyph glyph-name="fl.alt" horiz-adv-x="925" 
d="M803 0h-158v1423q-36 -3 -99.5 4t-92.5 7q-83 0 -125.5 -48t-42.5 -161v-107h170v-135h-170v-983h-158v983h-115v135h115v88q0 379 319 379q25 0 85 -8t108 -8q92 0 164 10v-1579z" />
    <glyph glyph-name="f_h.alt" horiz-adv-x="1445" 
d="M803 0h-158v1423q-36 -3 -99.5 4t-92.5 7q-83 0 -125.5 -48t-42.5 -161v-107h170v-135h-170v-983h-158v983h-115v135h115v88q0 379 319 379q25 0 85 -8t108 -8q92 0 164 10v-580q12 19 44.5 49.5t94 63.5t119.5 33q52 0 93.5 -15t68.5 -37.5t46.5 -59t29.5 -70t16 -81
t7 -80t1 -79.5v-723h-154v709q0 60 -2.5 99t-11 76.5t-24.5 58.5t-42.5 33.5t-64.5 12.5q-12 0 -25 -2.5t-24.5 -6.5t-26 -11t-24.5 -12t-25 -15t-23 -15.5t-22.5 -16.5t-19 -14.5t-17.5 -14.5t-14 -11v-870z" />
    <glyph glyph-name="f_b.alt" horiz-adv-x="1413" 
d="M127 0v983h-115v135h115v88q0 379 319 379q25 0 85 -8t108 -8q92 0 164 10v-1434q43 -14 143 -14q75 0 130.5 57.5t83.5 155t28 221.5q0 92 -9 162t-30.5 132t-64 95t-103.5 33q-46 0 -102 -20l-13 131q2 0 15.5 5t28.5 10t40 9t49 4q168 0 257.5 -138t89.5 -390
q0 -135 -22 -241.5t-58.5 -175.5t-89 -114t-109.5 -64t-123 -19q-93 0 -158 12t-139 43v1384q-36 -3 -100.5 4t-93.5 7q-83 0 -125.5 -48t-42.5 -161v-107h170v-135h-170v-983h-158z" />
    <glyph glyph-name="f_j.alt" horiz-adv-x="927" 
d="M803 1118v-1163q0 -118 -20.5 -201t-60 -130t-91 -68t-119.5 -21q-54 0 -127 29l29 137q45 -18 92 -18q75 0 107 65t32 197v1038h-360v-983h-158v983h-115v135h115v88q0 186 80 282.5t239 96.5q27 0 87 -5.5t106 -6.5q41 0 127 8l22 -131q-79 -29 -178 -29
q-28 0 -81.5 6.5t-75.5 6.5q-82 0 -125 -48.5t-43 -160.5v-107h518z" />
    <glyph glyph-name="f_k.alt" horiz-adv-x="1343" 
d="M1343 106l-45 -124q-76 7 -143 59t-133 174l-174 315l-33 60l47 100l277 428h178l-344 -524l162 -277q89 -148 208 -211zM803 0h-158v1423q-36 -3 -99.5 4t-92.5 7q-83 0 -125.5 -48t-42.5 -161v-107h170v-135h-170v-983h-158v983h-115v135h115v88q0 379 319 379
q25 0 85 -8t108 -8q92 0 164 10v-1579z" />
    <glyph glyph-name="f_f.alt" horiz-adv-x="1038" 
d="M1159 1548l-22 -141q-97 27 -166 27q-83 0 -124.5 -46t-41.5 -163v-107h170v-135h-170v-983h-158v983h-362v-983h-158v983h-115v135h115v88q0 85 20 152t52 109t76.5 69t90 38t95.5 11q159 0 299 -61q74 61 205 61q49 0 106.5 -12t87.5 -25zM285 1225v-107h362v88
q0 109 35 195q-83 35 -221 35q-84 0 -130 -47.5t-46 -163.5z" />
    <glyph glyph-name="f_f_i.alt" horiz-adv-x="1441" 
d="M1303 1450q-83 -29 -179 -29q-28 0 -81 6.5t-76 6.5q-82 0 -125 -48.5t-43 -160.5v-107h518v-1118h-158v983h-360v-983h-158v983h-356v-983h-158v983h-115v135h115v88q0 88 18.5 156t49 109.5t73.5 67.5t86.5 36t94.5 10q136 0 307 -63q75 63 205 63q27 0 86.5 -5.5
t105.5 -6.5q41 0 127 8zM285 1225v-107h356v88q0 121 35 195q-128 35 -225 35q-83 0 -124.5 -47t-41.5 -164z" />
    <glyph glyph-name="f_f_l.alt" horiz-adv-x="1443" 
d="M1321 0h-158v1423q-36 -3 -99.5 4t-92.5 7q-82 0 -125 -48t-43 -161v-107h170v-135h-170v-983h-156v983h-362v-983h-158v983h-115v135h115v88q0 85 20 152t52 109t76.5 69t90 38t95.5 11q159 0 299 -61q77 61 207 61q24 0 83.5 -8t106.5 -8q96 0 164 10v-1579zM647 1206
q0 114 33 195q-80 35 -219 35q-84 0 -130 -47.5t-46 -163.5v-107h362v88z" />
    <glyph glyph-name="f_f_j.alt" horiz-adv-x="1429" 
d="M285 1219v-101h356v88q0 125 35 205q-118 27 -207 27q-92 0 -138 -49t-46 -170zM1157 983h-360v-983h-156v983h-356v-983h-156v983h-115v135h115v90q0 381 336 381q138 0 307 -57q74 53 189 53q26 0 85.5 -5.5t104.5 -6.5q45 0 127 8l25 -131q-83 -29 -179 -29
q-28 0 -81.5 6.5t-77.5 6.5q-81 0 -124.5 -48.5t-43.5 -160.5v-107h518v-1161q0 -229 -75 -326.5t-214 -97.5q-52 0 -129 31l29 139q50 -20 94 -20q74 0 105.5 66t31.5 196v1038z" />
    <glyph glyph-name="Acute" horiz-adv-x="1153" 
d="M782 1655l-358 -131l-43 100l348 172z" />
    <glyph glyph-name="Breve" horiz-adv-x="870" 
d="M700 1681q-31 -51 -104.5 -100t-167.5 -49q-86 0 -154.5 43t-111.5 104l82 82q90 -98 186 -98q104 0 188 92z" />
    <glyph glyph-name="Caron" horiz-adv-x="950" 
d="M760 1686l-297 -185l-293 182l55 97l238 -131l239 129z" />
    <glyph glyph-name="Circumflex" horiz-adv-x="950" 
d="M172 1597l297 183l293 -183l-55 -94l-238 131l-238 -129z" />
    <glyph glyph-name="Dieresis" horiz-adv-x="632" 
d="M582 1636l-111 -112l-111 112l111 109zM268 1636l-110 -112l-109 112l109 109z" />
    </font>
</defs>
</svg>
