<svg width="192" height="99" viewBox="0 0 192 99" fill="none" xmlns="http://www.w3.org/2000/svg">
<mask id="mask0_1462_1530" style="mask-type:luminance" maskUnits="userSpaceOnUse" x="0" y="0" width="192" height="99">
<path d="M191.161 0H0.838867V98.3333H191.161V0Z" fill="white"/>
</mask>
<g mask="url(#mask0_1462_1530)">
<mask id="mask1_1462_1530" style="mask-type:luminance" maskUnits="userSpaceOnUse" x="0" y="0" width="192" height="99">
<path d="M191.161 0H0.838867V98.3333H191.161V0Z" fill="white"/>
</mask>
<g mask="url(#mask1_1462_1530)">
<path d="M3.84749 90.2668C4.89766 90.2668 5.76996 90.6493 6.46397 91.4151C7.15756 92.1805 7.50498 93.1179 7.50498 94.2268C7.50498 95.3357 7.15798 96.2726 6.46397 97.0384C5.76996 97.8038 4.89766 98.1867 3.84749 98.1867H0.839844V90.2673H3.84707L3.84749 90.2668ZM3.84749 97.1907C4.63314 97.1907 5.27549 96.9079 5.77538 96.3424C6.27485 95.7768 6.52437 95.0713 6.52437 94.2268C6.52437 93.3822 6.27485 92.6768 5.77538 92.1112C5.27591 91.5456 4.63314 91.2628 3.84749 91.2628H1.86461V97.1912H3.84749V97.1907Z" fill="white"/>
<path d="M13.915 97.1903H17.495V98.1863H12.8906V90.2668H17.44V91.2624H13.915V93.6946H17.1646V94.679H13.915V97.1903Z" fill="white"/>
<path d="M26.4397 98.3344C25.2721 98.3344 24.3081 97.9382 23.5479 97.1463C22.788 96.3548 22.4077 95.3815 22.4077 94.2277C22.4077 93.0739 22.788 92.101 23.5479 91.3087C24.3081 90.5168 25.2721 90.1206 26.4397 90.1206C27.1445 90.1206 27.7927 90.2943 28.3838 90.6408C28.975 90.9882 29.4361 91.4558 29.7664 92.0437L28.8741 92.5754C28.6538 92.1382 28.3251 91.7891 27.8881 91.529C27.4511 91.2685 26.9683 91.1384 26.4397 91.1384C25.5512 91.1384 24.8259 91.4327 24.264 92.021C23.702 92.6088 23.4212 93.3447 23.4212 94.2273C23.4212 95.1026 23.702 95.8338 24.264 96.422C24.8259 97.0098 25.5512 97.3046 26.4397 97.3046C26.9683 97.3046 27.4511 97.1745 27.8881 96.9144C28.3251 96.6539 28.6538 96.3086 28.8741 95.8791L29.7664 96.3998C29.4432 96.988 28.9841 97.4578 28.3897 97.8081C27.7948 98.159 27.145 98.3344 26.4397 98.3344Z" fill="white"/>
<path d="M41.46 97.1348C40.6852 97.9344 39.7396 98.3344 38.6236 98.3344C37.5076 98.3344 36.5636 97.9348 35.7926 97.1348C35.0215 96.3356 34.6357 95.3666 34.6357 94.2277C34.6357 93.0811 35.0215 92.1104 35.7926 91.3142C36.5636 90.5185 37.5072 90.1206 38.6236 90.1206C39.74 90.1206 40.6852 90.5185 41.46 91.3142C42.2348 92.11 42.6222 93.0811 42.6222 94.2277C42.6222 95.3666 42.2348 96.3356 41.46 97.1348ZM36.5028 96.4164C37.0719 97.0086 37.7788 97.3046 38.6236 97.3046C39.4684 97.3046 40.1749 97.0086 40.7439 96.4164C41.313 95.8248 41.5975 95.0949 41.5975 94.2273C41.5975 93.3519 41.313 92.6191 40.7439 92.0266C40.1749 91.4349 39.468 91.1384 38.6236 91.1384C37.7792 91.1384 37.0723 91.4344 36.5028 92.0266C35.9338 92.6187 35.6493 93.3519 35.6493 94.2273C35.6493 95.0945 35.9338 95.8243 36.5028 96.4164Z" fill="white"/>
<path d="M51.0058 90.2668C52.0559 90.2668 52.9282 90.6493 53.6222 91.4151C54.3158 92.1805 54.6633 93.1179 54.6633 94.2268C54.6633 95.3357 54.3163 96.2726 53.6222 97.0384C52.9282 97.8038 52.0559 98.1867 51.0058 98.1867H47.9985V90.2673L51.0058 90.2668ZM51.0058 97.1907C51.7914 97.1907 52.4338 96.9079 52.9337 96.3424C53.4331 95.7768 53.6826 95.0713 53.6826 94.2268C53.6826 93.3822 53.4331 92.6768 52.9337 92.1112C52.4342 91.5456 51.7914 91.2628 51.0058 91.2628H49.0229V97.1912H51.0058V97.1907Z" fill="white"/>
<path d="M61.0737 90.2668H60.0493V98.1863H61.0737V90.2668Z" fill="white"/>
<path d="M71.6594 90.2668H72.6838V98.1858H71.8577L67.8919 92.2691V98.1858H66.8672V90.2668H67.6595L71.6594 96.2136V90.2668Z" fill="white"/>
<path d="M85.9139 94.2615V94.7368C85.9139 95.77 85.5686 96.6282 84.8783 97.3106C84.1881 97.993 83.2737 98.3344 82.1352 98.3344C80.9601 98.3344 79.989 97.9365 79.2217 97.1407C78.454 96.3454 78.0703 95.3743 78.0703 94.2277C78.0703 93.0811 78.454 92.1104 79.2217 91.3142C79.989 90.5185 80.9526 90.1206 82.1131 90.1206C82.8255 90.1206 83.4791 90.296 84.0739 90.6464C84.6688 90.9972 85.1279 91.4593 85.4507 92.0325L84.5692 92.5643C84.3489 92.1344 84.0165 91.7895 83.5724 91.5294C83.1279 91.2693 82.638 91.1388 82.1019 91.1388C81.2204 91.1388 80.4973 91.4349 79.932 92.027C79.3663 92.6191 79.0838 93.3528 79.0838 94.2277C79.0838 95.1026 79.3684 95.8342 79.9374 96.4224C80.5064 97.0107 81.2429 97.305 82.146 97.305C82.9171 97.305 83.5416 97.1108 84.0185 96.7223C84.4959 96.3343 84.7859 95.8308 84.8888 95.2121H82.0577V94.2619H85.9131L85.9139 94.2615Z" fill="white"/>
<path d="M102.602 94.0796C102.955 94.2533 103.236 94.5023 103.445 94.8262C103.654 95.1504 103.759 95.5239 103.759 95.9462C103.759 96.5794 103.542 97.1116 103.109 97.5415C102.676 97.9715 102.147 98.1863 101.523 98.1863H98.1958V90.2668H101.28C101.882 90.2668 102.393 90.4743 102.811 90.8889C103.23 91.3039 103.439 91.8164 103.439 92.4274C103.439 93.129 103.16 93.6792 102.602 94.0792M101.28 91.2508H99.2201V93.6719H101.28C101.603 93.6719 101.875 93.5551 102.095 93.3211C102.316 93.0879 102.426 92.8008 102.426 92.4616C102.426 92.1296 102.314 91.8451 102.089 91.6072C101.865 91.3698 101.596 91.2508 101.28 91.2508ZM101.523 97.2014C101.868 97.2014 102.158 97.0769 102.393 96.8279C102.628 96.5789 102.745 96.2735 102.745 95.9115C102.745 95.5569 102.626 95.2553 102.387 95.0063C102.149 94.7573 101.86 94.6328 101.522 94.6328H99.2197V97.201H101.522L101.523 97.2014Z" fill="white"/>
<path d="M113.685 98.1863L111.958 95.1539H110.138V98.1863H109.113V90.2668H112.198C112.859 90.2668 113.424 90.506 113.894 90.9852C114.364 91.4643 114.599 92.0427 114.599 92.7217C114.599 93.2347 114.45 93.7023 114.153 94.1245C113.856 94.5468 113.472 94.845 113.002 95.0178L114.819 98.1858H113.684L113.685 98.1863ZM110.138 91.2513V94.2041H112.198C112.58 94.2041 112.905 94.0586 113.172 93.7686C113.441 93.4781 113.574 93.1294 113.574 92.7221C113.574 92.3148 113.441 91.9683 113.172 91.6812C112.905 91.3946 112.58 91.2513 112.198 91.2513H110.138Z" fill="white"/>
<path d="M125.063 98.1863L124.434 96.41H120.967L120.337 98.1863H119.247L122.122 90.2668H123.279L126.154 98.1863H125.063ZM121.315 95.426H124.085L122.7 91.5165L121.315 95.426Z" fill="white"/>
<path d="M136.001 90.2668H137.026V98.1858H136.2L132.234 92.2691V98.1858H131.209V90.2668H132.002L136.001 96.2136V90.2668Z" fill="white"/>
<path d="M145.828 90.2668C146.878 90.2668 147.751 90.6493 148.445 91.4151C149.138 92.1805 149.485 93.1179 149.485 94.2268C149.485 95.3357 149.138 96.2726 148.445 97.0384C147.751 97.8038 146.878 98.1867 145.828 98.1867H142.821V90.2673L145.828 90.2668ZM145.828 97.1907C146.614 97.1907 147.256 96.9079 147.756 96.3424C148.255 95.7768 148.505 95.0713 148.505 94.2268C148.505 93.3822 148.255 92.6768 147.756 92.1112C147.256 91.5456 146.614 91.2628 145.828 91.2628H143.845V97.1912H145.828V97.1907Z" fill="white"/>
<path d="M155.895 90.2668H154.871V98.1863H155.895V90.2668Z" fill="white"/>
<path d="M166.483 90.2668H167.507V98.1858H166.681L162.715 92.2691V98.1858H161.691V90.2668H162.483L166.483 96.2136V90.2668Z" fill="white"/>
<path d="M180.737 94.2615V94.7368C180.737 95.77 180.391 96.6282 179.701 97.3106C179.011 97.993 178.096 98.3344 176.958 98.3344C175.783 98.3344 174.812 97.9365 174.044 97.1407C173.277 96.3454 172.893 95.3743 172.893 94.2277C172.893 93.0811 173.277 92.1104 174.044 91.3142C174.811 90.5185 175.775 90.1206 176.936 90.1206C177.648 90.1206 178.302 90.296 178.897 90.6464C179.492 90.9972 179.95 91.4593 180.273 92.0325L179.392 92.5643C179.172 92.1344 178.839 91.7895 178.395 91.5294C177.951 91.2693 177.46 91.1388 176.925 91.1388C176.043 91.1388 175.32 91.4349 174.755 92.027C174.189 92.6191 173.907 93.3528 173.907 94.2277C173.907 95.1026 174.191 95.8342 174.761 96.4224C175.33 97.0107 176.066 97.305 176.969 97.305C177.74 97.305 178.365 97.1108 178.842 96.7223C179.319 96.3343 179.609 95.8308 179.712 95.2121H176.881V94.2619H180.736L180.737 94.2615Z" fill="white"/>
<path d="M9.06406 48.1804H0.838867V85.1383H9.06406V48.1804Z" fill="white"/>
<path d="M43.2504 48.1804V85.1383H37.0814L23.2013 65.0756V85.1383H14.9761V48.1804H21.1451L35.0252 68.2436V48.1804H43.2504Z" fill="white"/>
<path d="M46.8472 76.7436L53.9414 72.5198C55.2265 75.5817 57.4372 77.6412 61.4984 77.6412C65.4054 77.6412 66.3823 76.0574 66.3823 74.6319C66.3823 72.361 64.3257 71.4639 58.9281 69.9327C53.5815 68.4015 48.3377 65.7619 48.3377 58.6874C48.3377 51.5594 54.1984 47.4417 60.4186 47.4417C66.3306 47.4417 70.9575 50.3453 73.5794 55.7838L66.6393 59.9546C65.4054 57.3149 63.7087 55.6781 60.4186 55.6781C57.848 55.6781 56.5629 56.9979 56.5629 58.4765C56.5629 60.1659 57.4368 61.3275 63.0405 63.0696C68.4897 64.7595 74.6075 66.7125 74.6075 74.5271C74.6075 81.6546 69.0554 85.8781 61.2414 85.8781C53.6844 85.8781 48.8517 82.1826 46.8472 76.7445" fill="white"/>
<path d="M86.4308 48.1804H78.2056V85.1383H86.4308V48.1804Z" fill="white"/>
<path d="M159.997 63.6482H109.616V71.9382H119.538C118.252 75.4754 115.117 77.6406 110.335 77.6406C103.344 77.6406 99.0256 73.0471 99.0256 66.7641C99.0256 60.2702 103.55 55.6766 109.616 55.6766C113.677 55.6766 116.916 57.5774 118.407 60.0058L125.399 55.8875C122.366 50.9248 116.556 47.4402 109.668 47.4402C99.0772 47.4402 90.8008 55.9932 90.8008 66.711C90.8008 77.3232 98.9235 85.8766 110.233 85.8766C118.983 85.8766 125.907 80.6987 127.579 71.9382H132.2V85.1373H140.426V71.9382H151.98V85.1339H160.206V71.9275C162.337 71.8149 164.033 70.01 164.033 67.7934C164.033 65.5041 162.226 63.6482 159.997 63.6482Z" fill="#F27123"/>
<path d="M140.426 48.1804H132.201V61.4857H140.426V48.1804Z" fill="white"/>
<path d="M160.206 48.1804H151.98V61.4857H160.206V48.1804Z" fill="white"/>
<path d="M190 56.3112H180.746V85.1383H172.521V56.3112H163.268V48.1804H190V56.3112Z" fill="white"/>
<path d="M32.0494 30.4869C32.0494 38.1235 25.9929 43.1124 18.4967 43.1124H0.865723V0.000244141H17.297C24.6136 0.000244141 30.5502 4.86587 30.5502 12.3181C30.5502 15.8904 29.1709 18.7235 26.8918 20.7556C30.0103 22.7878 32.0494 26.1137 32.0494 30.4869ZM10.4606 9.23865V16.8757H17.297C19.456 16.8757 20.9553 15.2744 20.9553 13.0574C20.9553 10.8404 19.516 9.23865 17.297 9.23865H10.4606ZM22.4541 29.748C22.4541 27.3462 20.8949 25.6213 18.4963 25.6213H10.4606V33.874H18.4963C20.8949 33.874 22.4541 32.1498 22.4541 29.748Z" fill="#F27123"/>
<path d="M49.3953 28.9472H44.8376V43.1128H35.2427V0.000244141H52.0338C60.0099 0.000244141 66.4264 6.59042 66.4264 14.7815C66.4264 20.078 63.3083 24.882 58.6902 27.2842L67.6257 43.1124H57.3109L49.3948 28.9467L49.3953 28.9472ZM44.8376 20.3248H52.0338C54.6724 20.3248 56.8315 17.923 56.8315 14.7819C56.8315 11.6409 54.6728 9.23907 52.0338 9.23907H44.8376V20.3248Z" fill="#F27123"/>
<path d="M90.682 0.000244141L70.293 43.1124H111.072L90.682 0.000244141ZM86.7029 36.4285L88.8229 28.7315C86.9466 27.9576 85.6324 26.0525 85.6878 23.836C85.7544 21.183 87.8564 18.9729 90.4375 18.8463C93.3081 18.7059 95.6784 21.0543 95.6784 23.9716C95.6784 26.1299 94.3791 27.9734 92.5416 28.7315L94.6615 36.4285C94.8336 37.0527 94.377 37.673 93.7451 37.673H87.6194C86.9875 37.673 86.5309 37.0527 86.7029 36.4285Z" fill="#F27123"/>
<path d="M149.159 0.000244141V43.1124H141.512L124.306 19.7087V43.1124H114.11V0.000244141H121.757L138.963 23.4043V0.000244141H149.159Z" fill="#F27123"/>
<path d="M191.162 21.5565C191.162 33.7512 182.346 43.1124 170.772 43.1124H153.98V0.000244141H170.772C182.346 0.000244141 191.162 9.36186 191.162 21.5565ZM181.927 21.5565C181.927 14.1659 177.369 9.48507 170.772 9.48507H163.576V33.628H170.772C177.369 33.628 181.927 28.9472 181.927 21.5565Z" fill="#F27123"/>
</g>
</g>
</svg>
