<svg width="238" height="114" viewBox="0 0 238 114" fill="none" xmlns="http://www.w3.org/2000/svg">
<g clip-path="url(#clip0_1462_1478)">
<path d="M157.654 82.7349C146.181 82.7349 137.761 74.9787 137.761 64.3754C137.761 53.6741 146.181 45.918 157.865 45.918C165.022 45.918 170.6 48.7651 174.179 54.2635L175.021 55.5401L166.39 59.8598L165.548 58.682C163.653 55.9328 161.127 54.5582 157.759 54.5582C152.076 54.5582 147.865 58.682 147.865 64.3762C147.865 69.9726 151.97 73.9976 157.654 73.9976C161.127 73.9976 163.759 72.525 164.811 70.0705H157.023V61.627H176.179V63.8848C176.179 68.9906 175.231 72.3283 172.705 75.666C169.337 80.2804 164.075 82.7349 157.654 82.7349Z" fill="white"/>
<path d="M220.586 82.7342V54.8707H212.749V46.4272H238V54.8707H230.164V82.7342H220.586Z" fill="white"/>
<path d="M12.4804 46.4272H2.90234V83.5785H12.4804V46.4272Z" fill="white"/>
<path d="M68.216 83.2648C62.7722 83.2648 58.4803 81.0315 55.1306 76.2601L54.3975 75.2452L61.0969 69.0527L62.039 70.7786C63.2955 73.2145 65.3887 74.4329 68.0061 74.4329C70.3092 74.4329 71.8792 73.1132 71.8792 71.1847C71.8792 69.7637 71.8792 69.154 66.2264 67.2255C63.4 66.312 61.4112 65.2971 59.9449 64.0787C57.9561 62.4541 56.6997 59.9169 56.6997 56.8713C56.6997 50.4762 61.9337 45.7048 68.9474 45.7048C73.0303 45.7048 76.9033 47.1259 80.044 49.7653L81.0907 50.6789L75.6468 57.5814L74.4957 56.2617C73.0303 54.6372 71.7738 54.0284 69.994 54.0284C68.1098 54.0284 66.6443 55.0433 66.6443 56.2617C66.6443 56.9726 66.6443 57.5814 70.9362 59.1038C74.9145 60.5248 76.4845 61.2358 78.2643 62.7581C80.6718 64.7888 81.8238 67.5295 81.8238 70.879C81.7193 78.0864 76.171 83.2639 68.2151 83.2639" fill="white"/>
<path d="M110.508 38.7017C95.8518 38.7017 83.9185 50.2743 83.9185 64.4855C83.9185 78.6967 95.8527 90.2693 110.508 90.2693C125.163 90.2693 137.098 78.6967 137.098 64.4855C137.098 50.2743 125.163 38.7017 110.508 38.7017ZM111.744 79.357H109.131V48.9605H111.744V79.357Z" fill="#F58220"/>
<path d="M112.615 80.2013H109.132V48.9604H112.615V80.2013ZM110.003 79.3569H111.744V49.8048H110.003V79.3569Z" fill="white"/>
<path d="M114.382 101.74C96.8994 101.74 78.0568 95.7515 56.3868 81.2347C55.4447 80.5237 53.9792 79.6101 53.0371 78.9L53.4559 78.2913C54.3981 79.0022 55.759 80.0171 56.8056 80.6259C104.019 112.297 137.726 103.162 173.634 79.7123C174.785 78.9 176.146 77.8851 177.717 76.6667L178.24 77.1742C176.774 78.3926 175.309 79.5088 174.157 80.3211C154.267 93.2134 135.319 101.74 114.382 101.74Z" fill="white"/>
<path d="M51.6752 51.7967L51.2563 51.1879C52.303 50.3757 53.8738 49.2595 55.0249 48.4472C75.124 34.6413 97.6316 28.0435 120.244 29.4646C139.192 30.683 157.93 37.3829 173.109 48.4472C174.051 49.1581 174.889 49.7669 175.727 50.3757L175.308 50.9845C174.47 50.3757 173.633 49.7661 172.69 49.056C157.511 38.093 138.877 31.3931 120.139 30.276C97.7369 28.855 75.3338 35.3514 55.4437 49.1573C54.1872 49.8682 52.7218 50.9845 51.6752 51.7967Z" fill="white"/>
<path d="M198.817 46.4272V59.9368H187.498V46.4272H177.049V74.7382C182.531 70.4751 186.509 65.6024 188.498 63.0643L189.126 63.4704L189.754 63.8765C187.555 66.7186 183.159 72.0988 177.919 76.6667V83.5785H187.497V68.3803H198.816V83.5785H209.265V46.4272H198.817Z" fill="white"/>
<path d="M51.663 51.8074V46.4272H42.085V59.827C45.0002 57.0863 51.0387 52.2136 51.663 51.8074Z" fill="white"/>
<path d="M42.0852 60.9418V66.3938L23.5334 45.584H16.834V82.7352H26.412V62.4557L44.9761 83.5796H51.6633V52.923C48.0193 55.7651 45.2085 58.2011 42.0852 60.9418Z" fill="white"/>
<path d="M5.40593 113.13H3.77418V105.531H2.03271V104.687H7.25711V105.531H5.30145C5.40593 105.191 5.40593 113.008 5.40593 113.13Z" fill="white"/>
<path d="M20.3172 108.064V104.687H21.1879V113.13H20.3172V108.908H15.9635V113.13H15.0928V104.687H15.9635V108.064H20.3172Z" fill="white"/>
<path d="M29.8955 104.687H34.2492V105.531H30.7662V108.064H34.2492V108.908H30.7662V112.286H34.2492V113.13H29.8955V104.687Z" fill="white"/>
<path d="M52.5347 104.686H54.0837C55.4447 104.276 56.4913 104.48 57.5379 105.292C58.5845 106.104 59.0034 107.323 59.0034 108.54C59.0034 109.758 58.5845 110.875 57.5379 111.788C56.4913 112.702 55.4438 112.904 53.9784 113.129H51.6631L52.5338 104.276L52.5347 104.686ZM54.0202 112.285C55.0441 112.285 55.9662 112.185 56.7856 111.391C57.5031 110.794 57.9123 109.802 57.9123 108.907C57.9123 107.914 57.5022 107.02 56.7856 106.325C55.9662 105.629 55.1469 105.53 54.122 105.53H53.4046V112.285H54.0193H54.0202Z" fill="white"/>
<path d="M67.3369 104.28L74.3028 111.386V104.686H75.1735V113.424L68.2076 106.65V113.13H67.3369V103.973V104.28Z" fill="white"/>
<path d="M84.3663 110.596L83.2779 113.129H82.1895L86.4343 103.736L90.5703 113.129H89.373L88.2846 110.596H84.3663ZM86.3272 106.3L84.8617 109.752H87.898L86.3272 106.3Z" fill="white"/>
<path d="M116.581 108.642C116.581 111.078 114.486 113.109 111.974 113.109C109.462 113.109 107.368 111.18 107.368 108.642C107.368 106.206 109.462 104.176 111.974 104.176C114.486 104.176 116.581 106.206 116.581 108.642ZM108.206 108.642C108.206 110.571 109.881 112.195 111.87 112.195C113.859 112.195 115.534 110.571 115.534 108.642C115.534 106.714 113.964 105.089 111.87 105.089C109.881 105.089 108.206 106.714 108.206 108.642Z" fill="white"/>
<path d="M124.805 105.531V108.064H128.288V108.908H124.805V113.13H123.935V104.687H128.288V105.531H124.805Z" fill="white"/>
<path d="M150.393 106.003C150.079 105.395 149.556 105.09 148.823 105.09C147.986 105.09 147.358 105.597 147.358 106.409C147.358 107.12 148.196 107.526 148.719 107.729L149.347 107.932C150.498 108.439 151.545 108.947 151.545 110.368C151.545 111.89 150.289 113.007 148.719 113.007C147.254 113.007 146.207 112.094 145.997 110.774L146.939 110.469C147.044 111.383 147.777 112.094 148.719 112.094C149.661 112.094 150.603 111.383 150.603 110.368C150.603 109.353 149.766 109.048 148.928 108.642L148.405 108.439C147.358 107.932 146.416 107.424 146.416 106.206C146.416 104.886 147.567 103.973 148.928 103.973C149.87 103.973 150.812 104.48 151.231 105.292L150.393 106.003Z" fill="white"/>
<path d="M160.505 109.121C160.505 109.729 160.506 110.542 160.92 111.049C161.334 111.557 162.061 111.861 162.682 111.861C163.304 111.861 164.03 111.557 164.445 111.049C164.859 110.542 164.859 109.729 164.859 109.018V103.841H165.73V109.221C165.73 110.135 165.628 110.947 165.019 111.657C164.409 112.266 163.597 112.672 162.682 112.672C161.87 112.672 161.057 112.367 160.447 111.758C159.736 111.047 159.635 110.236 159.635 109.22V103.84H160.505V109.119V109.121Z" fill="white"/>
<path d="M180.428 106.206C179.957 105.749 179.4 105.419 178.784 105.241C176.696 104.636 174.454 106.104 174.176 108.199C173.895 110.316 175.671 112.196 177.81 112.196C178.857 112.196 179.799 111.79 180.532 111.08V112.298C179.799 112.805 178.857 113.11 177.915 113.11C175.403 113.11 173.309 111.08 173.309 108.644C173.309 106.208 175.403 104.177 177.915 104.177C178.857 104.177 179.799 104.482 180.532 104.989L180.428 106.208V106.206Z" fill="white"/>
<path d="M195.23 106.375C194.759 105.918 194.203 105.588 193.586 105.41C191.498 104.805 189.257 106.273 188.979 108.368C188.697 110.485 190.474 112.365 192.613 112.365C193.66 112.365 194.602 111.959 195.335 111.248V112.467C194.602 112.974 193.66 113.279 192.717 113.279C190.205 113.279 188.111 111.248 188.111 108.813C188.111 106.377 190.205 104.346 192.717 104.346C193.66 104.346 194.602 104.651 195.335 105.158V106.377H195.23V106.375Z" fill="white"/>
<path d="M203.171 104.687H208.396V105.531H204.913V108.064H208.396V108.908H204.913V112.286H208.396V113.13H203.171V104.687Z" fill="white"/>
<path d="M220.219 106.003C219.904 105.395 219.485 105.09 218.649 105.09C217.812 105.09 217.183 105.597 217.183 106.409C217.183 107.12 218.021 107.526 218.544 107.729L219.172 107.932C220.323 108.439 221.266 108.947 221.266 110.368C221.266 111.89 220.01 113.007 218.44 113.007C216.974 113.007 215.928 112.094 215.613 110.774L216.555 110.469C216.66 111.383 217.393 112.094 218.335 112.094C219.277 112.094 220.219 111.383 220.219 110.368C220.219 109.353 219.382 109.048 218.544 108.642L218.021 108.439C216.974 107.932 216.032 107.424 216.032 106.206C216.032 104.886 217.183 103.973 218.544 103.973C219.486 103.973 220.428 104.48 220.847 105.292L220.219 106.003H220.219Z" fill="white"/>
<path d="M233.2 106.003C232.885 105.395 232.362 105.09 231.63 105.09C230.792 105.09 230.164 105.597 230.164 106.409C230.164 107.12 231.002 107.526 231.525 107.729L232.153 107.932C233.304 108.439 234.247 108.947 234.247 110.368C234.247 111.89 232.991 113.007 231.421 113.007C229.955 113.007 228.909 112.094 228.594 110.774L229.536 110.469C229.641 111.383 230.374 112.094 231.316 112.094C232.258 112.094 233.2 111.383 233.2 110.368C233.2 109.353 232.363 109.048 231.525 108.642L231.002 108.439C229.955 107.932 229.013 107.424 229.013 106.206C229.013 104.886 230.164 103.973 231.525 103.973C232.467 103.973 233.409 104.48 233.828 105.292L233.2 106.003H233.2Z" fill="white"/>
<path d="M15.0357 4.08584C15.0357 3.17226 15.1402 2.25867 15.2447 1.34509C15.2447 1.14245 15.3492 0.837638 15.3492 0.63415C15.5581 0.126697 15.8725 -0.0767902 16.2913 0.0253758C16.7101 0.228019 17.1289 0.431507 17.5478 0.736316C18.1756 1.34509 18.8042 2.05603 19.432 2.76697C19.9553 3.47791 20.1652 4.18801 20.0598 5.10159C19.641 9.06073 19.2222 13.0199 18.9087 16.9782C18.6997 20.836 18.5944 24.693 18.8042 28.5508C18.9087 30.0732 18.9087 31.5964 19.0132 33.1187C19.0132 33.4235 19.0132 33.7275 19.1177 34.1336C19.3267 33.8288 19.432 33.7275 19.641 33.5248C20.6876 31.9003 21.6297 30.378 22.6772 28.7534C23.4104 27.6372 24.3525 26.8249 25.6081 26.5201C27.3879 26.0127 28.9578 26.6215 30.3188 27.8399C31.1564 28.5508 31.8887 29.4644 32.6219 30.2758C33.8783 31.5955 35.0295 33.0165 36.2859 34.3363C36.4949 34.6411 36.8092 34.8437 37.1236 35.1485C41.6253 28.3473 47.9058 26.8241 55.1294 27.9412C55.2339 27.4337 55.2339 27.0276 55.2339 26.6215C56.1761 26.2153 57.1182 26.2153 58.1648 26.6215C58.1648 26.8241 58.2693 26.8241 58.2693 27.3324C58.0603 31.2915 57.955 35.2507 58.1648 39.209C58.1648 39.8178 58.2693 42.1532 57.9558 42.2545C57.7469 42.3559 57.4325 41.7471 57.328 41.4423C56.3859 39.4116 55.8626 37.1792 55.5483 34.9459C55.5483 34.8446 55.5483 34.6411 55.4438 34.3371C50.9421 38.2962 45.8126 39.616 40.1598 39.2098C40.893 40.3261 41.5208 41.3418 42.1486 42.458C42.4629 43.0668 42.8817 43.7777 43.0907 44.3865C43.1952 44.5892 43.405 45.0975 42.9862 45.1988C42.6719 45.1988 41.6253 44.3865 40.9975 43.8791C39.2177 42.0519 37.4379 40.1234 35.5536 38.2962C33.2505 35.9616 30.843 33.5248 28.5399 31.1902C27.2834 29.9718 26.2368 30.074 24.9803 31.2915C23.6194 32.6113 22.4683 34.3371 21.4208 35.9608C20.8975 36.773 20.2697 37.5853 19.641 38.3967C19.3267 38.7015 19.0132 39.1077 18.6989 39.3103C18.1756 39.7164 17.7567 39.6151 17.4424 38.9042C17.2334 38.498 17.1281 38.0919 17.0236 37.6858C16.2904 34.4376 15.977 31.1894 15.7671 27.9403C15.5581 25.4022 15.1393 19.6159 15.1393 19.1085C14.0927 19.0071 13.1506 19.3111 12.2084 19.8194C9.591 21.4439 8.54438 24.5908 10.0098 27.5342C10.5331 28.4478 11.0564 29.3614 11.6851 30.2749C12.4183 31.3912 13.1506 32.3056 13.7792 33.4218C14.8258 35.3503 14.6169 37.6849 13.2559 39.4108C11.895 41.2379 10.0107 42.355 8.02194 43.3699C7.07981 43.8774 6.03318 44.2835 5.09105 44.5883C4.46325 44.791 3.83458 44.9944 3.31127 45.0958C2.99694 45.1971 2.47363 45.1971 2.36914 44.8931C2.36914 44.5883 2.78796 44.3857 3.1023 44.1822C4.25341 43.5734 5.40539 42.9638 6.55649 42.2537C7.7076 41.5428 8.85958 40.8327 9.80172 39.7156C11.1627 38.0911 11.2672 36.1626 10.2205 34.3354C9.69723 33.3205 8.96407 32.4069 8.23178 31.4933C6.97532 29.971 6.03318 28.2451 5.40539 26.3158C4.88208 24.8948 4.77759 23.3716 5.19641 21.8492C5.61523 20.4282 6.55736 19.4133 7.70847 18.601C9.80259 17.18 12.1048 16.8752 14.5132 17.7887C14.6177 17.7887 14.8276 17.9914 14.9321 17.9914C15.0366 18.3975 14.7231 8.3481 15.0366 4.08415M47.9076 30.1728C45.3955 30.5789 43.0924 31.7973 41.4172 33.9284C41.2082 34.2332 40.9983 34.6394 40.7894 35.0447C40.5804 35.7556 40.6849 36.2631 41.3127 36.567C41.5216 36.6683 41.7315 36.7697 41.9405 36.7697C43.5104 37.0745 45.0812 36.9723 46.5466 36.567C48.5354 36.0596 50.525 35.2473 51.9905 33.6228C52.4093 33.2167 52.7236 32.8105 53.0371 32.1004C53.3505 31.3903 53.2461 30.882 52.5138 30.4759C51.886 30.1711 50.1062 29.8671 47.9076 30.1711" fill="white"/>
<path d="M3.96402 23.4293C3.96402 24.4906 3.66536 33.1756 3.76462 37.7106V40.7984C3.76462 41.1842 3.66536 41.7635 3.3667 41.7635C3.06804 41.7635 2.76937 41.088 2.57085 40.6059C1.67486 38.6757 1.27694 36.6492 0.978278 34.6228C0.380955 31.1492 0.182428 27.5784 0.281691 24.1048V23.333C1.3762 22.8509 2.96877 22.8509 3.96402 23.4293Z" fill="white"/>
<path d="M2.05484 17.4862C2.89248 17.3848 3.73012 18.6024 4.14895 19.6181C4.46328 20.2269 4.25343 20.7344 3.62564 21.0392C2.99784 21.344 1.21806 21.344 0.694751 21.1405C0.171441 20.9378 -0.247381 20.3282 0.171441 19.7194C0.694751 18.7045 1.21806 17.5875 2.05571 17.4862" fill="#F58220"/>
</g>
<defs>
<clipPath id="clip0_1462_1478">
<rect width="238" height="113.425" fill="white"/>
</clipPath>
</defs>
</svg>
